<svg xmlns="http://www.w3.org/2000/svg" width="1920" height="1080"><path d="M1273 1602l-422 38 760-19z" fill="#3c83b1" stroke="#3c83b1" stroke-width="1.51"/><path d="M1611 1621l-760 19 1188 20z" fill="#2c77ad" stroke="#2c77ad" stroke-width="1.51"/><path d="M851 1640l-485 36 1673-16z" fill="#4885ab" stroke="#4885ab" stroke-width="1.51"/><path d="M1721-499l209 65 362 6z" fill="#92b3cb" stroke="#92b3cb" stroke-width="1.51"/><path d="M2292-428l-58 176 66 349z" fill="#839fb6" stroke="#839fb6" stroke-width="1.51"/><path d="M1981 515l-106 417 512 64z" fill="#3990c0" stroke="#3990c0" stroke-width="1.51"/><path d="M2280 1262l-241 398 386-102z" fill="#095ea1" stroke="#095ea1" stroke-width="1.51"/><path d="M2387 996l-107 266 145 296z" fill="#1765a3" stroke="#1765a3" stroke-width="1.51"/><path d="M2300 97l-316 198 441 263z" fill="#6698ad" stroke="#6698ad" stroke-width="1.51"/><path d="M1984 295l-3 220 444 43z" fill="#5b9ab6" stroke="#5b9ab6" stroke-width="1.51"/><path d="M1981 515l406 481 38-438z" fill="#448ab4" stroke="#448ab4" stroke-width="1.51"/><path d="M2292-428l8 525 125 461z" fill="#7598aa" stroke="#7598aa" stroke-width="1.51"/><path d="M2387 996l38 562V558z" fill="#2671a8" stroke="#2671a8" stroke-width="1.51"/><path d="M1961 1358l78 302 241-398z" fill="#0d6aad" stroke="#0d6aad" stroke-width="1.51"/><path d="M1875 932l405 330 107-266z" fill="#257cb5" stroke="#257cb5" stroke-width="1.51"/><path d="M1875 932l86 426 319-96z" fill="#1f7bb6" stroke="#1f7bb6" stroke-width="1.51"/><path d="M2234-252l-274 77 340 272z" fill="#82a5b9" stroke="#82a5b9" stroke-width="1.51"/><path d="M1960-175l24 470 316-198z" fill="#7aa6b7" stroke="#7aa6b7" stroke-width="1.51"/><path d="M1930-434l304 182 58-176z" fill="#8aa9c3" stroke="#8aa9c3" stroke-width="1.51"/><path d="M1930-434l30 259 274-77z" fill="#8baec3" stroke="#8baec3" stroke-width="1.51"/><path d="M1875 932l-218 413 304 13z" fill="#2683ba" stroke="#2683ba" stroke-width="1.51"/><path d="M1668 615l207 317 106-417z" fill="#4ca0c2" stroke="#4ca0c2" stroke-width="1.51"/><path d="M1960-175L1714-32l270 327z" fill="#81b1bd" stroke="#81b1bd" stroke-width="1.51"/><path d="M1714-32l-19 124 289 203z" fill="#7db3bc" stroke="#7db3bc" stroke-width="1.51"/><path d="M1961 1358l-350 263 428 39z" fill="#196caa" stroke="#196caa" stroke-width="1.51"/><path d="M1930-434l-209-65 239 324z" fill="#91b7ca" stroke="#91b7ca" stroke-width="1.51"/><path d="M1657 1345l-46 276 350-263z" fill="#1e79b5" stroke="#1e79b5" stroke-width="1.51"/><path d="M1668 615l313-100 3-220z" fill="#5ea6bd" stroke="#5ea6bd" stroke-width="1.51"/><path d="M1695 92l-27 523 316-320z" fill="#6dafbc" stroke="#6dafbc" stroke-width="1.51"/><path d="M1721-499l-7 467 246-143z" fill="#8eb9c7" stroke="#8eb9c7" stroke-width="1.51"/><path d="M1530 921l127 424 218-413z" fill="#3393c2" stroke="#3393c2" stroke-width="1.51"/><path d="M1432 235l-21 196 257 184z" fill="#6dbac5" stroke="#6dbac5" stroke-width="1.51"/><path d="M1432 235l236 380 27-523z" fill="#75b9c0" stroke="#75b9c0" stroke-width="1.51"/><path d="M1668 615l-138 306 345 11z" fill="#42a2c9" stroke="#42a2c9" stroke-width="1.51"/><path d="M1530 921l-230 248 357 176z" fill="#3798c4" stroke="#3798c4" stroke-width="1.51"/><path d="M1417-520L1215-26l499-6z" fill="#98cbcf" stroke="#98cbcf" stroke-width="1.51"/><path d="M1417-520l297 488 7-467z" fill="#97c4d0" stroke="#97c4d0" stroke-width="1.51"/><path d="M1432 235l263-143 19-124z" fill="#84bdc1" stroke="#84bdc1" stroke-width="1.51"/><path d="M1215-26l217 261 282-267z" fill="#8cc6c6" stroke="#8cc6c6" stroke-width="1.51"/><path d="M1273 1602l338 19 46-276z" fill="#2b7fb5" stroke="#2b7fb5" stroke-width="1.51"/><path d="M1411 431l119 490 138-306z" fill="#58b1ca" stroke="#58b1ca" stroke-width="1.51"/><path d="M1300 1169l-27 433 384-257z" fill="#348ec0" stroke="#348ec0" stroke-width="1.51"/><path d="M1411 431l-179 572 298-82z" fill="#52b3d1" stroke="#52b3d1" stroke-width="1.51"/><path d="M1232 1003l68 166 230-248z" fill="#44a6cc" stroke="#44a6cc" stroke-width="1.51"/><path d="M918-546l-60 373 357 147z" fill="#abddcc" stroke="#abddcc" stroke-width="1.51"/><path d="M1068 1329l205 273 27-433z" fill="#4396c0" stroke="#4396c0" stroke-width="1.51"/><path d="M1066 977l166 26 179-572z" fill="#59b8d0" stroke="#59b8d0" stroke-width="1.51"/><path d="M854 658l212 319 345-546z" fill="#6ac1cb" stroke="#6ac1cb" stroke-width="1.51"/><path d="M918-546l297 520 202-494z" fill="#a7d8d4" stroke="#a7d8d4" stroke-width="1.51"/><path d="M1065 222l346 209 21-196z" fill="#80c8c5" stroke="#80c8c5" stroke-width="1.51"/><path d="M1215-26l-150 248 367 13z" fill="#8dcdc5" stroke="#8dcdc5" stroke-width="1.51"/><path d="M1065 222L854 658l557-227z" fill="#7dcac5" stroke="#7dcac5" stroke-width="1.51"/><path d="M1232 1003l-166-26 234 192z" fill="#4faac9" stroke="#4faac9" stroke-width="1.51"/><path d="M1066 977l2 352 232-160z" fill="#4ea5c4" stroke="#4ea5c4" stroke-width="1.51"/><path d="M1068 1329l-217 311 422-38z" fill="#4b8fb5" stroke="#4b8fb5" stroke-width="1.51"/><path d="M858-173l207 395 150-248z" fill="#9ed7c4" stroke="#9ed7c4" stroke-width="1.51"/><path d="M247-494l491 44 180-96z" fill="#c6e9cd" stroke="#c6e9cd" stroke-width="1.51"/><path d="M738-450l120 277 60-373z" fill="#b7e3ce" stroke="#b7e3ce" stroke-width="1.51"/><path d="M577 490l277 168 211-436z" fill="#8ad1c0" stroke="#8ad1c0" stroke-width="1.51"/><path d="M555 69l22 421 488-268z" fill="#9ed9b9" stroke="#9ed9b9" stroke-width="1.51"/><path d="M858-173L555 69l510 153z" fill="#a7dcc0" stroke="#a7dcc0" stroke-width="1.51"/><path d="M854 658L653 766l413 211z" fill="#72c3c9" stroke="#72c3c9" stroke-width="1.51"/><path d="M653 766l-130 350 543-139z" fill="#72bcc4" stroke="#72bcc4" stroke-width="1.51"/><path d="M1066 977l-543 139 545 213z" fill="#60adc0" stroke="#60adc0" stroke-width="1.51"/><path d="M523 1116l143 378 402-165z" fill="#66a5b9" stroke="#66a5b9" stroke-width="1.51"/><path d="M666 1494l185 146 217-311z" fill="#5a97b4" stroke="#5a97b4" stroke-width="1.51"/><path d="M738-450l-83 175 203 102z" fill="#b9e3c9" stroke="#b9e3c9" stroke-width="1.51"/><path d="M666 1494l-300 182 485-36z" fill="#6894a7" stroke="#6894a7" stroke-width="1.51"/><path d="M577 490l76 276 201-108z" fill="#87cec2" stroke="#87cec2" stroke-width="1.51"/><path d="M655-275L555 69l303-242z" fill="#b6e3c2" stroke="#b6e3c2" stroke-width="1.51"/><path d="M523 1116l-161 216 304 162z" fill="#75a9b7" stroke="#75a9b7" stroke-width="1.51"/><path d="M386-240l269-35 83-175z" fill="#c2e7c7" stroke="#c2e7c7" stroke-width="1.51"/><path d="M247-494l139 254 352-210z" fill="#cbebcb" stroke="#cbebcb" stroke-width="1.51"/><path d="M555 69L282 204l295 286z" fill="#acdeb7" stroke="#acdeb7" stroke-width="1.51"/><path d="M164 866l359 250 130-350z" fill="#86c5c5" stroke="#86c5c5" stroke-width="1.51"/><path d="M241 665l-77 201 489-100z" fill="#92cfc7" stroke="#92cfc7" stroke-width="1.51"/><path d="M577 490L241 665l412 101z" fill="#92d2c1" stroke="#92d2c1" stroke-width="1.51"/><path d="M386-240L555 69l100-344z" fill="#bfe6c1" stroke="#bfe6c1" stroke-width="1.51"/><path d="M362 1332l4 344 300-182z" fill="#739eb0" stroke="#739eb0" stroke-width="1.51"/><path d="M282 204l-41 461 336-175z" fill="#a3dabf" stroke="#a3dabf" stroke-width="1.51"/><path d="M386-240L282 204 555 69z" fill="#bde6be" stroke="#bde6be" stroke-width="1.51"/><path d="M-361-390l323 17 285-121z" fill="#def3d8" stroke="#def3d8" stroke-width="1.51"/><path d="M164 866l198 466 161-216z" fill="#83bac0" stroke="#83bac0" stroke-width="1.51"/><path d="M-16 575l257 90 41-461z" fill="#abddc4" stroke="#abddc4" stroke-width="1.51"/><path d="M164 866l-226 435 424 31z" fill="#8ab9c3" stroke="#8ab9c3" stroke-width="1.51"/><path d="M362 1332l-424-31 428 375z" fill="#80a7b9" stroke="#80a7b9" stroke-width="1.51"/><path d="M-62 1301l-92 247 520 128z" fill="#83a3b9" stroke="#83a3b9" stroke-width="1.51"/><path d="M-171-96l453 300 104-444z" fill="#ccebc5" stroke="#ccebc5" stroke-width="1.51"/><path d="M-38-373L-171-96l557-144z" fill="#d5efcf" stroke="#d5efcf" stroke-width="1.51"/><path d="M247-494L-38-373l424 133z" fill="#d6efcf" stroke="#d6efcf" stroke-width="1.51"/><path d="M-171-96l120 330 333-30z" fill="#c6e9c5" stroke="#c6e9c5" stroke-width="1.51"/><path d="M-51 234l35 341 298-371z" fill="#b7e2c2" stroke="#b7e2c2" stroke-width="1.51"/><path d="M-75 780l239 86 77-201z" fill="#9cd3cd" stroke="#9cd3cd" stroke-width="1.51"/><path d="M-16 575l-59 205 316-115z" fill="#a3d7cc" stroke="#a3d7cc" stroke-width="1.51"/><path d="M-75 780l13 521 226-435z" fill="#95c7cd" stroke="#95c7cd" stroke-width="1.51"/><path d="M-504 892l39 220 390-332z" fill="#a1ced8" stroke="#a1ced8" stroke-width="1.51"/><path d="M-75 780l-390 332 403 189z" fill="#97c3d0" stroke="#97c3d0" stroke-width="1.51"/><path d="M-171-96l-230 228 350 102z" fill="#cdeccc" stroke="#cdeccc" stroke-width="1.51"/><path d="M-401 132l-104 425 454-323z" fill="#c3e8cd" stroke="#c3e8cd" stroke-width="1.51"/><path d="M-346-160l175 64 133-277z" fill="#dbf1d5" stroke="#dbf1d5" stroke-width="1.51"/><path d="M-51 234l-454 323 489 18z" fill="#b5e2cd" stroke="#b5e2cd" stroke-width="1.51"/><path d="M-505 557l430 223 59-205z" fill="#abdbd2" stroke="#abdbd2" stroke-width="1.51"/><path d="M-314 1498l160 50 92-247z" fill="#8baac3" stroke="#8baac3" stroke-width="1.51"/><path d="M-361-390l15 230 308-213z" fill="#e0f3da" stroke="#e0f3da" stroke-width="1.51"/><path d="M-465 1112l151 386 252-197z" fill="#91b5ca" stroke="#91b5ca" stroke-width="1.51"/><path d="M-505 557l1 335 429-112z" fill="#aad9d9" stroke="#aad9d9" stroke-width="1.51"/><path d="M-346-160l-55 292 230-228z" fill="#d8f0d2" stroke="#d8f0d2" stroke-width="1.51"/><path d="M-361-390l-40 522 55-292z" fill="#def2d7" stroke="#def2d7" stroke-width="1.51"/><path d="M-505 557l104-425 40-522z" fill="#d3eed1" stroke="#d3eed1" stroke-width="1.51"/></svg>