<?xml version="1.0" encoding="UTF-8" standalone="no"?>
<svg
   xmlns:dc="http://purl.org/dc/elements/1.1/"
   xmlns:cc="http://creativecommons.org/ns#"
   xmlns:rdf="http://www.w3.org/1999/02/22-rdf-syntax-ns#"
   xmlns:svg="http://www.w3.org/2000/svg"
   xmlns="http://www.w3.org/2000/svg"
   xmlns:sodipodi="http://sodipodi.sourceforge.net/DTD/sodipodi-0.dtd"
   xmlns:inkscape="http://www.inkscape.org/namespaces/inkscape"
   width="1920"
   height="1080"
   id="svg2"
   version="1.1"
   inkscape:version="0.91 r13725"
   sodipodi:docname="bg-pattern-01.svg">
  <metadata
     id="metadata226">
    <rdf:RDF>
      <cc:Work
         rdf:about="">
        <dc:format>image/svg+xml</dc:format>
        <dc:type
           rdf:resource="http://purl.org/dc/dcmitype/StillImage" />
        <dc:title></dc:title>
      </cc:Work>
    </rdf:RDF>
  </metadata>
  <defs
     id="defs224" />
  <sodipodi:namedview
     pagecolor="#ffffff"
     bordercolor="#666666"
     borderopacity="1"
     objecttolerance="10"
     gridtolerance="10"
     guidetolerance="10"
     inkscape:pageopacity="0"
     inkscape:pageshadow="2"
     inkscape:window-width="1855"
     inkscape:window-height="1056"
     id="namedview222"
     showgrid="false"
     inkscape:zoom="0.15520833"
     inkscape:cx="960"
     inkscape:cy="540"
     inkscape:window-x="1985"
     inkscape:window-y="24"
     inkscape:window-maximized="1"
     inkscape:current-layer="svg2" />
  <path
     d="M1273,1602L851,1640L1611,1621Z"
     fill="#3c83b1"
     stroke="#3c83b1"
     stroke-width="1.51"
     id="path4" />
  <path
     d="M1611,1621L851,1640L2039,1660Z"
     fill="#2c77ad"
     stroke="#2c77ad"
     stroke-width="1.51"
     id="path6" />
  <path
     d="M851,1640L366,1676L2039,1660Z"
     fill="#4885ab"
     stroke="#4885ab"
     stroke-width="1.51"
     id="path8" />
  <path
     d="M1721,-499L1930,-434L2292,-428Z"
     fill="#92b3cb"
     stroke="#92b3cb"
     stroke-width="1.51"
     id="path10" />
  <path
     d="M2292,-428L2234,-252L2300,97Z"
     fill="#839fb6"
     stroke="#839fb6"
     stroke-width="1.51"
     id="path12" />
  <path
     d="M1981,515L1875,932L2387,996Z"
     fill="#3990c0"
     stroke="#3990c0"
     stroke-width="1.51"
     id="path14" />
  <path
     d="M2280,1262L2039,1660L2425,1558Z"
     fill="#095ea1"
     stroke="#095ea1"
     stroke-width="1.51"
     id="path16" />
  <path
     d="M2387,996L2280,1262L2425,1558Z"
     fill="#1765a3"
     stroke="#1765a3"
     stroke-width="1.51"
     id="path18" />
  <path
     d="M2300,97L1984,295L2425,558Z"
     fill="#6698ad"
     stroke="#6698ad"
     stroke-width="1.51"
     id="path20" />
  <path
     d="M1984,295L1981,515L2425,558Z"
     fill="#5b9ab6"
     stroke="#5b9ab6"
     stroke-width="1.51"
     id="path22" />
  <path
     d="M1981,515L2387,996L2425,558Z"
     fill="#448ab4"
     stroke="#448ab4"
     stroke-width="1.51"
     id="path24" />
  <path
     d="M2292,-428L2300,97L2425,558Z"
     fill="#7598aa"
     stroke="#7598aa"
     stroke-width="1.51"
     id="path26" />
  <path
     d="M2387,996L2425,1558L2425,558Z"
     fill="#2671a8"
     stroke="#2671a8"
     stroke-width="1.51"
     id="path28" />
  <path
     d="M1961,1358L2039,1660L2280,1262Z"
     fill="#0d6aad"
     stroke="#0d6aad"
     stroke-width="1.51"
     id="path30" />
  <path
     d="M1875,932L2280,1262L2387,996Z"
     fill="#257cb5"
     stroke="#257cb5"
     stroke-width="1.51"
     id="path32" />
  <path
     d="M1875,932L1961,1358L2280,1262Z"
     fill="#1f7bb6"
     stroke="#1f7bb6"
     stroke-width="1.51"
     id="path34" />
  <path
     d="M2234,-252L1960,-175L2300,97Z"
     fill="#82a5b9"
     stroke="#82a5b9"
     stroke-width="1.51"
     id="path36" />
  <path
     d="M1960,-175L1984,295L2300,97Z"
     fill="#7aa6b7"
     stroke="#7aa6b7"
     stroke-width="1.51"
     id="path38" />
  <path
     d="M1930,-434L2234,-252L2292,-428Z"
     fill="#8aa9c3"
     stroke="#8aa9c3"
     stroke-width="1.51"
     id="path40" />
  <path
     d="M1930,-434L1960,-175L2234,-252Z"
     fill="#8baec3"
     stroke="#8baec3"
     stroke-width="1.51"
     id="path42" />
  <path
     d="M1875,932L1657,1345L1961,1358Z"
     fill="#2683ba"
     stroke="#2683ba"
     stroke-width="1.51"
     id="path44" />
  <path
     d="M1668,615L1875,932L1981,515Z"
     fill="#4ca0c2"
     stroke="#4ca0c2"
     stroke-width="1.51"
     id="path46" />
  <path
     d="M1960,-175L1714,-32L1984,295Z"
     fill="#81b1bd"
     stroke="#81b1bd"
     stroke-width="1.51"
     id="path48" />
  <path
     d="M1714,-32L1695,92L1984,295Z"
     fill="#7db3bc"
     stroke="#7db3bc"
     stroke-width="1.51"
     id="path50" />
  <path
     d="M1961,1358L1611,1621L2039,1660Z"
     fill="#196caa"
     stroke="#196caa"
     stroke-width="1.51"
     id="path52" />
  <path
     d="M1930,-434L1721,-499L1960,-175Z"
     fill="#91b7ca"
     stroke="#91b7ca"
     stroke-width="1.51"
     id="path54" />
  <path
     d="M1657,1345L1611,1621L1961,1358Z"
     fill="#1e79b5"
     stroke="#1e79b5"
     stroke-width="1.51"
     id="path56" />
  <path
     d="M1668,615L1981,515L1984,295Z"
     fill="#5ea6bd"
     stroke="#5ea6bd"
     stroke-width="1.51"
     id="path58" />
  <path
     d="M1695,92L1668,615L1984,295Z"
     fill="#6dafbc"
     stroke="#6dafbc"
     stroke-width="1.51"
     id="path60" />
  <path
     d="M1721,-499L1714,-32L1960,-175Z"
     fill="#8eb9c7"
     stroke="#8eb9c7"
     stroke-width="1.51"
     id="path62" />
  <path
     d="M1530,921L1657,1345L1875,932Z"
     fill="#3393c2"
     stroke="#3393c2"
     stroke-width="1.51"
     id="path64" />
  <path
     d="M1432,235L1411,431L1668,615Z"
     fill="#6dbac5"
     stroke="#6dbac5"
     stroke-width="1.51"
     id="path66" />
  <path
     d="M1432,235L1668,615L1695,92Z"
     fill="#75b9c0"
     stroke="#75b9c0"
     stroke-width="1.51"
     id="path68" />
  <path
     d="M1668,615L1530,921L1875,932Z"
     fill="#42a2c9"
     stroke="#42a2c9"
     stroke-width="1.51"
     id="path70" />
  <path
     d="M1530,921L1300,1169L1657,1345Z"
     fill="#3798c4"
     stroke="#3798c4"
     stroke-width="1.51"
     id="path72" />
  <path
     d="M1417,-520L1215,-26L1714,-32Z"
     fill="#98cbcf"
     stroke="#98cbcf"
     stroke-width="1.51"
     id="path74" />
  <path
     d="M1417,-520L1714,-32L1721,-499Z"
     fill="#97c4d0"
     stroke="#97c4d0"
     stroke-width="1.51"
     id="path76" />
  <path
     d="M1432,235L1695,92L1714,-32Z"
     fill="#84bdc1"
     stroke="#84bdc1"
     stroke-width="1.51"
     id="path78" />
  <path
     d="M1215,-26L1432,235L1714,-32Z"
     fill="#8cc6c6"
     stroke="#8cc6c6"
     stroke-width="1.51"
     id="path80" />
  <path
     d="M1273,1602L1611,1621L1657,1345Z"
     fill="#2b7fb5"
     stroke="#2b7fb5"
     stroke-width="1.51"
     id="path82" />
  <path
     d="M1411,431L1530,921L1668,615Z"
     fill="#58b1ca"
     stroke="#58b1ca"
     stroke-width="1.51"
     id="path84" />
  <path
     d="M1300,1169L1273,1602L1657,1345Z"
     fill="#348ec0"
     stroke="#348ec0"
     stroke-width="1.51"
     id="path86" />
  <path
     d="M1411,431L1232,1003L1530,921Z"
     fill="#52b3d1"
     stroke="#52b3d1"
     stroke-width="1.51"
     id="path88" />
  <path
     d="M1232,1003L1300,1169L1530,921Z"
     fill="#44a6cc"
     stroke="#44a6cc"
     stroke-width="1.51"
     id="path90" />
  <path
     d="M918,-546L858,-173L1215,-26Z"
     fill="#abddcc"
     stroke="#abddcc"
     stroke-width="1.51"
     id="path92" />
  <path
     d="M1068,1329L1273,1602L1300,1169Z"
     fill="#4396c0"
     stroke="#4396c0"
     stroke-width="1.51"
     id="path94" />
  <path
     d="M1066,977L1232,1003L1411,431Z"
     fill="#59b8d0"
     stroke="#59b8d0"
     stroke-width="1.51"
     id="path96" />
  <path
     d="M854,658L1066,977L1411,431Z"
     fill="#6ac1cb"
     stroke="#6ac1cb"
     stroke-width="1.51"
     id="path98" />
  <path
     d="M918,-546L1215,-26L1417,-520Z"
     fill="#a7d8d4"
     stroke="#a7d8d4"
     stroke-width="1.51"
     id="path100" />
  <path
     d="M1065,222L1411,431L1432,235Z"
     fill="#80c8c5"
     stroke="#80c8c5"
     stroke-width="1.51"
     id="path102" />
  <path
     d="M1215,-26L1065,222L1432,235Z"
     fill="#8dcdc5"
     stroke="#8dcdc5"
     stroke-width="1.51"
     id="path104" />
  <path
     d="M1065,222L854,658L1411,431Z"
     fill="#7dcac5"
     stroke="#7dcac5"
     stroke-width="1.51"
     id="path106" />
  <path
     d="M1232,1003L1066,977L1300,1169Z"
     fill="#4faac9"
     stroke="#4faac9"
     stroke-width="1.51"
     id="path108" />
  <path
     d="M1066,977L1068,1329L1300,1169Z"
     fill="#4ea5c4"
     stroke="#4ea5c4"
     stroke-width="1.51"
     id="path110" />
  <path
     d="M1068,1329L851,1640L1273,1602Z"
     fill="#4b8fb5"
     stroke="#4b8fb5"
     stroke-width="1.51"
     id="path112" />
  <path
     d="M858,-173L1065,222L1215,-26Z"
     fill="#9ed7c4"
     stroke="#9ed7c4"
     stroke-width="1.51"
     id="path114" />
  <path
     d="M247,-494L738,-450L918,-546Z"
     fill="#c6e9cd"
     stroke="#c6e9cd"
     stroke-width="1.51"
     id="path116" />
  <path
     d="M738,-450L858,-173L918,-546Z"
     fill="#b7e3ce"
     stroke="#b7e3ce"
     stroke-width="1.51"
     id="path118" />
  <path
     d="M577,490L854,658L1065,222Z"
     fill="#8ad1c0"
     stroke="#8ad1c0"
     stroke-width="1.51"
     id="path120" />
  <path
     d="M555,69L577,490L1065,222Z"
     fill="#9ed9b9"
     stroke="#9ed9b9"
     stroke-width="1.51"
     id="path122" />
  <path
     d="M858,-173L555,69L1065,222Z"
     fill="#a7dcc0"
     stroke="#a7dcc0"
     stroke-width="1.51"
     id="path124" />
  <path
     d="M854,658L653,766L1066,977Z"
     fill="#72c3c9"
     stroke="#72c3c9"
     stroke-width="1.51"
     id="path126" />
  <path
     d="M653,766L523,1116L1066,977Z"
     fill="#72bcc4"
     stroke="#72bcc4"
     stroke-width="1.51"
     id="path128" />
  <path
     d="M1066,977L523,1116L1068,1329Z"
     fill="#60adc0"
     stroke="#60adc0"
     stroke-width="1.51"
     id="path130" />
  <path
     d="M523,1116L666,1494L1068,1329Z"
     fill="#66a5b9"
     stroke="#66a5b9"
     stroke-width="1.51"
     id="path132" />
  <path
     d="M666,1494L851,1640L1068,1329Z"
     fill="#5a97b4"
     stroke="#5a97b4"
     stroke-width="1.51"
     id="path134" />
  <path
     d="M738,-450L655,-275L858,-173Z"
     fill="#b9e3c9"
     stroke="#b9e3c9"
     stroke-width="1.51"
     id="path136" />
  <path
     d="M666,1494L366,1676L851,1640Z"
     fill="#6894a7"
     stroke="#6894a7"
     stroke-width="1.51"
     id="path138" />
  <path
     d="M577,490L653,766L854,658Z"
     fill="#87cec2"
     stroke="#87cec2"
     stroke-width="1.51"
     id="path140" />
  <path
     d="M655,-275L555,69L858,-173Z"
     fill="#b6e3c2"
     stroke="#b6e3c2"
     stroke-width="1.51"
     id="path142" />
  <path
     d="M523,1116L362,1332L666,1494Z"
     fill="#75a9b7"
     stroke="#75a9b7"
     stroke-width="1.51"
     id="path144" />
  <path
     d="M386,-240L655,-275L738,-450Z"
     fill="#c2e7c7"
     stroke="#c2e7c7"
     stroke-width="1.51"
     id="path146" />
  <path
     d="M247,-494L386,-240L738,-450Z"
     fill="#cbebcb"
     stroke="#cbebcb"
     stroke-width="1.51"
     id="path148" />
  <path
     d="M555,69L282,204L577,490Z"
     fill="#acdeb7"
     stroke="#acdeb7"
     stroke-width="1.51"
     id="path150" />
  <path
     d="M164,866L523,1116L653,766Z"
     fill="#86c5c5"
     stroke="#86c5c5"
     stroke-width="1.51"
     id="path152" />
  <path
     d="M241,665L164,866L653,766Z"
     fill="#92cfc7"
     stroke="#92cfc7"
     stroke-width="1.51"
     id="path154" />
  <path
     d="M577,490L241,665L653,766Z"
     fill="#92d2c1"
     stroke="#92d2c1"
     stroke-width="1.51"
     id="path156" />
  <path
     d="M386,-240L555,69L655,-275Z"
     fill="#bfe6c1"
     stroke="#bfe6c1"
     stroke-width="1.51"
     id="path158" />
  <path
     d="M362,1332L366,1676L666,1494Z"
     fill="#739eb0"
     stroke="#739eb0"
     stroke-width="1.51"
     id="path160" />
  <path
     d="M282,204L241,665L577,490Z"
     fill="#a3dabf"
     stroke="#a3dabf"
     stroke-width="1.51"
     id="path162" />
  <path
     d="M386,-240L282,204L555,69Z"
     fill="#bde6be"
     stroke="#bde6be"
     stroke-width="1.51"
     id="path164" />
  <path
     d="M-361,-390L-38,-373L247,-494Z"
     fill="#def3d8"
     stroke="#def3d8"
     stroke-width="1.51"
     id="path166" />
  <path
     d="M164,866L362,1332L523,1116Z"
     fill="#83bac0"
     stroke="#83bac0"
     stroke-width="1.51"
     id="path168" />
  <path
     d="M-16,575L241,665L282,204Z"
     fill="#abddc4"
     stroke="#abddc4"
     stroke-width="1.51"
     id="path170" />
  <path
     d="M164,866L-62,1301L362,1332Z"
     fill="#8ab9c3"
     stroke="#8ab9c3"
     stroke-width="1.51"
     id="path172" />
  <path
     d="M362,1332L-62,1301L366,1676Z"
     fill="#80a7b9"
     stroke="#80a7b9"
     stroke-width="1.51"
     id="path174" />
  <path
     d="M-62,1301L-154,1548L366,1676Z"
     fill="#83a3b9"
     stroke="#83a3b9"
     stroke-width="1.51"
     id="path176" />
  <path
     d="M-171,-96L282,204L386,-240Z"
     fill="#ccebc5"
     stroke="#ccebc5"
     stroke-width="1.51"
     id="path178" />
  <path
     d="M-38,-373L-171,-96L386,-240Z"
     fill="#d5efcf"
     stroke="#d5efcf"
     stroke-width="1.51"
     id="path180" />
  <path
     d="M247,-494L-38,-373L386,-240Z"
     fill="#d6efcf"
     stroke="#d6efcf"
     stroke-width="1.51"
     id="path182" />
  <path
     d="M-171,-96L-51,234L282,204Z"
     fill="#c6e9c5"
     stroke="#c6e9c5"
     stroke-width="1.51"
     id="path184" />
  <path
     d="M-51,234L-16,575L282,204Z"
     fill="#b7e2c2"
     stroke="#b7e2c2"
     stroke-width="1.51"
     id="path186" />
  <path
     d="M-75,780L164,866L241,665Z"
     fill="#9cd3cd"
     stroke="#9cd3cd"
     stroke-width="1.51"
     id="path188" />
  <path
     d="M-16,575L-75,780L241,665Z"
     fill="#a3d7cc"
     stroke="#a3d7cc"
     stroke-width="1.51"
     id="path190" />
  <path
     d="M-75,780L-62,1301L164,866Z"
     fill="#95c7cd"
     stroke="#95c7cd"
     stroke-width="1.51"
     id="path192" />
  <path
     d="M-504,892L-465,1112L-75,780Z"
     fill="#a1ced8"
     stroke="#a1ced8"
     stroke-width="1.51"
     id="path194" />
  <path
     d="M-75,780L-465,1112L-62,1301Z"
     fill="#97c3d0"
     stroke="#97c3d0"
     stroke-width="1.51"
     id="path196" />
  <path
     d="M-171,-96L-401,132L-51,234Z"
     fill="#cdeccc"
     stroke="#cdeccc"
     stroke-width="1.51"
     id="path198" />
  <path
     d="M-401,132L-505,557L-51,234Z"
     fill="#c3e8cd"
     stroke="#c3e8cd"
     stroke-width="1.51"
     id="path200" />
  <path
     d="M-346,-160L-171,-96L-38,-373Z"
     fill="#dbf1d5"
     stroke="#dbf1d5"
     stroke-width="1.51"
     id="path202" />
  <path
     d="M-51,234L-505,557L-16,575Z"
     fill="#b5e2cd"
     stroke="#b5e2cd"
     stroke-width="1.51"
     id="path204" />
  <path
     d="M-505,557L-75,780L-16,575Z"
     fill="#abdbd2"
     stroke="#abdbd2"
     stroke-width="1.51"
     id="path206" />
  <path
     d="M-314,1498L-154,1548L-62,1301Z"
     fill="#8baac3"
     stroke="#8baac3"
     stroke-width="1.51"
     id="path208" />
  <path
     d="M-361,-390L-346,-160L-38,-373Z"
     fill="#e0f3da"
     stroke="#e0f3da"
     stroke-width="1.51"
     id="path210" />
  <path
     d="M-465,1112L-314,1498L-62,1301Z"
     fill="#91b5ca"
     stroke="#91b5ca"
     stroke-width="1.51"
     id="path212" />
  <path
     d="M-505,557L-504,892L-75,780Z"
     fill="#aad9d9"
     stroke="#aad9d9"
     stroke-width="1.51"
     id="path214" />
  <path
     d="M-346,-160L-401,132L-171,-96Z"
     fill="#d8f0d2"
     stroke="#d8f0d2"
     stroke-width="1.51"
     id="path216" />
  <path
     d="M-361,-390L-401,132L-346,-160Z"
     fill="#def2d7"
     stroke="#def2d7"
     stroke-width="1.51"
     id="path218" />
  <path
     d="M-505,557L-401,132L-361,-390Z"
     fill="#d3eed1"
     stroke="#d3eed1"
     stroke-width="1.51"
     id="path220" />
</svg>
