<svg xmlns="http://www.w3.org/2000/svg" viewBox="0 0 1920 1235" id="svg2"><style id="style4">.st0{fill:url(#SVGID_1_)}.st1{fill:#fff}.st2{fill:url(#SVGID_2_)}.st3{opacity:.3;fill:#fff7e9}.st4{fill:#75525f}.st5{fill:#603751}.st6{fill:none}.st7{fill:#512d45}.st8{fill:#3a2435}.st9{fill:#5bc9e1}.st10{fill:#aae8f2}.st11{fill:#4d4d4d}.st12{fill:#00bbd6}.st13{fill:#372944}.st14{fill:#f4daa2}.st15{fill:#2b2235}.st16{fill:#03293c}</style><g id="layer3"><g id="sky"><linearGradient id="SVGID_1_" gradientUnits="userSpaceOnUse" x1="960.5" y1="827.31" x2="960.5" y2="17.52"><stop offset="0" id="stop8" stop-color="#ffffe1"/><stop offset=".146" id="stop10" stop-color="#fffddf"/><stop offset=".223" id="stop12" stop-color="#fef5d8"/><stop offset=".284" id="stop14" stop-color="#fee7cd"/><stop offset=".336" id="stop16" stop-color="#fcd4bc"/><stop offset=".377" id="stop18" stop-color="#fbbfaa"/><stop offset=".502" id="stop20" stop-color="#8fa19d"/><stop offset=".617" id="stop22" stop-color="#318692"/><stop offset=".668" id="stop24" stop-color="#0c7c8e"/><stop offset=".713" id="stop26" stop-color="#0d6f82"/><stop offset=".857" id="stop28" stop-color="#11485e"/><stop offset="1" id="stop30" stop-color="#03293c"/></linearGradient><path class="st0" id="rect32" fill="url(#SVGID_1_)" d="M1 0h1919v672.3H1z"/><circle class="st1" cx="317.3" cy="5.3" r="1" id="circle34" fill="#fff"/><circle class="st1" cx="278.6" cy="23.2" r=".6" id="circle36" fill="#fff"/><circle class="st1" cx="346.5" cy="37.2" r=".7" id="circle42" fill="#fff"/><circle class="st1" cx="361.5" cy="19.4" r=".6" id="circle44" fill="#fff"/><circle class="st1" cx="405.1" cy="9.7" r="1.3" id="circle46" fill="#fff"/><circle class="st1" cx="437.5" cy="32.3" id="ellipse48" r=".3" fill="#fff"/><circle class="st1" cx="539.9" cy="29.6" r="1.3" id="circle52" fill="#fff"/><circle class="st1" cx="521.9" cy="16.6" r=".5" id="circle54" fill="#fff"/><circle class="st1" cx="602.8" cy="10.2" r=".7" id="circle60" fill="#fff"/><circle class="st1" cx="611.1" cy="24" r=".7" id="circle62" fill="#fff"/><circle class="st1" cx="587" cy="28.9" r=".6" id="circle64" fill="#fff"/><circle class="st1" cx="666.8" cy="21.3" r="1" id="circle68" fill="#fff"/><circle class="st1" cx="640.1" cy="18.7" r="1.6" id="circle72" fill="#fff"/><circle class="st1" cx="825.9" cy="2.5" r=".7" id="circle78" fill="#fff"/><circle class="st1" cx="877.8" cy="6.9" r=".2" id="circle80" fill="#fff"/><circle class="st1" cx="993.7" cy="5.2" r=".6" id="circle84" fill="#fff"/><circle class="st1" cx="1046.6" cy="3.4" r=".5" id="circle88" fill="#fff"/><circle class="st1" cx="1005.7" cy="33.6" r=".8" id="circle92" fill="#fff"/><circle class="st1" cx="1064.6" cy="39.4" r=".3" id="circle94" fill="#fff"/><circle class="st1" cx="1089.4" cy="12.2" r=".9" id="circle96" fill="#fff"/><circle class="st1" cx="388.9" cy="72.5" r="1.1" id="circle98" fill="#fff"/><circle class="st1" cx="389.5" cy="153.2" r=".6" id="circle100" fill="#fff"/><circle class="st1" cx="286.8" cy="102.8" r=".8" id="circle102" fill="#fff"/><circle class="st1" cx="328.1" cy="106.3" r=".5" id="circle104" fill="#fff"/><circle class="st1" cx="250.3" cy="71.9" r="1.7" id="circle108" fill="#fff"/><circle class="st1" cx="465.7" cy="110.5" r=".8" id="circle110" fill="#fff"/><circle class="st1" cx="500.3" cy="63.2" r="1.2" id="circle112" fill="#fff"/><circle class="st1" cx="558.4" cy="109.5" r="1" id="circle114" fill="#fff"/><circle class="st1" cx="583.1" cy="88.5" r="1.4" id="circle116" fill="#fff"/><circle class="st1" cx="500.3" cy="123.7" r="1.2" id="circle118" fill="#fff"/><circle class="st1" cx="654.5" cy="81.2" r=".8" id="circle120" fill="#fff"/><circle class="st1" cx="707" cy="50.1" r=".6" id="circle122" fill="#fff"/><circle class="st1" cx="711.7" cy="113.6" r=".7" id="circle124" fill="#fff"/><circle class="st1" cx="647.8" cy="155.8" r="1.1" id="circle128" fill="#fff"/><circle class="st1" cx="674.5" cy="133.7" r="1.3" id="circle130" fill="#fff"/><circle class="st1" cx="784.6" cy="59.7" r=".8" id="circle134" fill="#fff"/><circle class="st1" cx="795.5" cy="33.3" r="1.2" id="circle136" fill="#fff"/><circle class="st1" cx="818.9" cy="154.5" r=".7" id="circle142" fill="#fff"/><circle class="st1" cx="842.2" cy="92.8" r="1" id="circle144" fill="#fff"/><circle class="st1" cx="807.3" cy="117.2" r="1" id="circle146" fill="#fff"/><circle class="st1" cx="758.6" cy="107.1" r="1" id="circle148" fill="#fff"/><circle class="st1" cx="946.4" cy="31.3" r=".6" id="circle152" fill="#fff"/><circle class="st1" cx="951.7" cy="70.1" r=".4" id="circle154" fill="#fff"/><circle class="st1" cx="943.5" cy="110.8" r="1.1" id="circle156" fill="#fff"/><circle class="st1" cx="865.7" cy="48.5" r="1.1" id="circle158" fill="#fff"/><circle class="st1" cx="905.9" cy="108.6" r="1.1" id="circle160" fill="#fff"/><circle class="st1" cx="993.1" cy="88.9" r=".5" id="circle164" fill="#fff"/><circle class="st1" cx="1047.2" cy="64.3" r="1.1" id="circle166" fill="#fff"/><circle class="st1" cx="1060.4" cy="102" r="1" id="circle168" fill="#fff"/><circle class="st1" cx="1048.8" cy="142.3" r=".5" id="circle170" fill="#fff"/><circle class="st1" cx="1075.9" cy="209" r=".5" id="circle172" fill="#fff"/><circle class="st1" cx="1032.5" cy="173.1" r=".6" id="circle176" fill="#fff"/><circle class="st1" cx="300.2" cy="202.6" r=".4" id="circle178" fill="#fff"/><circle class="st1" cx="331.7" cy="172.6" r=".5" id="circle180" fill="#fff"/><circle class="st1" cx="265.2" cy="171.7" r=".5" id="circle182" fill="#fff"/><circle class="st1" cx="365.3" cy="213" r=".3" id="circle184" fill="#fff"/><circle class="st1" cx="551.6" cy="153.5" r="1" id="circle188" fill="#fff"/><circle class="st1" cx="616.8" cy="183.8" r=".5" id="circle194" fill="#fff"/><circle class="st1" cx="618.9" cy="216.6" r=".7" id="circle196" fill="#fff"/><circle class="st1" cx="498.3" cy="266.7" r=".7" id="circle198" fill="#fff"/><circle class="st1" cx="559.5" cy="199.3" r=".9" id="circle202" fill="#fff"/><circle class="st1" cx="663.8" cy="187.1" r=".8" id="circle204" fill="#fff"/><circle class="st1" cx="723.3" cy="217.1" r=".7" id="circle206" fill="#fff"/><circle class="st1" cx="756.5" cy="177.2" r=".6" id="circle208" fill="#fff"/><circle class="st1" cx="795.5" cy="238.8" r=".6" id="circle210" fill="#fff"/><circle class="st1" cx="921.9" cy="146" r=".9" id="circle212" fill="#fff"/><circle class="st1" cx="805.7" cy="167.4" r="1.6" id="circle214" fill="#fff"/><circle class="st1" cx="866.8" cy="193.8" r=".7" id="circle216" fill="#fff"/><circle class="st1" cx="913.3" cy="177.6" r=".7" id="circle218" fill="#fff"/><circle class="st1" cx="983.6" cy="231.2" r=".7" id="circle220" fill="#fff"/><circle class="st1" cx="376.6" cy="193" r="1.4" id="circle226" fill="#fff"/><circle class="st1" cx="321.8" cy="268.5" r="1" id="circle228" fill="#fff"/><circle class="st1" cx="394.9" cy="218.2" r=".3" id="circle230" fill="#fff"/><circle class="st1" cx="1154.7" cy="-.5" r=".6" id="circle232" fill="#fff"/><circle class="st1" cx="1191.4" cy="19" r="1" id="circle234" fill="#fff"/><circle class="st1" cx="1152.7" cy="37" r=".6" id="circle236" fill="#fff"/><circle class="st1" cx="1128.5" cy="4.4" r="1.3" id="circle238" fill="#fff"/><circle class="st1" cx="1237.2" cy="8.1" r=".2" id="circle242" fill="#fff"/><circle class="st1" cx="1220.7" cy="51" r=".7" id="circle246" fill="#fff"/><circle class="st1" cx="1235.6" cy="33.2" r=".6" id="circle248" fill="#fff"/><circle class="st1" cx="1329.1" cy="8.1" r=".2" id="circle250" fill="#fff"/><circle class="st1" cx="1279.2" cy="23.5" r="1.3" id="circle252" fill="#fff"/><circle class="st1" cx="1311.6" cy="46.1" id="ellipse254" r=".3" fill="#fff"/><circle class="st1" cx="1376.5" cy="9.5" r="1.4" id="circle256" fill="#fff"/><circle class="st1" cx="1414" cy="43.4" r="1.3" id="circle260" fill="#fff"/><circle class="st1" cx="1396.1" cy="30.4" r=".5" id="circle262" fill="#fff"/><circle class="st1" cx="1476.9" cy="24" r=".7" id="circle268" fill="#fff"/><circle class="st1" cx="1485.2" cy="37.8" r=".7" id="circle270" fill="#fff"/><circle class="st1" cx="1461.1" cy="42.7" r=".6" id="circle272" fill="#fff"/><circle class="st1" cx="1608.5" cy="5" r=".3" id="circle274" fill="#fff"/><circle class="st1" cx="1556" cy="7" r=".9" id="circle278" fill="#fff"/><circle class="st1" cx="1574.6" cy="10.8" r=".9" id="circle280" fill="#fff"/><circle class="st1" cx="1541" cy="35.1" r="1" id="circle282" fill="#fff"/><circle class="st1" cx="1514.2" cy="32.5" r="1.6" id="circle286" fill="#fff"/><circle class="st1" cx="1642.7" cy="5.2" r=".2" id="circle288" fill="#fff"/><circle class="st1" cx="1700.1" cy="16.3" r=".7" id="circle294" fill="#fff"/><circle class="st1" cx="1751.9" cy="20.7" r=".2" id="circle298" fill="#fff"/><circle class="st1" cx="1852.4" cy="2.7" r="1.4" id="circle302" fill="#fff"/><circle class="st1" cx="1867.8" cy="19" r=".6" id="circle304" fill="#fff"/><circle class="st1" cx="1879.8" cy="47.4" r=".8" id="circle306" fill="#fff"/><circle class="st1" cx="1263" cy="86.3" r="1.1" id="circle308" fill="#fff"/><circle class="st1" cx="1263.6" cy="167" r=".6" id="circle310" fill="#fff"/><circle class="st1" cx="1160.9" cy="116.6" r=".8" id="circle312" fill="#fff"/><circle class="st1" cx="1202.2" cy="120.1" r=".5" id="circle314" fill="#fff"/><circle class="st1" cx="1124.4" cy="85.7" r="1.7" id="circle318" fill="#fff"/><circle class="st1" cx="1339.8" cy="124.3" r=".8" id="circle320" fill="#fff"/><circle class="st1" cx="1374.4" cy="77" r="1.2" id="circle322" fill="#fff"/><circle class="st1" cx="1432.5" cy="123.3" r="1" id="circle324" fill="#fff"/><circle class="st1" cx="1457.2" cy="102.3" r="1.4" id="circle326" fill="#fff"/><circle class="st1" cx="1374.4" cy="137.4" r="1.2" id="circle328" fill="#fff"/><circle class="st1" cx="1528.6" cy="94.9" r=".8" id="circle330" fill="#fff"/><circle class="st1" cx="1581.1" cy="63.8" r=".6" id="circle332" fill="#fff"/><circle class="st1" cx="1585.8" cy="127.3" r=".7" id="circle334" fill="#fff"/><circle class="st1" cx="1521.9" cy="169.6" r="1.1" id="circle338" fill="#fff"/><circle class="st1" cx="1548.6" cy="147.4" r="1.3" id="circle340" fill="#fff"/><circle class="st1" cx="1658.7" cy="73.5" r=".8" id="circle344" fill="#fff"/><circle class="st1" cx="1669.6" cy="47.1" r="1.2" id="circle346" fill="#fff"/><circle class="st1" cx="1693" cy="168.3" r=".7" id="circle352" fill="#fff"/><circle class="st1" cx="1716.4" cy="106.6" r="1" id="circle354" fill="#fff"/><circle class="st1" cx="1681.4" cy="130.9" r="1" id="circle356" fill="#fff"/><circle class="st1" cx="1632.7" cy="120.8" r="1" id="circle358" fill="#fff"/><circle class="st1" cx="1820.5" cy="45.1" r=".6" id="circle362" fill="#fff"/><circle class="st1" cx="1825.8" cy="83.9" r=".4" id="circle364" fill="#fff"/><circle class="st1" cx="1817.6" cy="124.6" r="1.1" id="circle366" fill="#fff"/><circle class="st1" cx="1739.8" cy="62.3" r="1.1" id="circle368" fill="#fff"/><circle class="st1" cx="1780.1" cy="122.4" r="1.1" id="circle370" fill="#fff"/><circle class="st1" cx="1867.2" cy="102.7" r=".5" id="circle374" fill="#fff"/><circle class="st1" cx="1174.3" cy="216.4" r=".4" id="circle378" fill="#fff"/><circle class="st1" cx="1205.8" cy="186.4" r=".5" id="circle380" fill="#fff"/><circle class="st1" cx="1139.3" cy="185.4" r=".5" id="circle382" fill="#fff"/><circle class="st1" cx="1239.5" cy="226.8" r=".3" id="circle384" fill="#fff"/><circle class="st1" cx="1425.7" cy="167.3" r="1" id="circle388" fill="#fff"/><circle class="st1" cx="1490.9" cy="197.6" r=".5" id="circle394" fill="#fff"/><circle class="st1" cx="1493" cy="230.4" r=".7" id="circle396" fill="#fff"/><circle class="st1" cx="1372.4" cy="280.5" r=".7" id="circle398" fill="#fff"/><circle class="st1" cx="1433.7" cy="213.1" r=".9" id="circle402" fill="#fff"/><circle class="st1" cx="1538" cy="200.9" r=".8" id="circle404" fill="#fff"/><circle class="st1" cx="1597.4" cy="230.9" r=".7" id="circle406" fill="#fff"/><circle class="st1" cx="1630.6" cy="190.9" r=".6" id="circle408" fill="#fff"/><circle class="st1" cx="1669.6" cy="252.6" r=".6" id="circle410" fill="#fff"/><circle class="st1" cx="1796" cy="159.8" r=".9" id="circle412" fill="#fff"/><circle class="st1" cx="1679.8" cy="181.2" r="1.6" id="circle414" fill="#fff"/><circle class="st1" cx="1741" cy="207.6" r=".7" id="circle416" fill="#fff"/><circle class="st1" cx="1787.5" cy="191.4" r=".7" id="circle418" fill="#fff"/><circle class="st1" cx="1857.8" cy="245" r=".7" id="circle420" fill="#fff"/><circle class="st1" cx="1250.7" cy="206.8" r="1.4" id="circle424" fill="#fff"/><circle class="st1" cx="1195.9" cy="282.3" r="1" id="circle426" fill="#fff"/><circle class="st1" cx="1269.1" cy="231.9" r=".3" id="circle428" fill="#fff"/><g id="g430"><circle class="st1" cx="10.8" cy="7.6" r=".2" id="circle434" fill="#fff"/><circle class="st1" cx="126.7" cy="6" r=".6" id="circle438" fill="#fff"/><circle class="st1" cx="179.6" cy="4.2" r=".5" id="circle442" fill="#fff"/><circle class="st1" cx="138.6" cy="34.4" r=".8" id="circle446" fill="#fff"/><circle class="st1" cx="197.6" cy="40.2" r=".3" id="circle448" fill="#fff"/><circle class="st1" cx="222.4" cy="12.9" r=".9" id="circle450" fill="#fff"/><circle class="st1" cx="79.4" cy="32.1" r=".6" id="circle456" fill="#fff"/><circle class="st1" cx="84.7" cy="70.9" r=".4" id="circle458" fill="#fff"/><circle class="st1" cx="76.5" cy="111.6" r="1.1" id="circle460" fill="#fff"/><circle class="st1" cx="-1.4" cy="49.2" r="1.1" id="circle462" fill="#fff"/><circle class="st1" cx="38.9" cy="109.4" r="1.1" id="circle464" fill="#fff"/><circle class="st1" cx="126" cy="89.7" r=".5" id="circle468" fill="#fff"/><circle class="st1" cx="180.2" cy="65.1" r="1.1" id="circle470" fill="#fff"/><circle class="st1" cx="193.4" cy="102.8" r="1" id="circle472" fill="#fff"/><circle class="st1" cx="181.8" cy="143" r=".5" id="circle474" fill="#fff"/><circle class="st1" cx="208.9" cy="209.8" r=".5" id="circle476" fill="#fff"/><circle class="st1" cx="165.5" cy="173.9" r=".6" id="circle480" fill="#fff"/><circle class="st1" cx="54.9" cy="146.8" r=".9" id="circle482" fill="#fff"/><circle class="st1" cx="-.2" cy="194.6" r=".7" id="circle484" fill="#fff"/><circle class="st1" cx="46.3" cy="178.4" r=".7" id="circle486" fill="#fff"/><circle class="st1" cx="116.6" cy="232" r=".7" id="circle488" fill="#fff"/></g></g></g><g id="layer1"><g id="sun"><radialGradient id="SVGID_2_" cx="915" cy="645" r="564.401" gradientUnits="userSpaceOnUse"><stop offset="0" id="stop496" stop-color="#ffe2d3"/><stop offset="1" id="stop498" stop-color="#fbbfaa" stop-opacity="0"/></radialGradient><path class="st2" id="polygon500" fill="url(#SVGID_2_)" d="M991.1 587l104.2-463.9 110.2 53.8L1028.7 607l40.4 23.7 359.1-202.8 47.2 67.6L1101.2 669l-288.1-18-511.4-186.6 75.2-97.8 449.7 260.3 59-31.7-206.2-448.4 105.2-27.9 134.9 468.5z"/><path class="st3" d="M688.4 692.5c0-130.4 120.9-236.1 270-236.1s270 105.7 270 236.1" id="path502" opacity=".3" fill="#fff7e9"/><path class="st1" d="M808.4 692.8c0-72.4 67.2-131.2 150-131.2s150 58.7 150 131.2" id="path504" fill="#fff"/></g></g><g id="layer5"><g id="tajkep"><path class="st4" id="polygon507" fill="#75525f" d="M1357.2 618.1l-46.6 1.5-49.8 31.5-56 1.5-122.5 19.4H815.9l-163.2-7.3-100.3-18.1-75.4-27-48.1 15-116.2-38.7L281 585h-71l-47.4-25.2-73.9-27.2-27.5-22.5L24 519H0v501h1920V489.1l-25.4 21-25.3-13.8-69.3 34.8-81.1-1.5-60.2 28.5-94.9 16-62.2 10.5-54.1 30.5z"/><path class="st5" d="M1408.7 689.4c-5.9-5.6-9.7-15-6-22.4 3.7-7.4 16.7-7.1 17.7 1.3-3.8-6.4-6.1-15.2-1.7-21.2 4.4-6 16.2-2.2 14.2 5.1l.6-20.5c5.8.7 11.6-1.7 17.2-3.4s12-2.7 17.1.4c5.1 3.1 7.4 11.8 2.8 15.7 10.6-8.9 29.1-1 31.1 13.3 3.1-5.5 10.4-7.6 15.7-4.7 5.3 2.9 7.9 10.5 5.6 16.5 5.7 4.9 12.5-5.1 12.9-13 .4-7.8 2.2-18.7 9.5-18.5 4.8.1 7.7 5.5 9.8 10.1-6.3-6.1-1.5-18.6 6.6-21.3 8.1-2.7 16.8 1.5 23.5 7 2.1-8.4 6.2-16.9 13.3-21.2 7.1-4.3 17.6-2.9 21.5 4.8.4-7.8 12.4-8.4 16.4-1.9 4 6.5 2.3 15.1.4 22.6 7.2-4 14.3-8 21.5-12 1.4-.8 3-1.6 4.5-1.1s2.3 2.2 3 3.7c3 6.5 5.9 13 8.9 19.5.9-7.2 8.1-12.7 14.7-11.2s11.2 9.6 9.3 16.5c-1.9-8 .5-17.9 7.5-21.2 7-3.3 16.8 5.1 13.3 12.4.9-4.5-.8-9-2.1-13.3-1.3-4.4-2-9.6.7-13.1s9.6-2.3 9.4 2.3c-.6-4.9-1.2-9.9-1.9-14.8 4.8-2.4 11.2 2.6 10.5 8.2-3.2-5.5-6.5-11.6-5.5-18s8.5-11.6 13.1-7.5c2.1 1.9 3.1 5.3 5.8 6.2 2.3.8 5-.7 7.3.3 3 1.3 3.2 5.8 2.9 9.3-.8 8.3-1.6 16.5-2.4 24.8 5.3-7.8 16.2-10.5 24.1-6 8 4.5 12.1 15.5 9.2 24.7 4.9-7.9 14.6-12.7 23-9.6 8.4 3.1 13.1 15.2 8.1 23 12.1-9.2 32.1-.1 34.3 15.7-2.3-7.6-4.3-15.6-3.1-23.4 1.2-7.9 6.7-15.5 14.1-16.4 7.4-.9 15 7.6 12.2 14.9-1.6-5.8 6.2-10.2 11.2-7.6 5 2.7 7.3 8.9 9.2 14.6 4.5 13.8 9 27.6 13.5 41.5a2537.95 2537.95 0 0 0-444.5.3c-20.5 1.8-42.8 3.4-60-8.7" id="path509" fill="#603751"/><path class="st5" d="M89.8 648.2c-1.6-2.5-3.2-5.2-3.2-8.1 0-2.9 2.5-6.1 5.4-5.7 1.4.2 2.6 1.1 3.6 2.1 3.9 3.5 7 7.8 9.3 12.6l-1.5-23.4c4.2-1.4 9.3 2.2 9.3 6.7-.5-2.5-1.1-5.1-.3-7.6.7-2.5 3.2-4.6 5.7-4.1 1.5.3 2.7 1.5 3.7 2.8 5.5 7.2 6.2 16.9 6.7 25.9-.1-4.7 6.5-7.3 10.7-4.9 4.1 2.3 5.8 7.4 6.2 12.2.4 4.7-.2 9.6.9 14.2 3.7-3 9.8-2.1 12.5 1.7 1.3 1.9 1.9 4.1 2.4 6.4 1.3 5.7 2.4 12 .1 17.4-2.3 5.4-9.6 9-14.4 5.5 2.2 7.8-4.2 16.2-12 18-7.8 1.8-16.2-1.7-22.1-7.2-3.1-2.9-5.8-6.4-7.7-10.3-10.3-9.6-17.9-22-21.6-35.6-1.1-4-.8-9.7 3.2-10.4-3.2.1-3.1-5.3-.4-7.1 2.6-1.8 6.2-1.8 8.7-3.8" id="path511" fill="#603751"/><path class="st5" d="M279 699.1c-1.5-6.8-1.9-13.9-1.1-20.9 4.5-.8 9.4 1.2 11.9 5.1-2.8-2.7-3.9-7.2-2.2-10.7 1.7-3.5 6.3-5.4 9.9-3.8 3.5 1.6 5 5.7 6.2 9.4 1.8-5.4 8.1-9 13.6-7.7 5.5 1.3 9.7 7.1 9.1 12.8 4.9-3.9 11.8-5.5 17.5-2.8 5.6 2.7 8.8 10.2 5.6 15.6 3.8-.5 7.8-1 11.3.4 3.5 1.4 6.2 5.6 4.8 9.1-1 2.3-3.3 3.6-5.6 4.6-13.3 5.9-28.3 6-42.9 6.1-7.5 0-15.2 0-22.1-2.9-6.9-2.9-12.7-9.7-12.1-17.2" id="path513" fill="#603751"/><path class="st5" d="M401.8 703.9c-3.9-4.2-7.7-8.3-11.6-12.5-1.6-1.7-3.3-3.7-3.4-6-.2-3.1 2.5-5.7 5.5-6.8 6-2.2 13.4.7 16.3 6.4-1.9-5.3-1.1-12.1 3.6-15.2 4.7-3 12.7 1.3 11.1 6.7 2.8-3.3 8-3.8 11.8-1.8 3.8 2 6.2 6 7.1 10.2.5 2.4.8 5.2 2.8 6.4 1.3.8 2.8.7 4.3.7 11.7.5 21.3 13.1 18.6 24.6-15.7 4.6-32.6 5-48.5 1.3-5.4-1.2-11-3.2-14.4-7.5-3.4-4.3-3.3-11.7 1.5-14.5" id="path515" fill="#603751"/><path class="st5" d="M510 714.2c-4.4-3.1-8.1-7.3-10.5-12.1-1.4-2.7-2.4-5.8-1.8-8.8.6-3 3.3-5.7 6.4-5.4 3.9.4 5.7 4.9 6.7 8.7-.9-4.2-1.7-8.7-.2-12.7s6.3-7.1 10.1-5.1c2.7 1.4 3.9 4.7 3.9 7.7 1.3-5 7.1-8.4 12.1-7 5 1.4 8.3 7.3 6.7 12.3 3.4-4.5 8.9-8.2 14.5-7.3 5.6.9 9.7 8.3 6.1 12.7 5.4-2.2 11.8 0 16 4 4.2 4 6.7 9.5 9 14.8.4.9.8 1.9.4 2.7-.4.8-1.3 1.2-2.2 1.5-4.6 1.3-9.4 1.1-14.1.9-22.9-1.1-45.8-2.3-68.7-3.4" id="path517" fill="#603751"/><path class="st5" d="M1266.5 698.7c-4.1-4.3-3.8-12.1.8-15.9 4.5-3.9 12.3-3 15.8 1.8-1.3-5.3-1.9-10.8-1.8-16.3 0-2.4.3-5 2.1-6.5 4-3.4 9.5 1.9 11.4 6.7-.6-5.4-.2-11.4 3.7-15.2 3.9-3.8 12-2.7 13 2.6.1.8.1 1.7.6 2.4 1.7 2.4 4.9-.8 7.1-2.8 4.8-4.3 13.1-1 16.1 4.6 3 5.7 2.4 12.5 1.7 18.9 6.1-1.5 13.5-2 18 2.4 6.6 6.4 1.5 18.6-7 22.4-8.4 3.7-18.1 1.9-27.2.5-17.9-2.8-36.1-3.4-54.2-4" id="path519" fill="#603751"/><g id="g521"><path class="st6" d="M3.5 726c-.6-4-.5-8.1-1.5-12.1v31.2L3.5 726z" id="path523" fill="none"/><path class="st6" d="M132.4 719.8c-.1.3-.2.7-.3 1l5.8.4c-1.9-.3-3.7-.7-5.5-1.4z" id="path525" fill="none"/><path class="st6" d="M131.6 722c.2-.2.5-.3.8-.4-.2-.1-.3-.3-.5-.4-.1.2-.2.5-.3.8z" id="path527" fill="none"/><path class="st6" d="M136.9 726.1h1.6c-.5-.3-1.1-.6-1.6-1 .1.3.1.7 0 1z" id="path529" fill="none"/><g id="g531"><path class="st6" d="M131.6 722c.2-.2.5-.3.8-.4-.2-.1-.3-.3-.5-.4-.1.2-.2.5-.3.8z" id="path533" fill="none"/><path class="st6" d="M136.9 726.1h1.6c-.5-.3-1.1-.6-1.6-1 .1.3.1.7 0 1z" id="path535" fill="none"/><path class="st6" d="M132.4 719.8c-.1.3-.2.7-.3 1l5.8.4c-1.9-.3-3.7-.7-5.5-1.4z" id="path537" fill="none"/><path class="st7" d="M1893.8 671c7.6-9.9-2.7-27-15-24.9 9.4-1.7 18.3-5.8 25.7-11.9-2-9.4-8.8-17.7-17.7-21.5 4.5-16.7-11.3-35.5-28.5-33.7 1.1-5.6 2.2-11.1 3.2-16.7-14.9 3.3-28.6 11.6-38.5 23.3 1.2-5.1-7.8-7-10.8-2.7-3 4.3-1.5 10.1.1 15.1-2.3-7.3-15-3.6-16.1 4-1 6.8 3.5 12.8 8.5 17.7-3.4-1.7-8.8 1.1-9.8 5.2-1.2 5.1 1.8 10.1 4.6 14.5-4.8-1.5-10.5.1-13.9 3.9 8.7 2.1 8.6 16 1.5 21.5-7.1 5.4-17 4.7-25.9 3.7 6.9-1 13.4-4.6 17.9-9.8-3 .3-5.9.6-8.9.9-5-12.5-22.7-17.7-33.7-9.9 2-3.6 4.1-7.2 6.1-10.8-8.4-5.4-18.9-7.4-28.7-5.5 3.3-5.3 1.3-13.1-4.1-16.1-4.9-2.7-11.7-1-14.9 3.5 3.2-6.2 1-14.8-5.1-18.4-6.6-3.8-16.2-.8-19.3 6.2-1.8-3.9-3.6-7.9-5.4-11.8 1.3 4.2 2.5 9 .4 12.9-2.1 3.9-9.2 4.5-10.3.2.1 4.1.2 8.3.4 12.4-1-3.6-9-1.3-11.7 3-3 4.7-11.1 9.3-12.4 3.8-4.7 7.6-4.2 18 1.3 25.1-6-3.6-15.1 1.7-14.9 8.7-.3-5.9-8.2-9.8-13-6.5l2.7-16.2c-5.9 1.1-11.9 2.3-17.8 3.4-.3-8.5-2.7-16.9-6.9-24.3-6.3.4-12.3 4.4-15.1 10.1 1.7-9.7-2.7-20.2-10.8-25.9-2.7 3.5-5.7 7.3-10 8.4-4.3 1.1-9.8-2.2-9-6.5-3.9 5.6-7.7 11.1-11.6 16.7-1-10.3-20.4-9.2-20.3 1.2-4.8-2.2-9.6-4.4-14.3-6.6-.9 9.8 1.8 19.8 7.3 27.8-4.2-7.1-16.3 2.6-12.6 8.5-2.8-2.7-7.1-3.9-10.9-2.9-1.2 8.6 2 17.6 8.3 23.5-5.3-2.2-10.5-4.4-15.8-6.6.2 5.9.4 11.7.5 17.6-7.6 2.3-15.2 4.5-22.7 6.8.2-6.2-1.2-12.5-4.1-18 4.8-.6 9.7 2.7 11.3 7.2-1.5-4.9-6-8.9-11.1-9.6-2 3.4-3 7.4-3 11.3-.9-7.2-12.6-10.8-16.9-4.6 4-8.7-11.1-17.6-16.7-9.8 3.8-6.6 3.4-15.3-.9-21.6-6.2 3.7-12.3 7.5-18.5 11.2-1-6.7-3.6-13.2-7.3-18.8-3.9 3-9.9 2.9-13.6-.3-9.7 4.3-16.9 14.1-18 24.7-6.3-1.9-13.1 3.9-13.7 10.2-2.7-4.2-11.7-5.2-14.8 0-4 6.6.4 15.4 6.5 20-6.4-3-14.2 1.6-16.6 7.9-1.1-4-4.7-7.6-8.8-8.9-5.1-1.6-10.5-.7-15.7.6 4.6-1.9 8.2-6.3 8.8-11.3-9.9-.4-19.4-5.7-25-13.8-3.3 2.4-6.5 4.8-9.8 7.2-.6-4.5-3.3-8.6-7.2-10.9-4.9.8-8.9 5.3-9.2 10.3-4-3.6-10-4.8-15.1-3.2-1.4 3.3-1.7 7.1-1 10.6-3-1.7-7-2.1-10-.3-4.2 2.6-6.1 7.4-6.4 12.4-3-4.3-10.2-6.6-13.4-1.9 2.2-5.9-1.9-13.3-8.1-14.5-6.1-1.3-12.8 3.9-13.2 10.1-2.7-10.3-18.8-13.3-25-4.8-6.2-.6-12.4-1.2-18.6-1.7-3.6 7-7.3 14-10.9 21-8.6-9.8-27.3-6.3-31.9 5.9-.7-4.5-6.3-7.4-10.3-5.4L861 708.5c2.2-5.8-4.8-13.8-11.6-12.5-7.7 1.5-12.2 10-12.7 17.8-1.3-4.3-2.8-8.8-6.4-11.4-3.6-2.6-9.9-1.7-11 2.6-5.7 9.3-18.5 13.5-28.6 9.4-6-2.4-15.1-6-17 .2-.8-6.2-1.5-12.4-2.3-18.6-5.1 3-8.7 8.5-9.3 14.4.8-6.7-3-13.7-9.1-16.7-8.1-2-16.5 6.7-15.1 14.7-1.4-3.4-5.6-5.7-9.3-4.6-.5 4.2-.9 8.4-1.4 12.6-.2-5.7-7.5-7.9-12.4-5.9-2.1-1.4-3.6-2.3-4-2.6-4-2.3-8.1-4.5-12.1-6.8-6.2 3.9-14.3.8-21.6 0-7.1-.8-16.4 3.7-15 10.4-1.8-6.9-8.6-12.3-15.8-12.3-7.4 0-14.5 5.8-16 13.1 1.1-6 .5-12.4-1.7-18.1l-10.2 7.8c.5-4.5-4.8-8-9.3-7.5-4.5.5-8.3 3.6-11.7 6.5 2.3-3.8-3.1-8.6-7.3-7.2-4.2 1.4-6.1 6.4-6.2 10.8-3.7-5.3-11.6-8.1-16.9-4.4-2.6 1.8-3.6 5.1-3.2 8.2-4.2-1.7-9.6-1-12 3-8.8-5.9-22.4-2.4-27.4 7 .5-5.4-3.9-10.7-9.3-11.2-3.1-.3-6.1 1-8.3 3.1 1.2-5-.2-10.8-4.1-14.3-5.6-5-15.2-4.5-20.2 1 1.8-5.5-2.1-12.1-7.7-13.2-5.7-1.1-11.7 3.7-12 9.5-2.5-4.4-8.7-6.4-13.3-4.1-3.2 1.5-5.2 4.9-5.6 8.4-1.8-3.4-6.2-5.6-9.8-3.7-5 2.6-4.3 11.5 1 13.3-4.2 2.2-7.4 6.3-8.6 10.9l-4.3-13.1c-4 .9-7.6 3.5-9.9 7 2.8-6.4 1.8-15.2-4.4-18.4-4.8-2.5-11.2 2.1-11.6 6.7-1.8-5.6-3.7-11.2-5.5-16.8L377 694.2c3.2-8.7-6.2-19.1-15.2-16.8-6.5 1.7-9.9 9.2-8.8 15.6-2-1.1-4.6-1.5-6.8-.9-4.9 1.5-8 6.1-10.8 10.4-3.2-4-8.8-6-13.8-4.9.3 4.4.6 8.8.8 13.3 0-5.4-6.2-9.8-11.3-8-4.1 1.5-6.2 6.7-5 10.8-3.1-3.7-9.8-4.3-13.4-1.1 2-4.2-.2-10.2-4.5-12.5-5.2-2.8-11.7-1.4-16.9 1.4 6.5-3.3 10.6-11.6 7.5-18.1-3.1-6.5-14.3-7.7-17.3-1.1 3.3-9.6-3.4-21.2-13.3-23.3-2.3 7.6-2 15.9.8 23.4-7.6-3.8-17-3.8-24.6.1-2.7-3.4-8.7-.2-9.2 4.1s2.6 8.1 5.8 11c-4.8-1.9-8.5 5.5-6.3 9.3-1.7-.4-4 .4-5 2.1-1.5 2.5-1 5.7-.4 8.6l-17.6-2.1c6.3.5 12.7-4.2 13.9-10.5 1.2-6.3-2.8-13.1-8.9-15 2.5-5.8 5.1-11.9 4.8-18.2-.3-6.3-4.6-12.9-10.9-13.6-6.3-.7-12.3 7.3-8.4 12.3-6.6-5.3-6.8-15-8.2-23.4-1.5-8.6-7.9-18.7-16.7-16.1-1.9.6-3.6 1.7-5 3.2-6.7 7-7.8 18.4-2.9 26.7-2.8-5.5-12.3-2.4-14 3.5-1.7 6 1.6 12.1 4.7 17.5-4.6-3.2-11.6 1.3-12.1 6.8-.5 4.6 2.3 9 6 11.9-1.5-.5-3.2-.3-4.8.4-2.8.2-5.6.4-8.4.7 1.1-5.3 1.5-11.3-1.7-15.8-3.2-4.4-11-5.5-13.7-.7 2.8-4.8 5.7-10.3 4.3-15.6-1.4-5.4-9.6-8.5-12.5-3.8 2-8.3 2-17 .1-25.3-3.8-.6-7.7 1.9-9.3 5.4.6-5.8.4-11.7-.7-17.5-.4-2.4-1-4.8-2.5-6.7-3.3-4.2-9.8-4.5-14.6-2-4.7 2.5-8 6.9-11.2 11.2 1.1-5.3 2.3-10.8 1.5-16.2-.8-5.4-4-10.8-9.1-12.6-5.1-1.9-11.9 1.2-12.6 6.6-.4-4.7-.9-9.8-3.8-13.6-2.9-3.8-8.9-5.6-12.4-2.3-3.7 3.5-2.1 9.6-.2 14.4-2.9-3.4-7.8-5-12.2-4.1-.7 10.2 1.3 20.6 6 29.8C13 628 5.4 624.6-.6 624v89.8c1 4.1-.6 8.1 0 12.1V745L2 1091h1918V707.5c-9-18.1-18.7-37.7-26.2-36.5zM132.4 719.8c1.8.7 3.6 1.2 5.5 1.4l-5.8-.4c.1-.4.2-.7.3-1zm-.8 2.2c.1-.3.2-.5.3-.8.2.1.3.3.5.4-.3.1-.5.2-.8.4zm5.3 4.1c.1-.3.1-.6.1-1 .5.3 1 .7 1.6 1h-1.7z" id="path539" fill="#512d45"/></g></g><path class="st7" d="M1454.3 680.8c.2.7.4 1.3.5 2-.1-.7-.3-1.3-.5-2z" id="path541" fill="#512d45"/><path class="st8" id="polygon543" fill="#3a2435" d="M359 757l79.8-1.6 1.1-9 57.6 2.6 63.8-2.6L663 749h70l63-3h74l36-6h60l72.4-.4 70-10.6h30.6l50 6 109-5.4 35 10.4h48l63-.2 37.6-13.7 85.3 2.8 144.1-2.8 129 8.9 68-1h9l3 486H0l-.2-464.5L108 755h21l12-.5 29.6 1.5 27.4-7 59 7.1 52.9.9z"/></g></g><g id="layer6"><g id="kerites"><g id="g585"><path class="st13" d="M152.1 863.7c-1.3 1.3-2.6 2.6-3.7 4 1.3-1.3 2.6-2.6 3.7-4z" id="path587" fill="#372944"/><path class="st13" d="M72.9 832.9c-.3.9-.5 1.9-.7 2.8.3-.9.5-1.8.7-2.8z" id="path589" fill="#372944"/></g><path class="st14" d="M2.3 738.2l111.9 30.3-1.1-.2 139.1 2.4h.8l.9.2 150 40-3.7-.3 109.3-12.1 109.4-10.1 1.6-.1 1.9.3 68.7 10.3 34.4 5.1 17.2 2.6L760 809l68.8 9.9 34.4 5 34.4 5.1-5-.2 17.6-1.6 17.6-1.6 17.6-1.5 17.7-1.4 17.7-1.4 17.7-1.3c11.8-.8 23.6-1.7 35.4-2.5l35.4-2.3 35.4-2.2 35.4-2 35.4-1.9 1.5-.1h.5l23.1 1.9 23.1 2 23.1 2.1 23.1 2.2 23.1 2.3 23.1 2.4 23 2.5 11.5 1.3c3.8.4 7.7.9 11.5 1.4l-.2 2.8c-3.9.1-7.8.2-11.7.2l-11.6.2-23.3.2-23.3.1h-23.3l-23.2-.1-23.2-.2-23.2-.3-23.2-.4h2l-35.2 4-35.2 3.8-35.2 3.7-35.2 3.6c-11.7 1.2-23.5 2.3-35.3 3.4l-17.6 1.6-17.6 1.6-17.6 1.5-17.7 1.4-17.7 1.4-17.7 1.3-2.7.2-2.3-.4-34.2-6-34.1-6.1-68.3-12.3-17.1-3.1-17.1-3-34.2-6-68.4-11.9 3.6.1-109.7 7.6-109.7 7.3-2 .1-1.6-.5-148.2-42.5 1.7.3-138.8-7h-.6l-.5-.2L2.3 738.2z" id="path591" fill="#f4daa2"/><path class="st14" d="M2.3 738.2l113.8 49.9-1.2-.4 139 17.7.7.1.9.3 150.8 57.5-4.2-.7 109.7-4.3 109.7-4.1 1.7-.1 2 .4 68.9 15 34.5 7.4 17.2 3.7 17.3 3.7L832 899l34.5 7.3 34.5 7.4-6.3-.4c11.8-1.1 23.5-2.1 35.3-3.2l17.7-1.5 17.7-1.4 17.7-1.4 17.7-1.3 17.7-1.3 17.7-1.2c11.8-.8 23.6-1.6 35.4-2.3l35.4-2.2 35.4-2c11.8-.6 23.6-1.3 35.4-1.9l2.5-.1 1.4.3 23 5.1 23 5.2 23 5.3 23 5.3 22.9 5.4 11.5 2.8 11.4 2.8 22.9 5.7 11.4 2.9 11.4 3-.8 2.7c-4-.4-7.9-.9-11.8-1.4l-11.8-1.4-23.6-3-11.8-1.5-11.8-1.6-23.6-3.2-23.5-3.3-23.5-3.4-23.5-3.5-23.5-3.6 4 .2c-11.7 1.4-23.5 2.7-35.2 4l-35.2 3.8-35.2 3.7c-11.7 1.2-23.5 2.4-35.2 3.6l-17.6 1.7-17.6 1.7-17.6 1.6-17.6 1.6-17.6 1.5-17.7 1.5c-11.8.9-23.5 1.9-35.3 2.7l-3.4.3-2.9-.7-34.2-8.3-34.1-8.4-68.6-16.9-17.1-4.2-17.1-4.2-34.2-8.3-68.4-16.5 3.7.4-109.7 1.6-109.7 1.3h-2.4l-1.8-.8L250 815.4l1.6.4-138-22.3-.7-.1-.5-.2-110.1-55z" id="path593" fill="#f4daa2"/><path class="st15" d="M.1 737.5l114.2 34.6-1.1-.2 139.1 2.4h.8l.9.2 149.9 38.1-3.7-.3L509.6 802 619 790.1l1.6-1.1 2 1.2 68.8 12.2 34.4 5.1 17.2 2.6 17.2 2.5 68.8 9.9 34.4 5 34.5 10.7-5-.2 17.6-4.4 17.6-4.3 17.6-1.5 17.7-1.4 17.7-1.4 17.7-1.3c11.8-.8 23.6-1.7 35.4-2.5l35.4-2.3 35.4-2.2 35.4-2 35.4-3.7 1.5-.1h.5l23.1 3.8 23.1 2 23.1 2.1 23.1 2.2 23.1 2.3 23.1 2.4 23 2.5 11.5 1.3c3.8.4 7.7.9 11.5 1.4l-.2 2.8c-3.9.1-7.8.2-11.7.2l-11.6.2-23.3.2-23.3.1H1269l-23.2-.1-23.2-.2-23.2-.3-23.2-.4h2l-35.2 4-35.2 3.8-35.2 3.7-35.2 3.6c-11.7 1.2-23.5 2.3-35.3 3.4l-17.6 1.6-17.6 1.6-17.6 1.5-17.7 1.4-17.7 1.4-17.7 1.3-2.7.2-2.3-.4-34.2-6-34.1-6.1-68.3-12.3-17.1-3.1-17.1-3-34.2-6-68.4-11.9 3.6.1-109.9 7.8-109.7 7.3-2 .1-1.6-.5L250 784.4l1.7.3-138.8-7h-.6l-.5-.2-111.7-40z" id="path595" fill="#2b2235"/><path class="st15" d="M.4 737.6L116.1 789l-1.1.6 138.9 16.8.7.1.9.3 150.8 57.5-4.2-.7 109.7-1.5 109.8.6 1.7-.1 2 .4 68.8 10.3 34.5 7.4 17.2 3.7 17.3 3.7 69.1 14.6 34.5 7.3 34.5 10.2-6.3-.4c11.8-1.1 23.4-4.9 35.2-5.9l17.7-1.5 17.7-1.4 17.7-1.4 17.7-1.3 17.7-1.3 17.7-1.2c11.8-.8 23.6-1.6 35.4-2.3l35.4-2.2 35.4-2c11.8-.6 23.7 2.4 35.5 1.8l2.5-.1 1.4.3 22.9 1.4 23 5.2 23 5.3 23 5.3 22.9 5.4 11.5 2.8 11.4 2.8 22.9 5.7 11.4 2.9 11.4 3-.8 2.7c-4-.4-7.9-.9-11.8-1.4l-11.8-1.4-23.6-3-11.8-1.5-11.8-1.6-23.6-3.2-23.5-3.3-23.5-3.4-23.5-3.5-23.5-3.6 4 .2c-11.7 1.4-23.5 2.7-35.2 4l-35.2 3.8-35.2 3.7c-11.7 1.2-23.5 2.4-35.2 3.6l-17.6 1.7-17.6 1.7-17.6 1.6-17.6 1.6-17.6 1.5-17.7 1.5c-11.8.9-23.5 1.9-35.3 2.7l-3.4.3-2.9-.7-34.2-8.3-34.1-8.4-68.3-16.9-17.1-4.2-17.1-4.2-34.2-8.3-68.4-16.5 3.7.4-109.7 1.6-109.7 1.3h-2.4l-1.8-.8L250 819.1l1.6.4-138-22.3-.7-.1-.5-.2-112-59.3z" id="path597" fill="#2b2235"/><g id="g599"><path class="st14" id="polygon601" fill="#f4daa2" d="M1366.1 977.4l8.5-.2-6.9-159-35.9-10.2 16 169.8 14.7-.3-.2-9.3z"/><path class="st15" id="polygon603" fill="#2b2235" d="M1363.9 979.3l8.5-.2-6.9-159-35.9-10.2 16.1 169.8 14.7-.3-.3-9.3z"/></g><g id="g605"><path class="st14" id="polygon607" fill="#f4daa2" d="M908 978.9l8.5-.2-6.9-159-35.9-10.1 16.1 169.8 14.1-.4-.2-9.2z"/><path class="st15" id="polygon609" fill="#2b2235" d="M905.8 980.8l8.5-.2-6.8-159-36-10.1 16.1 169.8 14.1-.4-.2-9.2z"/></g><g id="g611"><path class="st14" id="polygon613" fill="#f4daa2" d="M634.9 915.6l7.5-.2-6.1-139.3-31.5-8.9L618.9 916l12.3-.3-.2-7.8z"/><path class="st15" id="polygon615" fill="#2b2235" d="M633 917.5l7.4-.2-6-139.4-31.5-8.9L617 917.9l12.1-.3-.2-8.1z"/></g><g id="g617"><path class="st14" id="polygon619" fill="#f4daa2" d="M408.3 902.9l5.8-.2-4.7-107.6-24.3-6.7L396 903.2l10-.3-.2-5.5z"/><path class="st15" id="polygon621" fill="#2b2235" d="M406.9 904.8l5.7-.2-4.6-107.8-24.4-6.8 10.9 115.1 9.3-.3-.1-6.1z"/></g><g id="g623"><path class="st14" id="polygon625" fill="#f4daa2" d="M259.7 844.7l4.5-.1-3.6-85.4-19.4-5.3 8.6 91 7.6-.2-.1-4z"/><path class="st15" id="polygon627" fill="#2b2235" d="M258.5 846.6l4.6-.2-3.7-85.6-19.3-5.4 8.6 91.4 7.7-.2-.1-4.8z"/></g><g id="g629"><path class="st14" id="polygon631" fill="#f4daa2" d="M115.6 814.1l3-.1-2.5-56.1-12.7-3.4 5.7 59.8 4.9-.1-.1-2.6z"/><path class="st15" id="polygon633" fill="#2b2235" d="M114.8 816l3-.1-2.4-56.4-12.7-3.7 5.6 60.4 3.6-.1-.1-3.8z"/></g><g id="g635"><path class="st14" id="polygon637" fill="#f4daa2" d="M15.6 762.1l1.3-.1-1-23.8-5.4-1.5 2.4 25.5 2.1-.1v-1.4z"/><path class="st15" id="polygon639" fill="#2b2235" d="M15.3 762.1h1.3l-1-23.8-5.4-1.5 2.4 25.4 1.3-.1V761z"/></g></g></g><g id="layer7"><g id="nyaj"><path class="st9" d="M1344.8 808.7c7 1.9 14.4.6 21.5-.7-5.1 6.5-1.4 16.5 4.6 22.2 6 5.8 13.9 9.4 19.2 15.7 3.4 4 5.7 9 9.5 12.7.3.3.6.6 1 .9-2.4 1.4-4.4 3.7-5 6.4-1.1 4.7 1.6 10 6 11.8-8.9 3.4-12.3 16.4-6.2 23.8 2.1 2.5 4.9 4.3 6.3 7.3.4.8.6 1.6.8 2.5-1.4 1.4-2.8 2.9-3.9 4.5-8.9 12.9-6.1 32.4 6 42.4-14.6-9.5-36.1-3.5-46 10.9-9.9 14.3-9 34.4-.6 49.6 11.5 16.4 49.2-.6 33.4 5.9 73.1 2.6 39.5-4.9 112.6-5.5 9.9-.1 48.7 27.1 57.5 22.5 4.7-2.4 8.9-6.1 14-7 4.3-.8 8.7.3 13.1.5 12 .5 23.8-7.3 28.3-18.4 2.8 2.6 6.8 3.7 10.5 2.8-2.4 1.8-4.8 3.5-7.2 5.3 36.4-4.9 71.7-17.2 103.2-36 20.1 2.8 41.3-8.6 50-26.9 10.8 4.6 23.2-3 30.1-12.6 6.8-9.6 10.6-21.2 18.1-30.2 8.8-10.5 23.6-20.8 19.3-33.8 10.1 2.2 22.1-4.3 23.4-14.6 1.3-10.3-12-19.8-20.3-13.5 8-5.6 11.4-17 7.9-26.1-3.6-9.1-13.7-15.1-23.5-13.9 6.9-4.2 10.1-13.6 7.2-21.1-2.9-7.5-11.6-12.3-19.5-10.7-.2-10.6-10-20.1-20.7-19.9-6.1-15.7-27.8-22.9-42-13.8.4-8.5-5-16.9-12.8-20.1-7.8-3.2-17.6-.8-23.2 5.6-.8-11.9-9.3-23-20.6-26.8-11.3-3.8-24.8-.2-32.7 8.7-1.9-10.2-11.8-18.4-22.2-18.3-10.4.1-20.2 8.4-21.9 18.6-5.1-7.8-12.4-15-21.6-16.6-9.2-1.6-20.1 4.7-20.5 14-4.3-1.2-9.3 1-11.4 5-5-7.4-16.9-8.7-23.3-2.6.3-7.3-9.4-11.6-16.3-9-6.9 2.6-11.1 9.4-14.9 15.7-5.3-12-22.3-16.8-33.1-9.5-3.7 2.5-7.1 6.3-11.6 6.2-3.4-.1-6.2-2.5-9.4-3.8-5.8-2.3-13.1-.1-16.7 5 1.8-4.7-6.2-6.9-10.7-4.7-4.5 2.2-10.2 5.7-14 2.3l-6.6 8.7c-3.4-8.7-19.1-7.2-20.8 2-1.7-5.2-7.8-8.4-13.1-6.9-5.2 1.4-8.8 7.3-7.7 12.7-2.6-5.5-12.5-4.4-13.8 1.5-3.9-1.6-7.9-3.3-11.8-4.9-2.1 3.5-4.3 6.9-6.4 10.4-.8-3.9-2.9-7.5-5.8-10.1-4.5 2.8-9.1 5.6-13.6 8.4 1.1-6.2-11.5-7.1-11.3-.8-4.8-8.1-20-5-21.2 4.4-9.5-5.6-23.3-1.8-28.7 7.8-1.1-4.2-7.7-5.3-10-1.7-4.6-11.2-19.8-16.5-30.4-10.6-3.8 2.1-10.7 3.7-10.5-.6-3.2 2.8-6.3 5.6-9.5 8.4-2.3-7.1-14.7-6.8-16.7.4-1.5-2.4-2.9-4.8-4.4-7.2-4.9-.4-9.5 4-9.4 8.9-13.1-1.3-26.5.9-38.5 6.2-3.9.3-7.9.7-11.8 1 1.7 1-8.2 4.9-5.6 6.5 1.9 1.2 7.3 2.4 6.1 2.4 1.2.1 5.2.4 15 1.9 40.8 6.2 56 20.2 96.2 20.5 3.1 0 18.3 2.1 20.7 2.7l97.9 15.3z" id="path642" fill="#5bc9e1"/><path class="st12" d="M1879.4 903.5c-2.4-11.2-11.5-20.4-12.6-31.8-.3-2.7-.1-5.5-1.3-7.9-1.7-3.5-5.7-5.1-8.6-7.6-2.9-2.5-4.6-7.8-1.4-9.9-2.5-2.1-6.5-2-8.9.2-.2-6.4-5.1-12.4-11.4-13.8-6.3-1.4-13.3 1.8-16.3 7.6 5.6-17.6-8.1-35.2-22.3-47-3.1-2.6-6.5-5.2-10.5-5.9-11.1-1.9-18.6 10.6-22.8 21-3.6-12.4-7.7-25.7-17.6-34-9.9-8.3-27.7-8.5-33.8 2.9-4.1-10.8-17.6-17-28.5-13.1-10.9 3.9-17.3 17.3-13.6 28.2-1.5-7-9.5-11.8-16.5-10.3s-12.3 8.6-12 15.8c-5.8-9.6-19.7-13.2-29.3-7.5-9.1 5.3-12.9 18-8.6 27.6-5.5-9.4-21.1-10.4-28.6-2.2-6.6 7.1-6.8 18.4-2.2 27-4.3-4.5-10.4-7.3-16.7-7.3-8.3.1-16.4 5.2-20 12.8-1.1-7.8-8.6-14.3-16.5-14.3s-15.4 6.4-16.5 14.3c-1.6-9.6-14.8-14-23.3-9.1s-11.8 15.9-10.4 25.6c-12-7.7-28.7-9.2-40.3-1-11.7 8.2-15.2 27.1-5.2 37.3-6-5.1-16.6-1-19 6.5-1.7 5.4.3 11.2 4.1 15.4-4.1-1.2-9.3-.1-12.3 3.2-4.7 5.1-4.8 13.1-2.2 19.4 2.6 6.4 7.5 11.5 12.3 16.5-15.5-7.5-35.8-3.2-47 9.9-11.2 13.1-13.9 25.1-4.1 39.2.7 8.9 7 8.3 12.2 6.5 2.1 2.3 5.4 3.6 8.4 2.9-4.7 6.3-3.1 16.3 3.3 20.8 3.4 2.4 9.6 2.1 10.1-2-.9 3.4 2.1 6.5 5.2 8.3 3.2 1.9 7.1 3.3 10.7 2.3 3.6-1 6.6-5 5.2-8.5 2.1 3.3 4.7 6.4 8.3 8.1 3.5 1.7 8.1 1.8 11.1-.7 2.5-2 3.4-5.9 2-8.6 2.9 3.8 6.5 7.3 11.2 8 4.3.6 9-2.8 9.5-6.6.8.9 2.1 1.6 3.2 1.9 2.3.7 4.8 1.5 7.2 1 1.5-.3 2.9-1.2 3.7-2.4.2.4.4.7.7.9 4.7 3.8 11.6 5.6 17 2.9 3.5-1.8 5.7-5.8 5.6-9.6 2.3 2.2 5.9 3.6 9.2 3.9 5.8.5 11.9-.8 16.2-4.6 4.3-3.8 6.4-10.4 4-15.7 2.4-1.4 3.6-3.9 3.9-6.6 112.4-2.5 216.2 14.5 326.6-8.1 4.8-1 9.8-2.1 13.3-5.5 4-3.9 5-9.8 5.9-15.3 3.1-20.1 6.2-40.2 9.3-60.2 1.3-6.8 2.4-13.9.9-20.8z" id="path646" fill="#00bbd6"/><g id="g648"><path class="st10" d="M1429.2 842.2l-.3-.6c-.1-.2-.2-.5-.2-.7-.1-.5-.2-1-.2-1.5 0-1 .3-2 .8-2.8.5-.9 1.1-1.7 1.9-2.4l1.2-.9c.4-.3.9-.5 1.4-.7.4-.2.9-.3 1.5-.4.5-.1 1-.2 1.5-.2 1-.1 2-.1 3 .1 2 .2 3.9.7 5.8 1.1l-1.3 1.3c-.7-2.2-1.4-4.4-2-6.7-.5-2.3-.9-4.7-.7-7.2l.1-.9.1-1c.1-.6.2-1.2.4-1.9.3-1.2.8-2.4 1.3-3.6 1.2-2.3 3-4.4 5.5-5.6l.9-.4c.3-.1.7-.2 1-.4.7-.2 1.3-.3 2-.4 1.3-.2 2.7-.1 4 .1 2.6.4 5.1 1.5 7.2 3.1l.7.6.8.7c.5.4.9.9 1.3 1.4.9.9 1.6 1.9 2.3 3 1.4 2.1 2.5 4.3 3.4 6.5l-4.4 1.5-.4-2c-.1-.7-.1-1.3-.1-2s.1-1.3.1-2c.1-.7.2-1.3.4-2 .2-.6.4-1.3.6-1.9.3-.6.5-1.2.8-1.8.3-.6.6-1.1 1-1.7.4-.5.7-1.1 1.1-1.6.4-.5.8-1 1.3-1.4.5-.4.9-.9 1.4-1.3l1.5-1.2c.5-.3 1.1-.7 1.6-1 .6-.3 1.1-.6 1.7-.9.6-.2 1.2-.5 1.8-.7.6-.2 1.3-.4 1.9-.5l1-.2.5-.1h.5c.6 0 1.1-.1 1.7-.1.7 0 1.4 0 2 .1.6.1 1.3.2 1.9.3.6.1 1.3.3 1.9.4l1.8.6c.6.2 1.2.5 1.8.7.6.3 1.1.5 1.7.8.5.3 1.1.6 1.6 1s1 .7 1.5 1.1l1.5 1.2c.5.4.9.8 1.4 1.2l1.3 1.3 1.2 1.4 1.1 1.5 1 1.5.9 1.6-4.3.2.6-1.4.8-1.3.9-1.2 1-1.1 1-1.1 1.1-1 1.2-.9 1.2-.8 1.3-.7 1.3-.6 1.4-.5 1.4-.4 1.4-.3 1.5-.2 1.5-.1 1.6.1 1.3.2 1.5.3 1.4.4 1.4.5 1.3.6 1.3.7 1.2.8 1.1.9 1.1 1 1 1.1.9 1.1.8 1.2.7 1.3.6 1.3.5 1.4.4 1.4-3.1-.5c.3-.4.7-.9 1-1.3.4-.4.8-.8 1.2-1.1.4-.3.9-.6 1.3-.9.5-.2.9-.5 1.4-.7 1.9-.8 4-1 6-.8 2 .2 3.9.7 5.6 1.6.9.4 1.7 1 2.5 1.6.4.3.8.6 1.1 1 .3.4.7.7 1 1.1.3.4.6.7.8 1.1.3.4.6.8.8 1.2.5.8.9 1.7 1.3 2.5.7 1.7 1.2 3.5 1.5 5.3.3 1.8.5 3.6.5 5.4 0 1.8 0 3.6-.2 5.4-.1-1.8-.2-3.6-.4-5.4-.2-1.8-.5-3.5-1-5.2-.2-.9-.5-1.7-.8-2.5-.3-.8-.7-1.6-1.1-2.4-.4-.8-.8-1.5-1.3-2.2-.2-.3-.5-.7-.8-1-.3-.3-.6-.7-.9-1-.3-.3-.6-.5-.9-.8-.3-.3-.7-.5-1-.7-.7-.4-1.4-.8-2.2-1.2-1.5-.6-3.2-1-4.8-1-1.6 0-3.2.2-4.6.9-.4.1-.7.4-1 .5-.3.2-.6.5-.9.7l-.8.8-.6.9-2 2.9-1.1-3.3-.4-1.1-.5-1.1-.5-1-.6-1-.7-.9-.8-.9-.8-.8-.9-.8-.9-.7-1-.6-1-.5-1.1-.5-1.1-.4-1.1-.3c-.3-.1-.7-.1-1-.2l-1.3.1c.2 0 0 .2.1.2h-.2l-.3-.2-.6-.1h-1.1l-1.1.1-1.1.2-1.1.3-1.1.4-1 .5-1 .6-.9.6-.9.7-.8.8-.8.8-.7.9-.6.9-.5 1-.5 1-1.9 4.2-2.4-4-.8-1.3-.9-1.3-1-1.2-1-1.2-1.1-1.1c-.4-.4-.8-.7-1.2-1l-1.2-.9c-.4-.3-.9-.6-1.3-.9-.4-.3-.9-.5-1.3-.8-.4-.2-.9-.4-1.4-.7-.5-.2-.9-.4-1.4-.6-.5-.2-1-.3-1.4-.4l-1.5-.3c-.5-.1-1-.1-1.5-.2-.5 0-.9 0-1.4-.1-.5 0-1.1 0-1.7.1l-1.3.2c-.5.1-.9.2-1.4.4-.5.1-.9.3-1.4.5-.4.2-.9.4-1.3.6-.4.2-.8.5-1.2.8l-1.2.9c-.4.3-.7.7-1.1 1-.4.3-.7.7-1 1.1l-.9 1.2c-.3.4-.5.8-.7 1.3-.2.4-.4.9-.6 1.3-.2.4-.3.9-.5 1.4-.1.5-.2.9-.3 1.4-.1.5-.1.9-.1 1.4l.1 1.4.3 1.4-4.4 1.5c-.8-2-1.7-4-2.8-5.8-.6-.9-1.2-1.7-1.8-2.5-.3-.4-.7-.8-1-1.1l-.5-.5-.6-.5c-1.5-1.2-3.4-2.1-5.3-2.5-1-.2-1.9-.3-2.9-.2-.5 0-.9.1-1.4.2l-.6.2-.7.3c-1.7.8-3.1 2.2-4.1 3.9-.5.9-.9 1.8-1.2 2.8-.2.5-.3 1-.4 1.5l-.1.7-.1.8c-.2 2.1-.1 4.3.3 6.5s.9 4.4 1.4 6.6l.5 1.9-1.8-.6c-1.8-.6-3.6-1.2-5.4-1.5-.9-.2-1.8-.3-2.7-.3-.5 0-.9 0-1.4.1-.4 0-.9.1-1.3.2s-.8.3-1.2.5c-.4.2-.8.4-1.2.7-.7.5-1.4 1.2-1.9 2s-.9 1.6-1 2.5c-.1.5-.1.9 0 1.4 0 .2.1.5.2.7l.4.7z" id="path650" fill="#aae8f2"/></g><g id="g652"><path class="st10" d="M1535 806.9l-.5-.9c-.1-.3-.3-.7-.4-1-.1-.3-.2-.7-.2-1.1 0-.4-.1-.7 0-1.1 0-.7.1-1.5.3-2.2.2-.7.5-1.4.8-2 .7-1.3 1.6-2.5 2.7-3.5.5-.5 1.1-.9 1.8-1.4.6-.4 1.3-.7 2.1-1 .3-.1.6-.2 1-.3.4-.1.7-.2 1.1-.3.7-.2 1.4-.3 2.2-.4 1.5-.2 2.9-.2 4.3-.1 2.8.2 5.6.8 8.2 1.4l-2.1 2.1-.3-1.5-.2-1.5-.1-1.5v-1.5l.2-1.5.3-1.5.4-1.5.5-1.4.6-1.4.7-1.3.8-1.3.9-1.2 1-1.1 1.1-1 1.2-.9 1.3-.8 1.3-.7 1.4-.6 1.4-.5 1.4-.3 1.5-.2 1.5-.1h1.5l1.5.1 1.4.2 1.4.3 1.4.4 1.4.5 1.3.6 1.3.7 1.2.8 1.1.9-1 .4c0-.5.1-.9.2-1.4.1-.4.3-.9.5-1.3l.6-1.2c.3-.4.5-.8.8-1.1.3-.3.6-.7 1-1 .4-.3.7-.6 1.1-.8l1.2-.6c.4-.2.9-.3 1.3-.4l.7-.1h.7c.5 0 .9 0 1.4.1.5.1.9.2 1.4.3.4.1.9.3 1.3.5s.8.5 1.2.7c.4.3.8.6 1.1.9.3.3.7.7.9 1.1.3.4.5.8.8 1.3l-1.9.7c-.9-3-.7-6.2.3-9.1.5-1.5 1.2-2.9 2-4.1.9-1.3 1.9-2.5 3-3.5.6-.5 1.2-1 1.9-1.5l.9-.6 1-.6c1.4-.7 2.8-1.3 4.2-1.8 2.9-.9 5.9-1.4 8.9-1.5 1.5-.1 2.9-.1 4.5 0 .7.1 1.4.1 2.2.2.8.1 1.5.2 2.3.4.7.1 1.5.3 2.2.5.7.2 1.5.4 2.2.6 1.4.5 2.8 1 4.2 1.7.7.3 1.3.8 2 1.1.7.4 1.3.9 1.9 1.3l1.8 1.5c.5.6 1.1 1.1 1.6 1.7.5.6 1 1.2 1.4 1.9.2.3.4.7.6 1l.5 1.1c.4.7.6 1.5.9 2.2.2.8.4 1.6.5 2.3h-3.6l.3-1.2.4-1.1.5-1.1.5-1 .6-1 .7-.9.8-.9.8-.8.9-.7.9-.6 1-.6 1-.5 1.1-.4 1.1-.3 1.1-.2 1.2-.1h1l1.2.1 1.1.2 1.1.3 1 .4 1 .5.9.5.9.6.8.7.8.7.7.8.6.8.6.9.5.9.4 1 .3 1-.4.1-.4-.9-.5-.9-.6-.8-.6-.8-.7-.7-.7-.6-.8-.6-.8-.5-.9-.4-.9-.4-.9-.3-.9-.2-.9-.2-.9-.1h-.9l-1 .1c-.2 0-.6.1-.8.2l-.9.2-.8.3-.8.4-.8.5-.7.5-.7.6-.7.6-.6.7-.5.7-.5.7-.4.8-.4.8-.3.8-.2.8-.1.8-1.3 7.7-2.3-7.7c-.2-.6-.3-1.2-.5-1.8-.3-.6-.4-1.2-.8-1.7l-.4-.8c-.2-.3-.4-.5-.5-.8-.2-.2-.3-.5-.6-.7l-.6-.7c-.4-.5-.9-.9-1.3-1.3l-1.5-1.2c-.5-.3-1.1-.7-1.6-1-.6-.3-1.1-.7-1.7-.9-1.2-.6-2.4-1.1-3.6-1.5-.6-.2-1.3-.4-1.9-.6-.6-.2-1.3-.3-1.9-.5-.7-.2-1.3-.2-1.9-.3-.6-.1-1.4-.2-2.1-.3-1.3-.1-2.7-.2-4-.2-2.7 0-5.3.4-7.9 1.1-1.3.4-2.5.8-3.6 1.4l-.8.4-.9.5c-.5.3-1 .7-1.5 1.1-2 1.6-3.6 3.7-4.7 6.1-1 2.4-1.5 5-.9 7.5l-1.9.7c-.1-.3-.3-.7-.5-1-.2-.3-.4-.6-.7-.9l-.8-.8c-.3-.2-.6-.5-.9-.7-.3-.2-.7-.4-1-.5-.4-.1-.7-.3-1.1-.3-.4-.1-.8-.1-1.2-.1h-.5l-.6.1c-.4.1-.8.2-1.1.3-.4.1-.7.3-1.1.5-.3.2-.7.4-1 .7-.3.3-.6.5-.9.8-.3.3-.5.6-.7.9-.2.3-.4.7-.6 1-.2.4-.3.7-.4 1.1-.1.4-.1.8-.2 1.2l-.1 1.1-.9-.7-1.1-.8-1.1-.7-1.2-.6-1.2-.5-1.3-.4-1.3-.3-1.3-.2-1.3-.1h-1.3l-1.3.1-1.3.2-1.3.3-1.2.4-1.2.5-1.1.6-1.1.7-1 .8-.9.8-.9.9-.8 1-.7 1-.6 1.1-.6 1.1-.5 1.2-.4 1.2-.3 1.2-.2 1.2-.2 1.2-.1 1.2v1.2l.1 1.2.2 1.2.6 2.8-2.6-.7c-2.6-.7-5.2-1.4-7.7-1.7-1.3-.2-2.5-.2-3.8-.2-.6 0-1.2.1-1.9.2l-.9.2c-.3.1-.7.2-1 .3l-.8.3c-.3.1-.6.2-.8.4-.5.3-1.1.6-1.6 1-1 .7-1.9 1.6-2.6 2.7-.7 1-1.2 2.2-1.5 3.5-.1.3-.1.6-.1.9v1c0 .3.1.6.2.9l.3 1-.5 1z" id="path654" fill="#aae8f2"/></g><g id="g656"><path class="st9" d="M1638.4 806.1v-.9c.1-.3.1-.6.2-1l.3-.9c.1-.3.3-.6.4-.9.3-.6.7-1.1 1.1-1.6.4-.5.9-.9 1.5-1.3.5-.4 1.1-.7 1.7-1 .6-.3 1.2-.5 1.9-.6.6-.1 1.3-.2 2-.3h1c.3 0 .6.1 1 .2.3.1.6.1.9.2.3.1.7.2 1 .3l1.8.9c1.1.7 2.1 1.6 3 2.6.4.5.8 1 1.2 1.6.4.5.7 1.1 1 1.7.3.6.5 1.2.7 1.8.2.6.4 1.3.5 1.9l-1.7.1c.1-1.6.4-3.1.8-4.7.4-1.5 1-3.1 1.8-4.4.4-.7.9-1.3 1.4-1.9.5-.6 1.2-1.1 1.8-1.6 1.3-.9 2.8-1.6 4.4-1.8.8-.1 1.6 0 2.4.1.8.2 1.5.5 2.2.9 1.4.8 2.6 1.9 3.5 3.2.9 1.3 1.6 2.8 2.1 4.2.5 1.5.9 3 1.3 4.5l-1.3-.1c.4-1.1 1-2.2 1.5-3.3.6-1.1 1.2-2.1 2-3.1s1.7-1.9 2.9-2.6c.6-.3 1.2-.6 1.8-.8.2-.1.3-.1.5-.2l.4-.1c.4-.1.7-.1 1-.1 1.3-.1 2.7.1 3.9.4 1.2.4 2.4.9 3.5 1.5.6.4 1 .6 1.6 1.1l1.5 1.2c.9.9 1.7 1.8 2.5 2.9.7 1 1.3 2.2 1.8 3.3.5 1.2.8 2.4.9 3.7.1 1.3.1 2.6-.1 3.8-.2.7-.2 1.2-.5 1.8-.2.6-.5 1.2-.8 1.8-.7 1.1-1.5 2.1-2.4 2.9-.9.8-2 1.5-3.1 2-2.3 1-4.9 1.2-7.2.2l.1-.2c1.1.3 2.3.4 3.5.2 1.1-.1 2.2-.6 3.2-1.1 1-.5 1.9-1.2 2.7-2.1.8-.8 1.4-1.7 1.9-2.7.2-.5.5-1 .6-1.5.2-.4.3-1.2.4-1.6.1-1.1.1-2.2-.1-3.3-.2-1.1-.5-2.2-.9-3.2s-1-2-1.6-2.9c-.7-.9-1.4-1.7-2.2-2.5-.4-.4-.8-.8-1.3-1.1-.4-.3-1-.7-1.4-1-1.9-1.1-4.1-2-6.2-1.8-.3 0-.5 0-.7.1l-.4.1c-.1 0-.2.1-.4.1-.5.1-1 .4-1.4.6-.9.5-1.7 1.3-2.5 2.1-1.5 1.7-2.6 3.8-3.6 5.9l-1 1.9-.4-2.1c-.3-1.5-.6-3-1-4.5s-1-2.9-1.8-4.1c-.8-1.3-1.9-2.4-3.1-3.1-.6-.4-1.3-.7-2-.8-.7-.2-1.5-.2-2.2-.1-1.5.2-2.9.8-4 1.8-.6.5-1.1 1-1.6 1.6-.4.6-.8 1.2-1.2 1.9-1.3 2.7-1.7 5.7-1.8 8.7l-.3 5.2-1.4-5.1-.2-.8-.3-.8c-.2-.5-.4-1.1-.7-1.6l-.9-1.5c-.3-.5-.7-1-1-1.4-.4-.4-.8-.9-1.2-1.3-.4-.4-.9-.7-1.4-1.1-.5-.3-1-.6-1.5-.8-.3-.1-.5-.2-.8-.3l-.9-.3-.8-.1c-.3 0-.6 0-.8-.1-.6 0-1.1 0-1.7.1-.6.1-1.1.3-1.7.5-.5.2-1.1.5-1.6.8-.5.3-1 .7-1.4 1-.4.4-.8.8-1.2 1.3-.2.2-.3.5-.5.8-.1.3-.2.5-.4.8l-.3.9-.1.9h-.1z" id="path658" fill="#5bc9e1"/></g><g id="g660"><path class="st9" d="M1555.5 906.9l-.8-.8-.7-.9-.5-1-.4-1.1-.3-1.1-.2-1.1-.1-1.1.1-1.1.2-1.1.3-1.1.4-1.1.5-1 .6-1 .8-.9.9-.8 1-.7 1-.5 1.2-.4 1.2-.3 1.2-.1h1.2l1.2.1 1.2.2 1.1.4 1.1.5 1 .6 1 .7.9.8.8.9.7 1 .6 1.1.4 1.1-1.5.7-.7-1.2-.6-1.3-.5-1.3-.4-1.3-.2-1.4c-.1-.5-.1-.9-.1-1.4v-1.4c0-.5.1-.9.1-1.4.1-.5.2-.9.2-1.4.1-.5.2-.9.3-1.3.1-.4.3-.9.5-1.3s.4-.8.6-1.3c.2-.4.5-.8.7-1.2.3-.4.6-.7.8-1.1.3-.3.6-.7 1-1 .3-.3.7-.6 1.1-.9.4-.3.8-.5 1.1-.7.4-.2.9-.4 1.3-.6.4-.2.9-.3 1.3-.5.4-.1.9-.2 1.3-.3.5-.1.9-.1 1.4-.1h1.4c.5 0 .9.1 1.4.1.4.1.9.2 1.3.3.4.1.9.3 1.3.4.4.2.8.4 1.3.5.4.2.8.4 1.2.7.4.2.7.5 1.1.8.3.3.7.6 1 .9.3.3.6.7.9 1l.7 1.1.6 1.2-.7.2v-1.7l.1-1.7c.1-.6.2-1.1.3-1.7.1-.5.3-1.1.4-1.6.2-.5.4-1.1.6-1.6.2-.5.4-1 .7-1.6.3-.5.5-1 .8-1.5.3-.5.6-1 .9-1.4.7-.9 1.4-1.8 2.2-2.6.8-.8 1.6-1.5 2.6-2.2.9-.7 1.9-1.3 2.9-1.8s2.1-.9 3.2-1.2c2.2-.6 4.6-.9 6.9-.4.6.2 1.1.3 1.7.5.6.2 1.1.4 1.6.7.5.2 1 .6 1.5.9.5.4.9.7 1.4 1.1 1.7 1.6 3.1 3.4 4.3 5.3 1.2 1.9 2.2 4 3.2 6l-1.7.2.4-1.2.5-1.2.6-1.1.7-1 .8-1 .9-.9 1-.8 1.1-.7 1.1-.6 1.2-.5 1.2-.4 1.3-.2 1.3-.1h1.3l1.3.2.6.2.3.1h.4l1.1.4 1.2.6 1.1.7 1 .8.9.9.8 1 .7 1.1.6 1.1.5 1.2.4 1.2.3 1.2.2 1.3v1.3l-.1 1.3-.3 1.3-.4 1.2-1.8-.8c.5-.9 1.2-1.7 2-2.4.8-.6 1.8-1.1 2.7-1.4 1.9-.6 4-.7 5.9-.1 1 .2 1.9.7 2.7 1.2.9.6 1.5 1.2 2.2 2 .6.7 1.2 1.6 1.6 2.5.4.9.7 1.8.9 2.7.4 1.9.4 3.8.1 5.7-.1.5-.2.9-.3 1.4-.1.5-.3.9-.5 1.4-.2.5-.5.9-1 1.3-.1.1-.3.2-.3.2-.1.1-.3.1-.4.2-.3.1-.5.1-.8.2-1 .1-1.9-.1-2.8-.2l-2.7-.3-5.5-.6v-.2l5.5.2 2.7.1c.9 0 1.9.1 2.7 0 .8-.1 1.3-.6 1.7-1.3.3-.7.5-1.7.6-2.5.2-1.7.1-3.5-.3-5.2-.5-1.7-1.2-3.2-2.4-4.5-.5-.6-1.2-1.2-1.9-1.6-.7-.4-1.5-.7-2.3-.9-1.6-.4-3.3-.3-4.9.3-.8.3-1.5.7-2.1 1.2-.6.5-1.1 1.1-1.5 1.8l-4.5 7.9 2.7-8.7.3-1 .2-1 .1-1.1v-1.1l-.1-1.1-.2-1-.3-1-.4-1-.5-.9-.6-.9-.7-.8-.8-.8-.8-.7-.9-.6-.9-.5-1.1-.4h.1-.2l-.3-.1-.5-.1-1-.1h-1.1l-1.1.1-1.1.2-1 .3-1 .4-1 .5-.9.6-.9.6-.8.7-.7.8-.6.9-.5.9-.4 1-.3 1-.8 2.3-1-2.2c-.9-2-1.8-4-2.9-5.9-1.1-1.9-2.3-3.6-3.9-5.1-.8-.7-1.6-1.4-2.5-1.9-.5-.3-.9-.5-1.4-.7-.4-.2-1.1-.4-1.5-.5-2-.5-4.2-.4-6.3.1-1.1.3-2.1.6-3.1 1.1-1 .4-1.9 1-2.8 1.6-.9.6-1.7 1.3-2.5 2.1s-1.5 1.6-2.1 2.5c-.3.4-.6.9-.9 1.4-.3.5-.5 1-.8 1.4-.2.5-.4 1-.7 1.5-.2.5-.4 1-.5 1.5-.1.5-.3 1.1-.4 1.6l-.3 1.6-.1 1.6.1 1.6.1 1.6-.7-1.5-.6-1.1-.7-1c-.3-.3-.6-.6-.8-.9-.3-.3-.6-.5-1-.8-.4-.2-.7-.5-1.1-.7-.4-.2-.7-.4-1.1-.6-.4-.1-.8-.3-1.2-.4l-1.2-.3c-.4-.1-.8-.1-1.2-.2-.4 0-.8-.1-1.2-.1-.4 0-.8 0-1.2.1-.4.1-.8.1-1.2.2l-1.2.3c-.4.2-.8.3-1.1.4-.3.2-.7.3-1 .6-.3.2-.8.5-1 .7-.3.3-.6.5-.9.8-.3.3-.5.6-.8.9-.2.3-.5.7-.7 1-.2.4-.4.7-.6 1.1-.2.4-.3.7-.5 1.1-.1.4-.3.8-.4 1.2l-.3 1.2c-.1.4-.1.8-.2 1.2 0 .4-.1.8-.1 1.2v1.2l.1 1.2.2 1.2.3 1.2.4 1.2.5 1.1.6 1.1-1.5.7-.3-.9-.5-.9-.6-.8-.7-.8-.8-.7-.8-.6-.9-.5-.9-.4-1-.3-1-.2-1-.1h-1l-1 .1-1 .2-.9.3-1 .5-.9.6-.8.7-.7.8-.6.9-.5.9-.4 1-.3 1-.2 1-.1 1.1v1.1l.1 1.1.2 1.1.3 1 .4 1 .6.9.7.9-1.1-.7z" id="path662" fill="#5bc9e1"/></g><g id="g664"><path class="st10" d="M1411 812l-.5-.3c-.1-.2-.3-.3-.5-.5-.3-.4-.5-.8-.6-1.2-.2-.9-.2-1.8 0-2.7.2-.9.7-1.7 1.3-2.4.3-.4.7-.7 1.1-1 .4-.3.8-.5 1.4-.7.2-.1.3-.1.6-.2.2 0 .5-.1.8-.1.5-.1.9-.1 1.4 0 .9.1 1.8.3 2.7.6 1.7.7 3.1 1.7 4.4 3l-2.9 1.9c-.7-1.7-.9-3.5-.6-5.3.2-.9.5-1.8 1-2.6s1.2-1.5 2-2.1l.1-.1.1-.1.1-.1.2-.1c.2-.1.5-.2.8-.3.5-.2 1-.2 1.5-.2 1 0 1.9.2 2.7.5.8.4 1.6.9 2.2 1.7.3.4.5.8.7 1.2.1.2.1.5.2.7l.1.7-1.7.2-1.2-9.2-.1-.5.5-.1c1-.3 2-.4 3-.2s2 .6 2.8 1.2l-1.4.7V793c0-.5.1-1 .3-1.5.1-.5.3-.9.5-1.4.2-.5.5-.9.7-1.3.3-.4.6-.8 1-1.2.4-.4.8-.7 1.2-1 .4-.3.9-.6 1.4-.8l.8-.3.8-.2.7-.1c.3 0 .6 0 .9-.1.5 0 1.1 0 1.6.1s1 .2 1.6.4c.5.2 1 .4 1.5.7.5.3.9.6 1.3.9.4.3.8.7 1.2 1.1.4.4.7.9 1 1.4l.4.8.3.8-3.2-1c.2-.2.4-.5.6-.9.2-.4.3-1 .5-1.7s.3-1.4.6-2.2c.1-.2.1-.4.2-.6l.1-.2v-.1l.1-.2.1-.2.2-.5c.1-.2.3-.4.4-.7.6-.9 1.2-1.5 1.9-2 .7-.6 1.5-1 2.3-1.3.8-.3 1.6-.6 2.5-.7.8-.1 1.7-.2 2.5-.1.8 0 1.7.2 2.5.4.4.1.8.2 1.2.4l.3.1h.2l.1.1.5.2c.3.2.7.4 1.1.6.3.2.7.5 1 .7.6.5 1.2 1.1 1.7 1.6 2.1 2.3 3.4 5.1 4.1 8l.2.7-.6-.1-1.4-.3v-.4l1.4-.1-.4.6c-.7-1.2-1.5-2.4-2.3-3.5-.9-1.1-1.8-2-2.8-2.9-.5-.4-1-.8-1.6-1.1-.3-.2-.6-.3-.8-.5-.3-.1-.5-.2-.8-.4l-.5-.2h-.1s.1 0 0 0h-.1l-.2-.1c-.3-.1-.6-.1-.9-.2-.6-.1-1.2-.1-1.8-.1-.6 0-1.2.1-1.7.3-.6.1-1.1.3-1.6.6-.5.2-1 .5-1.4.9-.2.2-.4.4-.6.5-.1.2-.4.4-.4.6l-.2.2-.2.5-.1.2s.1-.2.1-.1v.1c0 .1-.1.3-.1.4-.2.6-.3 1.2-.5 1.9s-.4 1.5-.9 2.4c-.4.9-1.1 1.8-2 2.4l-2.3 1.6-.9-2.7-.1-.4-.2-.4c-.1-.3-.3-.5-.5-.8-.2-.3-.4-.5-.6-.7-.2-.2-.5-.4-.8-.6-.3-.2-.6-.3-.9-.5l-.9-.3c-.3-.1-.6-.1-1-.2H1440.4v.4s-.1-.2.1-.3l-.5-.1-.5.1c-.3.1-.6.2-.9.4-.3.2-.6.3-.9.5-.3.2-.6.4-.8.7-.2.3-.5.5-.7.9-.2.3-.4.6-.5 1-.1.3-.3.7-.4 1.1l-.1.6v.6l-.1 2-1.3-1.2c-.5-.5-1.2-.9-2-1.1-.8-.2-1.6-.2-2.3 0l.5-.7c.1 1.5.3 3 .6 4.5.1.8.3 1.5.5 2.2.2.7.4 1.5.6 2.2l-1.7.2-.1-.4-.2-.3c-.1-.2-.3-.4-.5-.6-.4-.3-.9-.6-1.5-.7-.5-.1-1.1-.1-1.6 0-.2.1-.5.1-.7.2-.1.1-.1 0-.2.1l-.2.2-.1.1.1-.1c-.7.6-1.2 1.6-1.4 2.7-.1.5-.1 1.1-.1 1.7 0 .3.1.6.1.8.1.3.2.5.2.8l2.8 8.2-5.7-6.4c-.9-1-2-1.9-3.1-2.5-.6-.3-1.2-.5-1.8-.6-.3-.1-.6-.1-.9-.1h-.4c-.1 0-.4 0-.5.1-.2 0-.5.1-.8.2-.3.1-.5.3-.8.4-.5.4-.9.9-1.2 1.5-.3.6-.5 1.2-.5 1.9 0 .3.1.7.2 1 .1.2.1.3.2.5l.3.5-.6.5z" id="path666" fill="#aae8f2"/></g><g id="g668"><path class="st10" d="M1453.2 763.1c.6-1 1.2-1.9 2-2.8.8-.8 1.9-1.6 3.2-1.9l.5-.1h.6c.4 0 .7 0 1.1.1.7.1 1.4.4 2 .8.6.4 1.2.9 1.6 1.6.2.4.4.8.5 1.2 0 .2.1.4.1.7v.7l-1.1 12.5-1.8-12.5-.1-.9v-.9l.1-.9.2-.9.2-.8c.1-.3.2-.5.3-.8l.4-.8.5-.7.5-.7.6-.6.7-.6.7-.5.8-.4.8-.3.9-.3.5-.1h1.3c.3 0 .7 0 1 .1l.9.2c.3.1.6.2.8.3l.8.4c.3.1.5.3.8.4l.7.5.6.6.6.6.5.7.4.7.4.8.3.8.2.8.1.8v.8l-2 .1c0-2.1.7-4.1 1.8-5.8 1.1-1.7 2.6-3 4.3-4 .9-.5 1.8-.9 2.7-1.2l.7-.2h.4l.3-.1c.4-.1 1-.1 1.5-.1 2-.1 4.1.3 5.9 1.1.9.4 1.8.9 2.7 1.5.8.6 1.6 1.3 2.4 2 .3.4.7.8 1 1.2l.2.3.2.3.4.6c.6.9 1 1.9 1.4 2.8 1.6 3.8 1.9 8.1 1.3 12.1l-4.2-.9c.5-1.8 1.6-3.3 3-4.3s3.1-1.6 4.8-1.6c.4 0 .9 0 1.3.1l.6.1H1509.4l.2.1c.3.1.9.4 1.2.6.4.2.7.4 1.1.7 1.3 1 2.3 2.4 2.8 3.9.3.8.4 1.6.5 2.4V775.1c0 .1-.1.4-.1.6-.2.8-.5 1.5-.9 2.2-.4.7-.9 1.2-1.4 1.8-1.1 1-2.4 1.8-3.8 2.1-.3.1-.7.2-1.1.2-.4 0-.8-.1-1.2-.2-.4-.1-.7-.3-1-.7-.3-.3-.4-.9-.2-1.2l.4.1c-.1.5.5.7 1 .8.6.1 1-.1 1.6-.4 1-.5 1.9-1.3 2.6-2.3.3-.5.6-1 .8-1.5.2-.5.3-1.1.4-1.5v-.4l-.2-.2-.2-.1s.2-.1.2.1h.1c0-.2 0-.5-.1-.7-.1-.5-.2-1-.5-1.4-.2-.5-.5-.9-.8-1.2-.3-.4-.7-.7-1.1-.9l-.6-.3-.6-.2-.2-.1h-.2v-.2s.2-.2.1-.2l-.3.2c-.2 0-.4.1-.6.1-.9.1-1.7.5-2.4 1s-1.2 1.3-1.4 2l-4.2-.9c.6-3.4.5-6.9-.6-10.1-.3-.8-.6-1.6-1-2.3l-.3-.6-.1-.3-.2-.3c-.2-.4-.5-.7-.7-1-1-1.3-2.3-2.5-3.7-3.4-1.5-.9-3.1-1.5-4.8-1.7-.4 0-.8-.1-1.3 0h-.4H1485.9l-.6.1c-.8.2-1.7.5-2.5.9s-1.5.9-2.1 1.5c-.6.6-1.2 1.3-1.6 2.1-.4.8-.7 1.6-.9 2.4-.1.8-.1 1.7 0 2.5l-2 .1-.1-.6-.2-.6-.3-.5-.3-.5-.4-.5-.4-.4c-.3-.3-.6-.5-.9-.8l-.5-.3-.5-.3c-.2-.1-.3-.1-.5-.2l-.5-.2c-.2 0-.4-.1-.5-.1l-.5-.1h-.4l-.7.3c.2 0 .1.2.1.2V756.7h-.4l-.5.1-.5.2-.5.2-.5.3-.4.3-.4.4-.4.4-.3.4-.3.5-.2.5-.2.5-.1.5-.1.5v1h-3v-.3c0-.1 0-.2-.1-.4-.1-.3-.3-.6-.6-.8-.3-.2-.6-.5-1-.6-.2-.1-.4-.1-.6-.2h-.3l-.2-.2-.1-.2h.1v.2c-.9.1-1.8.5-2.7 1.1-.9.5-1.7 1.3-2.6 2h-.5z" id="path670" fill="#aae8f2"/></g><g id="g672"><path class="st10" d="M1375.7 781.5c-.2-.1-.3-.2-.5-.3-.1-.2-.3-.3-.4-.5-.2-.4-.4-.8-.5-1.2-.2-.9 0-1.8.3-2.6s.8-1.6 1.5-2.3c.4-.3.8-.6 1.2-.8.5-.2.9-.4 1.5-.5.2 0 .3-.1.6-.1h.8c.5 0 .9.1 1.4.2.9.2 1.7.6 2.5 1.1.7.5 1.4 1.1 1.9 1.8.3.3.5.7.7 1.1.2.4.4.8.6 1.1l-2.8 1.1c-.2-1.5-.2-3 .1-4.5.3-1.5.8-2.9 1.8-4.1l.4-.4c.1-.1.3-.3.5-.4.3-.2.7-.4 1-.6.7-.3 1.5-.5 2.3-.5.8 0 1.6.1 2.5.5.4.2.8.5 1.1.8.2.2.3.4.5.6.1.2.2.4.3.7l-2.5.8-.3-.7-.2-.8c-.1-.5-.1-1 0-1.5l.3-1.5c.2-.5.4-.9.6-1.4.5-.9 1.2-1.6 2-2.3.4-.3.8-.6 1.3-.9.2-.1.5-.2.7-.3l.4-.1.2-.1h.2l.6-.1c.3 0 .6-.1.8-.1.5-.1 1-.1 1.5 0 .5 0 1 .1 1.5.2s.9.3 1.4.4c.9.4 1.7.8 2.5 1.4.4.3.7.6 1.1.9.3.3.6.7.9 1.1l-3.3.9.2-.8.3-.7.4-.7c.2-.2.3-.4.5-.6.3-.4.7-.7 1.1-1 .4-.3.8-.5 1.3-.7.4-.2.9-.3 1.4-.4.5-.1.9-.1 1.4-.1l.7.1.7.2.6.2.6.3.5.3-.1.4c-.1.9-.3 1.8-.4 2.8h-.4c-.3-.9-.5-1.8-.7-2.7l.5.7c-.3 0-.6-.1-.9-.1h-.4l-.4.1c-.3.1-.6.2-.8.3-.3.1-.5.3-.7.5l-.6.6c-.2.2-.3.4-.5.6l-.3.6c0 .1-.1.2-.1.3v.3l-.6 3.5-2.8-2.6c-.5-.4-1-.8-1.5-1.1-.5-.3-1.1-.6-1.6-.8-.3-.1-.6-.2-.8-.3-.3-.1-.6-.1-.8-.2h-1.1l-.6.1-.3.1-.4.1c-.2.1-.5.2-.7.4-.5.3-.9.7-1.2 1.1-.2.2-.3.5-.5.7-.1.3-.2.5-.3.8-.1.3-.1.5-.2.8v.8l-2.5.8v-.3l-.1-.3c-.1-.2-.2-.4-.4-.5-.3-.3-.9-.6-1.4-.6-.6-.1-1.2 0-1.7.1-.3.1-.6.2-.8.4-.1.1-.2.1-.3.3l-.3.3c-.8.9-1.1 2.2-1 3.5 0 .6.2 1.2.4 1.8.2.6.4 1.2.7 1.8l4 9.6-6.8-8.5c-.8-1-1.7-1.8-2.6-2.5-.5-.3-.9-.6-1.4-.8-.2-.1-.5-.2-.7-.2-.1 0-.2 0-.3-.1h-.5c-.1 0-.4 0-.6.1-.2.1-.5.1-.7.3-.5.2-.9.6-1.3 1.1-.4.4-.6 1-.8 1.6-.1.3-.1.6-.1.9l.1.5.2.5-.6.2z" id="path674" fill="#aae8f2"/></g><g id="g676"><path class="st10" d="M1516 759.1v-.8l.1-.9c.1-.3.1-.6.2-.9.1-.3.2-.6.3-.8.2-.6.5-1.1.8-1.6.3-.5.7-1 1.1-1.4.4-.4.8-.9 1.3-1.2.5-.4 1-.7 1.5-1 .5-.3 1.1-.6 1.6-.8.6-.2 1.1-.4 1.8-.6l.8-.2.9-.2c.6-.1 1.2-.1 1.8-.2 1.2-.1 2.4 0 3.5.1 2.3.3 4.6.8 6.7 1.3l-2 2c-.4-1.7-.8-3.4-1.1-5.2-.3-1.8-.5-3.7-.3-5.6l.1-.7v-.4l.1-.3c.1-.4.2-1 .3-1.5.3-.9.7-1.9 1.1-2.7 1-1.7 2.3-3.3 4.2-4.3.5-.2.9-.5 1.4-.6l.2-.1h.2l.3-.1.6-.1c.5-.1 1.1-.1 1.6-.1s1 0 1.5.1 1 .2 1.4.3l.7.2.7.3c.9.4 1.7.9 2.4 1.4 1.5 1 2.8 2.3 4 3.6.6.7 1.2 1.3 1.7 2s1.1 1.4 1.6 2.1l-1.1.5-.1-1.6c0-.5.1-1 .1-1.6l.3-1.5c.2-.5.3-1 .5-1.5s.4-.9.7-1.4c.3-.4.5-.9.9-1.3.3-.4.6-.8 1-1.2.4-.4.7-.8 1.1-1.1.4-.3.8-.7 1.2-1 .4-.3.8-.6 1.3-.9.5-.2.9-.5 1.4-.8l1.5-.6c.5-.2 1-.3 1.5-.5.5-.1 1-.2 1.6-.3.5 0 1.1-.1 1.6-.1.6 0 1 0 1.7.1.5.1 1 .1 1.5.2s1.1.3 1.6.5l1.5.6c.5.2 1 .5 1.4.7.5.3.9.6 1.4.9.4.3.9.6 1.3 1s.8.7 1.2 1.1c.4.4.7.8 1.1 1.2.3.4.7.8 1 1.3.3.5.6.9.9 1.4.3.5.5.9.8 1.4.2.5.4 1 .7 1.5l.5 1.5.4 1.6.3 1.6.2 1.6-3.5-1.1c1.2-1.5 2.5-3.1 3.9-4.5l2.1-2.1c.7-.7 1.5-1.3 2.4-1.9 1.6-1.2 3.4-2.3 5.3-3.2 1-.4 2-.7 3-1 1-.3 2.1-.5 3.1-.6h1.6c.5 0 1.2.1 1.7.1 1.1.1 2.2.4 3.2.8 2 .7 3.9 1.8 5.5 3.3 1.6 1.4 2.9 3.2 3.7 5.3.2.5.3 1.1.5 1.6.1.5.2 1.1.2 1.7 0 .6 0 1.1-.1 1.7-.1.5-.2 1.1-.3 1.6l-2.5-.8.6-1.1c.2-.3.5-.7.8-1 .3-.3.6-.6.9-.8.3-.2.7-.5 1-.7.4-.2.7-.4 1.1-.5l1.1-.4 1.1-.2 1.1-.1h1.1l1.1.2 1.1.3 1 .4 1 .6c.3.2.6.5.8.7l.7.8.6.9-.3.2-.7-.7-.8-.6-.8-.5-.9-.4-.9-.2-.9-.1h-.9l-.9.1-.9.2-.9.3-.8.4-.7.5-.7.6-.6.6-.4.7-.3.8-3.5 8.5.9-9.3.1-1.2c0-.4 0-.8-.1-1.2l-.3-1.2c-.2-.4-.2-.8-.4-1.1-.7-1.5-1.8-2.7-3.1-3.8-1.3-1-2.8-1.8-4.4-2.3-.8-.2-1.6-.4-2.4-.5-.4 0-.7-.1-1.1-.1H1607.1v-.2c.2 0 .1.1.1.1l-.2.1c-.8.1-1.7.3-2.5.6-.8.2-1.6.6-2.4.9-1.6.7-3.1 1.6-4.5 2.7-.7.5-1.4 1.1-2.1 1.7-.7.6-1.4 1.2-2 1.8-1.3 1.3-2.5 2.6-3.7 4.1l-3.1 3.8-.3-4.9-.1-1.3-.2-1.3-.3-1.3-.4-1.3-.5-1.2-.6-1.2c-.2-.4-.4-.8-.7-1.2-.2-.4-.5-.7-.8-1.1-.3-.4-.6-.7-.8-1-.3-.3-.6-.7-.9-1-.3-.3-.7-.6-1-.9-.3-.3-.7-.5-1.1-.8-.4-.3-.8-.5-1.1-.7l-1.2-.6c-.4-.2-.8-.3-1.2-.5-.4-.1-.9-.3-1.4-.4-.3-.1-.8-.1-1.3-.2h-1.3c-.5 0-.9.1-1.4.1-.4.1-.9.2-1.3.3-.4.1-.9.3-1.3.4-.4.2-.8.4-1.3.6-.8.4-1.6.9-2.4 1.5-.4.3-.7.6-1 .9-.3.3-.6.7-.9 1-.3.4-.5.8-.8 1.1-.2.4-.4.8-.7 1.2-.2.4-.3.9-.5 1.3-.1.4-.2.9-.3 1.4l-.1 1.4.1 1.4.2 2.1-1.3-1.6c-.5-.7-1.1-1.3-1.6-2l-1.8-1.8c-.6-.6-1.2-1.1-1.9-1.6s-1.3-1-2.1-1.4c-.7-.4-1.4-.7-2.2-1l-.6-.2-.6-.1c-.4-.1-.7-.1-1.1-.1h-1.1c-.3.1-.6.1-1 .2l-.6.2-.3.1h-.1s.2-.1.1 0l-.1.1c-.3.1-.6.3-.9.5-1.1.8-2.1 1.9-2.7 3.3-.3.7-.6 1.4-.8 2.1-.1.4-.2.7-.2 1.1l-.1.3v.2s0-.1 0 0v.1l-.1.6c-.1 1.5 0 3.1.2 4.7s.6 3.3.9 5l.6 2.8-2.6-.8c-2.1-.6-4.2-1.2-6.3-1.6-1-.2-2.1-.3-3.1-.4h-1.5l-.7.1-.8.1c-.4.1-1 .2-1.4.3-.5.1-1 .3-1.4.5-.9.4-1.8 1-2.6 1.6-.8.7-1.5 1.4-2 2.3-.3.5-.5.9-.7 1.4l-.2.8-.1.8-1-.1z" id="path678" fill="#aae8f2"/></g><g id="g680"><path class="st9" d="M1415.3 997.2l-.7-1.8-.5-1.9-.4-1.9-.2-1.9-.1-1.9.1-2c.1-.6.2-1.3.2-1.9.1-.6.3-1.3.4-1.9.2-.6.4-1.3.5-1.9.2-.6.5-1.2.7-1.8.3-.6.6-1.2.8-1.8.3-.6.6-1.1 1-1.7.4-.6.7-1.1 1.1-1.6.4-.5.8-1 1.3-1.5l1.4-1.4c.5-.4 1-.8 1.5-1.3.6-.4 1.1-.7 1.7-1.1l1.8-.9c.6-.3 1.3-.5 1.9-.7.6-.2 1.3-.3 1.9-.5.7-.1 1.3-.2 2-.3.7-.1 1.3-.1 2-.1h2c.7 0 1.3.1 2 .2s1.3.3 2 .4c.6.2 1.3.4 1.9.6.6.2 1.2.5 1.9.8.6.3 1.2.6 1.8 1 .6.4 1.1.8 1.7 1.2.5.4 1 .9 1.5 1.4l1.3 1.5 1.1 1.7-1.4 1-.8-1.1-.6-1.2-.4-1.3-.3-1.3-.1-1.3.1-1.3.2-1.3.3-1.3.5-1.2.6-1.2.7-1.1.8-1 1-.9 1.1-.8 1.2-.6 1.3-.5 1.2-.3 1.4-.1 1.3.1 1.3.3 1.2.4 1.2.5 1.1.7 1 .8 1 .9.9 1 .8 1 .6 1.1.5 1.2.3 1.2.2 1.3v1.3l-.7.1-.3-1.5-.1-1.5.1-1.5.2-1.5.3-1.5.5-1.4.6-1.4c.2-.4.5-.9.7-1.3.3-.4.6-.8.9-1.3.3-.4.6-.8 1-1.2.3-.4.7-.7 1.1-1.1.4-.3.8-.6 1.2-1 .4-.3.9-.6 1.3-.8l1.4-.7c.5-.2 1-.4 1.4-.5.5-.1 1-.2 1.5-.4.6-.1 1-.1 1.5-.2h1.6c.5.1 1 .1 1.5.2s1 .3 1.5.4c.5.2 1 .4 1.4.6.5.2.9.5 1.4.7.4.3.9.6 1.3.8.4.3.8.6 1.2 1 .4.3.7.7 1.1 1.1.3.4.7.8 1 1.2.3.4.6.9.9 1.3.3.5.5.9.7 1.4.2.5.4 1 .5 1.5.1.5.2 1 .4 1.5l.1 1.6-.1 1.6-.3 5.4-1.2-5.3c-1.7-7.5-.6-15.8 3.7-22.4 1.1-1.7 2.3-3.2 3.7-4.5l.5-.5.6-.5c.4-.3.7-.6 1.1-.9l1.3-.8c.4-.3.9-.5 1.3-.7 1.7-.9 3.6-1.7 5.5-2.1 1.9-.4 3.9-.7 5.9-.7 2 0 3.9.3 5.9.8 1.9.6 3.7 1.4 5.4 2.5l1.3.9 1.1.9c.4.3.7.7 1.1 1 .3.4.7.7 1 1.1 1.3 1.5 2.3 3.2 3.1 5 .8 1.8 1.5 3.6 2 5.5s.9 3.7 1.1 5.6c.5 3.8.8 7.6.8 11.4l.1 2.9-1.4-2.5-.5-.9c-.1-.3-.2-.6-.3-1 0-.3-.1-.7-.1-1 0-.3 0-.7.1-1 .1-.6.4-1.2.7-1.8.3-.6.7-1.1 1.1-1.5.4-.5.9-.9 1.4-1.2.3-.2.5-.3.8-.5.3-.1.6-.3.9-.4.3-.1.6-.2.9-.2.3 0 .6-.1 1 0 .3 0 .6 0 1 .1l.9.3c.3.1.5.3.8.4.3.2.5.4.7.6.4.5.8 1 1.1 1.5.3.6.5 1.1.6 1.7.1.6.2 1.2.1 1.8 0 .3 0 .6-.1.9-.1.3-.1.6-.2.9l-.3.9-.4.8-.5.7-.6.7-.7.6-.8.4-.1-.2.7-.5.6-.6.5-.7.4-.7.3-.8c.1-.3.2-.5.2-.8.1-.3.1-.6.1-.8v-.8c0-.6-.1-1.1-.2-1.7-.1-.5-.3-1.1-.6-1.5-.3-.5-.6-.9-1-1.3-.2-.2-.4-.3-.6-.5-.2-.1-.5-.3-.8-.4-.2-.1-.5-.1-.7-.2-.3-.1-.5 0-.8-.1-.3 0-.5 0-.8.1-.3 0-.5.1-.8.2-.2.1-.5.2-.7.3-.2.1-.5.3-.7.4-.4.3-.8.7-1.2 1.1-.3.4-.6.9-.9 1.3-.2.5-.4 1-.5 1.5 0 .3 0 .5-.1.8 0 .2.1.5.1.7l.2.7.4.6-1.3.4c-.2-3.7-.5-7.5-1.1-11.2-.3-1.8-.7-3.6-1.2-5.4-.5-1.8-1.2-3.5-1.9-5.1-.8-1.6-1.8-3.2-2.9-4.5-.3-.4-.6-.6-.9-1-.3-.3-.6-.6-1-.9l-1.1-.9-1.1-.7c-1.5-1-3.1-1.7-4.8-2.2-1.7-.5-3.5-.7-5.3-.7-1.8 0-3.6.2-5.3.6-1.8.4-3.4 1.1-5 1.9l-1.2.6-1.1.7c-.4.2-.7.6-1.1.8l-.5.4-.5.5c-1.3 1.2-2.5 2.6-3.5 4.1-1 1.5-1.9 3.1-2.5 4.8-.6 1.7-1.2 3.5-1.5 5.3-.3 1.8-.5 3.6-.4 5.5 0 1.8.2 3.7.6 5.5l-1.5.1.1-1.4-.1-1.4-.3-1.4c-.1-.4-.3-.9-.4-1.3-.2-.4-.4-.9-.6-1.3-.2-.4-.5-.8-.7-1.2-.3-.4-.6-.8-.9-1.1-.3-.3-.6-.7-1-1-.4-.3-.7-.6-1.1-.9l-1.2-.8-1.3-.7-1.3-.6-1.4-.4c-.5-.1-.9-.2-1.4-.2-.5 0-.9-.1-1.4-.1-.5 0-1 .1-1.5.1l-1.4.3c-.5.2-.9.3-1.4.5-.4.2-.9.4-1.3.6-.4.3-.8.5-1.2.8-.4.3-.8.6-1.1.9l-1 1c-.3.4-.6.7-.9 1.1-.3.4-.6.8-.8 1.2l-.7 1.3-.6 1.3-.5 1.4-.3 1.4-.2 1.4v1.5l.1 1.4.3 1.4-.7.1v-1.2l-.2-1.2-.3-1.2-.5-1.1-.6-1-.7-1-.8-.9-.9-.8-1-.7-1.1-.6-1.1-.5-1.1-.3-1.2-.2h-1.2l-1.1.1-1.2.3c-.3.1-.7.3-1 .4l-1 .6-.9.7-.8.8-.7.9-.6 1-.5 1.1-.4 1.1-.3 1.1-.1 1.2v1.2l.1 1.1.2 1.1.4 1.1.5 1 .6.9-1.4 1-1-1.5-1.2-1.4-1.4-1.2c-.5-.3-1-.7-1.5-1-.5-.3-1.1-.6-1.6-.9-.6-.2-1.1-.5-1.7-.7l-1.8-.6c-.6-.1-1.2-.3-1.8-.4-.6-.1-1.2-.2-1.8-.2-.6 0-1.2-.1-1.8-.1-.6 0-1.2.1-1.8.1l-1.8.3c-.6.2-1.2.3-1.8.5-.6.2-1.2.4-1.7.6-.5.3-1.1.5-1.6.8l-1.6 1-1.5 1.1c-.5.4-.9.8-1.4 1.3-.4.5-.8.9-1.2 1.4-.4.5-.8 1-1.1 1.5-.3.5-.7 1.1-1 1.6-.3.6-.6 1.1-.8 1.7-.2.6-.5 1.2-.7 1.7l-.6 1.8-.4 1.8-.3 1.9-.2 1.9v1.9l.1 1.9.3 1.9.4 1.9.5 1.8-.1-.1z" id="path682" fill="#5bc9e1"/></g><g id="g684"><path class="st9" d="M1684.6 862.3l-.5-1.2-.3-1.3-.2-1.3v-1.3l.1-1.3.2-1.3.3-1.3.4-1.2.6-1.2.7-1.1.8-1.1.9-1 1-.9 1.1-.8 1.2-.7 1.2-.6 1.3-.4 1.4-.3 1.4-.1h1.4l1.4.1 1.3.3 1.3.4 1.3.5 1.2.6 1.2.7 1.1.8 1 .9.9 1 .8 1.1.7 1.2.5 1.3-1.7.4c-.6-4.5-.7-9.3.8-13.8.4-1.1.8-2.2 1.4-3.2.6-1.1 1.3-2 2.1-2.9 1.6-1.8 3.5-3.2 5.7-4 1.1-.4 2.3-.7 3.5-.7h.9l.8.1c.6 0 1.2.2 1.7.3 1.1.3 2.2.8 3.2 1.4l.7.5.7.5c.5.3.9.7 1.3 1.1l1.2 1.2c.4.4.8.9 1.1 1.3.7.9 1.4 1.8 2 2.8.6.9 1.2 1.9 1.8 2.9.6 1 1.1 2 1.6 3l-.6.1.2-1.3.3-1.3.4-1.3.5-1.2.6-1.2.7-1.1.8-1 .9-1 1-.9 1.1-.8 1.1-.7 1.2-.6 1.3-.5 1.3-.4 1.3-.2 1.4-.1h1.3l1.4.2 1.3.3 1.3.4 1.2.6 1.2.7 1.1.8 1 .9 1 1 .9 1 .8 1.1.7 1.2.6 1.2.5 1.3.3 1.3.2 1.4-1.7-.4.5-.8.6-.8.6-.8.7-.7.7-.7.8-.6.8-.5.9-.5.9-.4.9-.4.9-.3 1-.2 1-.3 1-.2h1l1 .2 1 .2 1 .3 1 .3.9.4.9.5.8.5.8.6.8.6.7.7.7.8.6.8.5.8.5.9.4.9.3 1 .2 1-2-.2.7-1.7.9-1.6 1-1.5 1.1-1.5c.4-.5.8-.9 1.1-1.4.4-.5.8-.9 1.2-1.3.9-.8 1.8-1.6 2.7-2.3 1-.7 2-1.3 3.1-1.9 1.1-.6 2.2-1 3.3-1.4.6-.2 1.2-.3 1.8-.5l1.8-.3c.6-.1 1.2-.1 1.8-.1.6 0 1.2 0 1.8.1h.5l.4.1.9.1c.6.1 1.2.3 1.8.5.6.2 1.1.5 1.7.7.5.3 1 .6 1.6.9.5.3 1 .7 1.5 1.1.5.4.9.8 1.3 1.2.8.9 1.6 1.8 2.2 2.8.6 1 1.2 2.1 1.6 3.2.2.5.3 1.1.5 1.7.2.6.2 1.2.3 1.8.1.6 0 1.2.1 1.8 0 .6-.1 1.2-.2 1.8-.1.6-.3 1.1-.5 1.7l-.7 1.6-.2-.1.6-1.6.3-1.7c0-.6.1-1.1.1-1.7-.1-.6-.1-1.1-.2-1.7-.1-.5-.2-1.1-.4-1.6s-.3-1.1-.6-1.6c-.5-1-1-2-1.7-2.9-.7-.9-1.4-1.7-2.2-2.5-.4-.4-.8-.8-1.3-1.1-.5-.3-.9-.7-1.4-.9-.5-.3-1-.6-1.5-.8l-1.5-.6c-.5-.1-1-.3-1.6-.4l-.9-.1-.4-.1h-.2-1.9c-.5.1-1.1.1-1.6.2s-1.1.2-1.6.3c-.5.2-1.1.3-1.6.5-1 .4-2.1.8-3 1.3-1 .5-1.9 1.2-2.8 1.8-.9.7-1.7 1.4-2.5 2.2-.4.4-.8.8-1.1 1.2-.3.4-.7.9-1 1.3l-1 1.4-.9 1.4-.8 1.5-.7 1.5-1.3 2.9-.8-3.1-.2-.8-.3-.8-.3-.8-.4-.7-.5-.7-.5-.7-.6-.6-.6-.6-.6-.5-.7-.5-.7-.4-.7-.4-.8-.3-.8-.3-.8-.2-.9-.2-.8-.1h-.8l-.8.1-.8.1-.8.2-.8.2-.8.3-.8.4-.8.4-.7.5-.7.5-.6.6-.6.6-.6.6-.5.7-.5.7-1.4 2.2-.3-2.6-.1-1.2-.3-1.2-.4-1.1-.5-1.1-.6-1.1-.7-1-.8-.9-.9-.9-.9-.8-1-.7-1-.6-1.1-.5-1.1-.4-1.2-.3-1.2-.2-1.3-.1h-1.2l-1.2.2-1.2.3-1.2.4-1.1.5-1.1.6-1 .7-1 .8-.9.9-.8 1-.7 1-.6 1.1-.5 1.1-.4 1.2-.3 1.2-.2 1.2-.1 1.1-.5-1c-.5-1-1-2-1.6-3-.6-1-1.1-1.9-1.7-2.9-.6-.9-1.3-1.8-2-2.7-.4-.4-.7-.8-1.1-1.3l-1.2-1.2c-.4-.4-.8-.7-1.3-1l-.7-.5-.7-.4c-.5-.3-1-.5-1.5-.7-.5-.2-1-.4-1.6-.5-.5-.1-1-.2-1.6-.2h-1.6c-1.1.1-2.1.4-3.1.8-2 .8-3.7 2.2-5.1 3.9-.7.8-1.3 1.8-1.8 2.7-.5 1-.9 2-1.2 3-1.2 4.2-1.1 8.7-.6 13.1l.7 6.4-2.5-6-.4-1.1-.6-1-.7-1-.8-.9-.9-.8-.9-.8-1-.7-1.1-.6-1.1-.5-1.2-.4-1.2-.3-1.2-.2h-1.2l-1.2.1-1.2.2-1.2.3-1.1.5-1.1.6-1 .7-.9.8-.8.9-.8 1-.7 1-.6 1.1-.5 1.1-.4 1.2-.3 1.2-.2 1.2v1.3l.1 1.3.2 1.2.4 1.2.3.2z" id="path686" fill="#5bc9e1"/></g><g id="g688"><path class="st1" d="M1326.1 760.1c-.9-.7-1.3-1.8-1.3-2.9 0-.6.1-1.1.3-1.7.2-.5.5-1.1.8-1.5.7-.9 1.8-1.5 2.8-1.9.5-.2 1.1-.3 1.7-.4.3 0 .6-.1.9-.1h.8c.6 0 1.2.1 1.7.2.6.1 1.1.3 1.6.5s1.1.4 1.5.7c.3.1.5.3.7.5.2.2.5.3.7.5.5.4.9.8 1.2 1.2.4.4.7.9 1 1.4.3.5.5 1 .8 1.6.1.3.2.6.3.8l.2.9-1.1.1c0-2.9.2-5.8 1.2-8.6.3-.7.6-1.4 1-2 .2-.3.4-.6.7-.9.2-.3.5-.6.8-.9.3-.3.6-.5.9-.7.3-.2.7-.4 1-.6.4-.1.7-.3 1.2-.4.2 0 .3-.1.5-.1s.4-.1.6-.1c1.6-.1 3.2.4 4.5 1.1.7.4 1.3.8 1.9 1.3.3.3.6.5.8.8l.4.4.3.4c.5.6.9 1.3 1.2 1.9.4.7.7 1.3.9 2 .6 1.4 1 2.7 1.4 4.1l-1.7.1c.9-3.7 2.3-7.2 4.3-10.4l1.1-1.7.6 1.9 1.6 5-1.8-.1c.5-1.3 1.4-2.4 2.6-3 1.2-.7 2.5-1 3.9-.8l.5.1.5.2c.3.1.6.3.9.4.6.3 1.1.8 1.6 1.3.9 1 1.5 2.3 1.5 3.7l-2 .1v-2.2c.1-.8.2-1.5.3-2.2.2-.7.4-1.5.6-2.2l.9-2.1c.7-1.3 1.6-2.6 2.8-3.6.6-.5 1.2-1 1.9-1.4.7-.4 1.4-.7 2.1-1H1382.5l.3-.1.5-.1c.3-.1.8-.1 1.2-.1.8 0 1.6.1 2.4.2 1.5.3 3 1 4.2 2 1.2.9 2.3 2.2 2.9 3.6.2.4.3.8.4 1.1.1.4.1.8.2 1.2v1.2l-.2 1.2-1.5-.8c1.9-2.2 4.2-4.1 6.8-5.6 1.3-.7 2.6-1.4 4-1.9.7-.3 1.4-.5 2.1-.7.7-.2 1.5-.3 2.2-.4.8-.1 1.6 0 2.3.2.2 0 .4.1.6.2.3.1.4.2.5.2.3.1.7.4 1 .6.6.5 1.2 1.1 1.6 1.8.4.7.7 1.4.9 2.1.2.7.3 1.5.4 2.2.1.7.1 1.5.1 2.2 0 1.5-.2 2.9-.5 4.3l-.9-.3.4-.6.5-.6c.3-.4.7-.7 1.1-1 .4-.3.8-.6 1.2-.8.4-.2.9-.4 1.3-.6.5-.2.9-.3 1.4-.4.5-.1 1-.1 1.5-.2.5 0 1 0 1.5.1l.7.1.7.2.7.3.7.3c.4.2.8.5 1.2.8.4.3.7.6 1 1 .3.4.6.7.9 1.1.3.4.5.8.7 1.3.2.4.3.9.5 1.3.1.5.2.9.2 1.4l.3.7.2.7v-.7l-.3-.7c-.1-.5-.3-.9-.4-1.4-.1-.4-.4-.9-.6-1.3-.2-.4-.5-.8-.8-1.2-.3-.4-.6-.7-.9-1.1-.3-.3-.7-.6-1-.9-.4-.3-.8-.5-1.2-.7l-.6-.3-.7-.2-.6-.2-.7-.1h-1.4c-.5 0-.9.1-1.3.2s-.9.2-1.3.4l-1.2.6c-.4.2-.7.5-1.1.8-.3.3-.7.6-.9.9l-.4.5-.4.6-1.2 2 .3-2.3c.2-1.4.3-2.8.3-4.2 0-.7 0-1.4-.1-2.1-.1-.7-.2-1.3-.4-2-.2-.6-.4-1.3-.8-1.8-.3-.5-.8-1-1.3-1.4-.2-.2-.5-.3-.8-.5-.1-.1-.4-.2-.4-.2-.1 0-.3-.1-.4-.1-.6-.1-1.3-.2-1.9-.1-.7.1-1.3.2-2 .4-.6.2-1.3.4-1.9.7-1.3.5-2.5 1.1-3.7 1.9-2.4 1.4-4.5 3.2-6.3 5.3l-2 2.4.5-3.2.1-.9v-.9c-.1-.3-.1-.6-.2-.9l-.3-.9c-.5-1.1-1.4-2.1-2.4-2.9-1-.8-2.2-1.3-3.5-1.6-.6-.1-1.3-.2-1.9-.2-.3 0-.5 0-.9.1l-.5.1-.3.1h-.1.1-.1c-.6.2-1.2.5-1.7.8-.5.3-1.1.7-1.5 1.2-1 .9-1.7 2-2.4 3.1-.3.6-.6 1.2-.8 1.8-.2.6-.4 1.3-.5 1.9-.1.7-.2 1.3-.3 2v2l-2 .1c0-.9-.4-1.8-1-2.5-.3-.4-.7-.7-1.1-.9l-.6-.3-.3-.1-.4-.1c-.9-.2-1.8 0-2.6.5s-1.5 1.2-1.8 2l-1 2.6-.8-2.7-1.5-5.1 1.7.2c-1.9 3-3.3 6.4-4.2 9.8l-.7 3.1-.9-3c-.4-1.4-.8-2.7-1.4-4-.3-.6-.5-1.3-.9-1.9-.3-.6-.7-1.2-1.1-1.7l-.3-.4-.3-.4c-.2-.2-.4-.5-.7-.7-.5-.4-1-.8-1.6-1.2-1.1-.7-2.4-1.1-3.7-1h-.4c-.1 0-.3.1-.5.1l-.9.3c-.3.1-.6.3-.8.4-.2.2-.5.3-.8.6-.2.2-.5.4-.7.7-.2.2-.4.5-.6.8-.4.5-.7 1.2-.9 1.8-1 2.5-1.3 5.4-1.4 8.2l-1.1.1-.1-.8-.2-.7c-.2-.5-.4-1-.6-1.4-.3-.5-.5-.9-.9-1.3-.3-.4-.7-.8-1.1-1.1-.2-.2-.4-.3-.6-.5-.2-.2-.4-.3-.7-.5-.4-.3-.9-.5-1.4-.7-.5-.2-1-.4-1.5-.5-.5-.1-1-.2-1.6-.3h-1.6c-.5.1-1.1.2-1.6.3-1 .3-2 .9-2.7 1.6-.4.4-.7.8-.9 1.3-.2.5-.3 1-.3 1.6.4 2 .8 3.1 1.6 3.8z" id="path690" fill="#fff"/></g><g id="g692"><path class="st1" d="M1256.6 773.3l-.5-.4c-.1-.2-.3-.3-.4-.5-.2-.4-.4-.8-.5-1.3-.2-.9 0-1.8.3-2.7.3-.8.9-1.6 1.6-2.2.7-.6 1.6-1 2.6-1 .9 0 1.9.2 2.7.7.8.5 1.5 1.1 2.1 1.8.6.7 1 1.6 1.3 2.5.1.4.2.9.3 1.4l.1.7v.7l-.1 2.6-.6-2.5-.2-.9-.1-.9v-1l.1-.9.2-.9.3-.9.4-.9.4-.8.5-.8.6-.7.7-.7.7-.6.8-.5.8-.4.9-.3 1-.2.9-.1h1l1 .1.9.2.9.3.9.4.8.5.8.5.7.6.7.7.6.7.5.8.5.8.4.9.3.9.2 1h-1c.1-1.4.2-2.8.5-4.2.3-1.4.6-2.7 1.2-4.1.1-.3.3-.6.5-1l.6-.9c.4-.6.9-1.1 1.5-1.6.6-.4 1.2-.8 2-1 .7-.3 1.4-.4 2.2-.3 1.5 0 2.9.6 4.1 1.3.6.4 1.2.8 1.7 1.4.5.5 1 1.1 1.3 1.7 1.6 2.4 2.3 5.1 3 7.8h-.6c.4-1.6 1-3.1 2-4.5.5-.7 1.1-1.3 1.7-1.8.7-.5 1.4-.8 2.2-1 .4-.1.8-.1 1.2-.1.4 0 .8.1 1.2.3.4.1.7.3 1.1.6.3.2.6.5.9.8.3.3.5.6.7 1 .2.4.3.7.4 1.1.1.4.1.8 0 1.2-.1.2-.1.4-.2.6l-.3.5.3-.5c.1-.2.1-.4.2-.6.1-.4.1-.8 0-1.2-.1-.4-.2-.8-.4-1.1-.2-.3-.4-.7-.7-.9-.3-.3-.6-.5-.9-.7-.3-.2-.7-.4-1-.5-.4-.1-.7-.2-1.1-.2-.3 0-.8 0-1.1.1-.7.2-1.4.5-2.1 1-.6.5-1.1 1.1-1.6 1.7-.9 1.3-1.5 2.8-1.8 4.3l-.3 1.2-.3-1.2-1.2-3.9c-.5-1.3-1.1-2.5-1.8-3.6-.4-.6-.8-1.1-1.3-1.5-.5-.5-1-.9-1.5-1.2-1.1-.7-2.4-1.2-3.7-1.2-.6 0-1.3.1-1.9.3-.6.2-1.2.5-1.7.9s-.9.9-1.3 1.4c-.4.5-.7 1.1-1 1.7-.5 1.2-.9 2.5-1.1 3.8-.2 1.3-.4 2.7-.4 4l-.3 4.7-.7-4.7-.1-.8-.2-.8-.3-.8-.4-.8-.5-.7-.5-.7-.6-.6-.7-.6-.7-.5-.8-.4-.8-.3-.8-.3-.8-.2-.9-.1h-.8l-.9.1-.8.2-.8.3-.8.4-.7.5-.7.5-.6.6-.6.7-.5.7-.4.8-.4.8-.3.8-.2.9-.1.9v.9l.1.9.2.9-.7.1v-1.2c-.1-.4-.1-.8-.3-1.3-.2-.8-.6-1.6-1.1-2.3-.5-.7-1.1-1.3-1.9-1.7-.8-.4-1.5-.7-2.4-.7-.8 0-1.7.3-2.4.8s-1.2 1.3-1.6 2.1c-.3.8-.5 1.7-.4 2.6.1.4.2.9.4 1.2.1.2.3.4.4.5h.1z" id="path694" fill="#fff"/></g><g id="g696"><path class="st1" d="M1191 771.2l-.4-.6-.3-.6-.1-.7v-.7l.1-.7.2-.7.2-.6.3-.6.4-.6.5-.5.5-.5.6-.4.6-.3.7-.2.7-.1.7.1h.1v.1c2 3.1 3.2 6.7 3.4 10.4h-.6c.3-2 .6-4.1 1.7-6 .5-.9 1.3-1.7 2.2-2.3.9-.6 2-.9 3.2-.7.3 0 .6.1.8.2l.2.1c.1.1.1.1.2.1l.3.2c.2.1.5.3.7.5l.6.6c.7.9 1.1 1.9 1.4 2.8.4 1 .7 1.9 1.1 2.8.2.4.4.9.7 1.2.1.2.3.4.5.5.2.2.3.3.5.4l-.7.5c-.4-1.5-.8-3.1-1-4.7-.2-1.6-.3-3.2 0-4.9.3-1.6 1-3.2 2-4.5 1-1.3 2.5-2.3 4.3-2.6h1.2c.5 0 .9.1 1.3.2.8.2 1.6.6 2.3 1.1 1.4 1 2.5 2.3 3.2 3.8.7 1.5 1.1 3.1 1.2 4.7.2 1.6.2 3.2.2 4.8h-.9c.1-1.1.2-2.3.4-3.4s.6-2.3 1.2-3.3c.1-.1.2-.3.2-.4.1-.1.1-.2.3-.4.2-.3.4-.5.6-.7.4-.4.9-.8 1.5-1.1 1.1-.6 2.4-.8 3.6-.5.2 0 .3.1.4.2h.2l.2.1c.2.1.5.3.7.5.1.1.2.2.4.3l.3.4c.2.2.3.5.5.8.3.5.4 1.1.6 1.7.1.6.2 1.1.3 1.7.2 1.1.3 2.3.5 3.4.1.5.3 1.1.4 1.6.1.3.2.5.3.8l.4.7h-.4c1.6-2.5 4.3-4.1 7.2-4.5h.1v.1c1.4 3 1.7 6.4.8 9.6.4-1.6.5-3.2.3-4.8-.2-1.6-.6-3.2-1.4-4.6l.2.1c-2.8.4-5.3 2.1-6.8 4.4l-.2.4-.2-.3-.5-.8c-.1-.3-.3-.5-.4-.8-.2-.6-.4-1.1-.5-1.7-.2-1.1-.4-2.3-.5-3.4-.1-.6-.2-1.1-.3-1.7-.1-.5-.3-1.1-.5-1.5-.1-.2-.2-.5-.4-.7l-.2-.3c-.1-.1-.2-.2-.3-.2-.2-.2-.4-.3-.7-.5l-.2-.1c.1 0 0 0 0 0h-.1c-.1 0-.2-.1-.4-.1-1-.3-2.1-.1-3 .5-.5.3-.9.6-1.3.9-.2.2-.4.4-.5.6-.1.1-.2.2-.2.3-.1.1-.1.2-.2.3-1.1 1.9-1.3 4.2-1.4 6.4h-.9c0-1.6 0-3.2-.2-4.7s-.5-3-1.2-4.4c-.6-1.4-1.6-2.6-2.9-3.4-.6-.4-1.3-.7-2-.9-.3-.1-.7-.2-1.1-.2h-1.2c-1.4.2-2.7 1.1-3.7 2.2-.9 1.2-1.6 2.6-1.8 4.1-.3 1.5-.2 3.1 0 4.6.2 1.5.6 3.1 1 4.6l.3 1.3-1-.9c-.2-.2-.4-.4-.6-.5-.2-.2-.4-.4-.5-.6-.3-.4-.6-.9-.8-1.4-.4-1-.8-1.9-1.1-2.9-.3-.9-.7-1.9-1.3-2.6-.1-.2-.3-.4-.5-.5-.2-.1-.3-.3-.5-.4l-.3-.2-.1-.1-.2-.1c-.2-.1-.4-.1-.7-.2-.9-.1-1.9.1-2.7.6-.8.5-1.5 1.2-2 2-1 1.7-1.4 3.7-1.7 5.7l-.5 2.9-.1-2.9c-.1-1.8-.4-3.6-.9-5.3-.5-1.7-1.3-3.4-2.2-5l.1.1-.6-.1h-.6l-.6.2-.6.3-.6.3-.5.4-.5.5-.4.5-.3.6-.3.6-.2.6-.1.7v.7l.1.7.2.6.5.9z" id="path698" fill="#fff"/></g><g id="g700"><path class="st1" d="M1141.3 766.7l.2-.7c.1-.2.2-.4.4-.6l.5-.5c.2-.2.4-.3.6-.5.2-.1.4-.3.6-.4l.7-.3.7-.2.7-.1h.7l.7.1.7.2c.2.1.5.2.7.3.2.1.4.3.7.4.2.2.4.3.6.5l.5.6.3.7-.9.3c-.3-.9-.1-2 .3-2.8.5-.8 1.2-1.5 2.2-1.9l.3-.1.4-.1h.7c.5.1 1 .2 1.4.4.9.4 1.6 1.2 1.9 2.1h-.9c.3-1.1 1.1-2 2-2.6.5-.3 1-.5 1.5-.6.3-.1.5-.1.8-.1.3 0 .5 0 .8.1.2 0 .5.1.8.2.3.1.5.2.7.4.5.3.8.7 1.2 1.1.3.4.6.9.7 1.4.2.5.2 1 .2 1.5 0-.3-.1-.5-.1-.7-.1-.2-.2-.5-.3-.7-.2-.5-.5-.9-.8-1.2-.3-.4-.7-.6-1.2-.9-.2-.1-.4-.2-.7-.3-.2-.1-.4-.1-.7-.1h-.7c-.2 0-.5.1-.7.1-.4.1-.9.3-1.3.6s-.7.6-1 1c-.3.4-.5.8-.6 1.2l-.4 1.4-.5-1.4c-.3-.7-.8-1.2-1.5-1.6-.3-.2-.7-.3-1-.3h-.7l-.3.1c-.7.2-1.3.7-1.6 1.4-.4.6-.5 1.4-.3 2.1l-.9.3-.3-.6-.4-.5-.4-.4-.5-.4-.6-.3-.6-.2-.7-.1h-1.4l-.7.1-.7.2-.6.3-.6.4-.5.5-.4.6.3.6z" id="path702" fill="#fff"/></g><path class="st12" d="M1712.9 919c-.2-8.5-8.1-16.3-17.3-17-9.2-.7-18.3 5.8-20 14.2-13.5-10.9-35.9-10.8-49.2.4-12.6-8.2-26.1-16.7-41.5-17-15.3-.3-31.8 11.9-28.9 25.9-10.4-9.3-21.9-19.1-36.3-20.8-14.4-1.7-31.1 9.4-28 22.6.3-10.4-17.5-15.7-23.8-7.1-10-8.6-24.4-12.4-37.8-10.1-.9 3.4 0 7.1 2.4 9.8-1.5-7.1-8.4-12.8-16.1-13.6-7.7-.7-15.7 3.6-18.7 10.3-8.7-5.3-17.9-10.8-28.3-11.1-10.4-.2-21.7 7.3-20.7 16.9-8.1-8.1-23.2-9.1-32.5-2.1s-11.2 21-4.2 30c-26.4 1.5-35.7-35.4-60.6-43.5-10-3.3-25 3.8-21.1 13 1.6-6.7-4-14.1-11.3-15-7.3-.9-14.8 4.9-15.1 11.8-15.3-2.7-30.6-5.4-46-7.5-9.9-1.3-21.1-1.9-28.5 4.3-7.4 6.2-3.8 21.2 6.1 20.1-10-5.8-21.4-11.8-32.8-9.3-11.5 2.5-18.4 18.7-8.3 24.4-14.4 3.1-29.6-1.3-44.2 1-14.6 2.3-29 17.4-20.6 28.8l-24-3.3c-7.1 16-1 36.1 14.1 46.3-10.5 15.4-6.9 37.7 7.9 49.6 3.9 3.2 8.6 5.8 11.3 9.9 2.7 4.1 2.9 9.2 4.8 13.7 7.2 17.6 33 19.2 53.2 17.7 113.7-8.1 227.4-16.2 341.1-24.4 61.2-4.4 122.5-8.8 183.3-16.5 35.6-4.5 71-10.2 106.2-17 4.2-.8 8.8-1.8 11.7-4.7 3-3 3.8-7.3 4.4-11.3 5.6-43.3-5.9-88.4-31.8-124.8" id="path704" fill="#00bbd6"/><path class="st16" d="M1719.5 922c-.2-8.5-8.2-16.3-17.4-17-9.2-.7-18.5 5.8-20.2 14.2-13.6-10.9-36.1-10.8-49.6.4-12.6-8.2-26.3-16.7-41.7-17-15.4-.3-32 11.9-29.1 25.9-10.5-9.3-22.1-19.1-36.5-20.8-14.5-1.7-31.3 9.4-28.2 22.6.3-10.4-17.7-15.7-23.9-7.1-10.1-8.6-24.6-12.4-38.1-10.1-.9 3.4 0 7.1 2.4 9.8-1.5-7.1-8.4-12.8-16.2-13.6-7.8-.8-15.8 3.6-18.8 10.3-8.7-5.3-18.1-10.8-28.5-11.1-10.5-.2-21.8 7.3-20.8 16.9-8.2-8.1-23.4-9.1-32.7-2.1-9.3 7-11.3 21-4.2 30-26.5 1.5-35.9-35.4-61-43.5-10.1-3.3-25.1 3.8-21.2 13 1.6-6.7-4-14.1-11.4-15-7.4-.9-14.9 4.9-15.2 11.8-15.4-2.7-30.8-5.4-46.3-7.5-9.9-1.3-21.3-1.9-28.7 4.3-7.4 6.2-3.8 21.2 6.2 20.1-10-5.8-21.5-11.8-33-9.3s-18.5 18.7-8.4 24.4c-14.5 3.1-29.8-1.3-44.5 1s-29.2 17.4-20.8 28.8c-8.1-1.1-16.1-2.2-24.2-3.3-7.2 16-1 36.1 14.2 46.3-10.5 15.4-7 37.7 7.9 49.6 4 3.2 8.7 5.8 11.3 9.9 2.7 4.1 3 9.2 4.8 13.7 7.3 17.6 33.2 19.2 53.6 17.7 114.4-8.1 228.8-16.2 343.3-24.4 61.6-4.4 123.3-8.8 184.5-16.5 35.8-4.5 71.5-10.2 106.9-17 4.3-.8 8.8-1.8 11.8-4.7 3.1-3 3.9-7.3 4.4-11.3 5.6-43.3-5.9-88.4-32.1-124.8" id="path706" fill="#03293c"/><g id="g708"><path class="st12" d="M1156.1 1034.8l-.4-2-.1-2 .1-2 .3-2 .5-2 .6-1.9.8-1.8 1-1.8 1.1-1.7 1.3-1.6 1.4-1.4 1.5-1.3 1.7-1.2 1.8-1 1.9-.8 2-.6 2-.3 2.1-.1 2 .1 2 .3 2 .5 1.9.7 1.9.8 1.8 1 1.7 1.2 1.6 1.3 1.5 1.4 1.3 1.6 1.2 1.7 1 1.8.8 1.9.6 2-1 .3-.9-2.5-.6-2.6-.3-2.6v-2.6l.3-2.6.5-2.6.8-2.5 1-2.4 1.2-2.3 1.4-2.2 1.6-2.1 1.8-1.9 2-1.7 2.2-1.5 2.3-1.2 2.5-1 2.5-.6 2.7-.4 2.7-.1 2.6.2 2.6.5 2.5.7 2.5 1 2.4 1.2 2.3 1.4 2.1 1.6 2 1.8 1.8 2 1.6 2.1 1.3 2.3 1.1 2.4.8 2.6-1.9.7-.8-2c-.2-.7-.3-1.4-.5-2.1 0-.7-.1-1.4-.1-2.1.1-.7.1-1.4.2-2.1.2-.7.3-1.4.5-2 .3-.6.4-1.3.7-1.9.6-1.3 1.3-2.4 2.1-3.5s1.8-2.1 2.8-3c.5-.4 1.1-.9 1.6-1.3.6-.4 1.1-.8 1.8-1.1.6-.3 1.2-.6 1.9-.9.7-.2 1.3-.5 2-.6.7-.1 1.4-.3 2.1-.4.7 0 1.4-.1 2.1-.1.7.1 1.3.1 2 .2s1.4.2 2.1.4c.7.2 1.3.4 2 .6.6.3 1.3.5 1.9.8 1.2.6 2.4 1.3 3.5 2.1s2.1 1.7 3.1 2.7c1 1 1.8 2 2.6 3.1.4.6.8 1.1 1.1 1.7.3.6.7 1.2 1 1.8l.9 1.8.8 1.9.6 1.9.5 2-2.5.3v-3.7l.4-3.6.8-3.6 1.2-3.4 1.6-3.3 1.9-3.1 2.2-2.9 2.4-2.7 2.7-2.5 2.9-2.2 3.1-1.9 3.3-1.6 3.4-1.2 3.6-.9 3.6-.5h3.8l3.5.4 3.6.9 3.4 1.3 3.3 1.6 3.1 1.9 2.9 2.2 2.6 2.5 2.4 2.7 2.1 2.9 1.8 3.1 1.5 3.3 1.2 3.4.8 3.6.5 3.6v3.7l-.4 3.7-1.1 10-1.7-10-.2-1.4-.1-1.4.1-1.4.3-1.4.5-1.3.6-1.3.7-1.2.8-1.1.9-1 1-.9 1.1-.8 1.2-.7 1.3-.5 1.4-.4 1.4-.2h1.1l.2-.1.1-.1.1.1 1.2.2c.5.1 1 .3 1.5.4l1.3.5 1.2.7 1.1.8 1 .9.9 1 .8 1.1.7 1.2.6 1.2.5 1.3.3 1.4.2 1.4v1.4l-.2 1.4-.4 1.4-2.9-.7.6-2.8.8-2.7 1.1-2.6 1.3-2.5 1.5-2.3c.6-.7 1.1-1.5 1.7-2.2.6-.7 1.3-1.4 1.9-2.1.7-.6 1.4-1.3 2.1-1.9.7-.6 1.5-1.1 2.2-1.7.8-.5 1.6-1 2.3-1.5.8-.5 1.7-.9 2.5-1.3s1.7-.7 2.6-1.1c.9-.3 1.8-.5 2.7-.8.9-.2 1.8-.4 2.8-.5.9-.1 1.9-.2 2.8-.2.9 0 1.9 0 2.8.1h.7l.7.1 1.3.2c.9.2 1.9.5 2.8.7.9.3 1.8.7 2.6 1 .8.4 1.7.9 2.5 1.3.8.5 1.6 1 2.3 1.6.7.6 1.4 1.2 2.2 1.8.7.6 1.3 1.3 2 2 .6.7 1.2 1.4 1.8 2.2.6.8 1 1.6 1.6 2.3.5.8.9 1.6 1.3 2.5.4.9.7 1.7 1.1 2.6.3.9.5 1.8.8 2.7.2.9.3 1.9.5 2.8.1.9.1 1.9.1 2.8l-.2 2.8-.6 2.8-2.7-.6 1-4.4 1.4-4.3 1.7-4.2 2-4 2.3-3.8c.9-1.2 1.8-2.4 2.6-3.7.9-1.2 1.9-2.3 2.9-3.4s2.1-2.1 3.1-3.2c1.1-1 2.3-2 3.4-3l3.6-2.7c1.3-.8 2.6-1.6 3.8-2.4 1.3-.7 2.7-1.4 4-2.1 1.4-.6 2.8-1.1 4.2-1.7 1.4-.5 2.9-.9 4.3-1.3 1.5-.3 3-.6 4.4-.9 1.5-.2 3-.3 4.5-.4h2.2c.7 0 1.5.1 2.3.1.8.1 1.5.1 2.3.2.7.1 1.5.2 2.2.3 3 .5 5.9 1.3 8.7 2.4 5.6 2.2 10.8 5.4 15.2 9.5 4.4 4 8.1 8.9 10.7 14.4 2.5 5.4 3.9 11.5 3.6 17.5l-1.8-.3c1.3-4.5 2.8-9 4.8-13.3 1-2.1 2.3-4.2 3.7-6.1.7-.9 1.5-1.9 2.4-2.7.9-.8 1.8-1.6 2.8-2.3l.2-.1.1-.1.1-.1.4-.2.7-.5c.5-.3 1.1-.5 1.7-.8 1.2-.5 2.3-.8 3.5-1 1.2-.2 2.4-.3 3.6-.3 1.2 0 2.4.2 3.6.4.6.1 1.2.3 1.8.5.6.2 1.1.4 1.7.7 1.1.5 2.2 1.2 3.1 2 .5.4.9.9 1.3 1.3.4.5.7 1 1.1 1.5.3.5.5 1.1.8 1.7l.5 1.8h-1.2l.4-2 .6-1.9.7-1.9.9-1.8 1-1.7 1.2-1.6 1.3-1.5 1.4-1.4 1.5-1.3 1.6-1.2 1.7-1 1.8-.9 1.9-.7 1.9-.6 2-.4 2-.2h2l2 .2 2 .3 1.9.5 1.9.7 1.8.8 1.8 1 1.7 1.1 1.6 1.2 1.5 1.3 1.4 1.5 1.2 1.6 1.1 1.7 1 1.7.8 1.8.6 1.9h-.2l-.5-10.1.7 10.1.1.8-.3-.7-.7-1.9-.8-1.8-1-1.7-1.1-1.6-1.3-1.5-1.4-1.4-1.5-1.3-1.6-1.2-1.7-1-1.7-.9-1.8-.8-1.9-.6-1.9-.5-1.9-.3-1.9-.1-2 .1-1.9.2-1.9.4-1.8.6-1.8.7-1.7.9-1.6 1-1.6 1.2-1.5 1.3-1.3 1.4-1.2 1.5-1.1 1.6-1 1.7-.8 1.7-.7 1.8-.5 1.9-.3 1.9-.5 2.7-.7-2.7-.4-1.6c-.2-.5-.4-1-.7-1.5-.3-.4-.6-.9-1-1.3s-.7-.8-1.2-1.1c-.8-.7-1.8-1.3-2.8-1.7-.5-.2-1-.5-1.6-.6-.5-.2-1.1-.3-1.6-.4-1.1-.2-2.2-.3-3.3-.3-1.1 0-2.2.1-3.3.3-1.1.2-2.2.5-3.2.9-.5.2-1 .4-1.5.7l-.7.5-.4.2-.1.1-.2.1c-.9.7-1.8 1.4-2.6 2.2-.8.8-1.5 1.7-2.2 2.6-1.4 1.8-2.5 3.8-3.5 5.8-2 4.1-3.3 8.6-4.6 13l-2 7 .2-7.3c.2-5.7-1.1-11.4-3.6-16.6-2.5-5.2-6-9.8-10.3-13.6-4.3-3.8-9.2-6.9-14.6-8.9-2.7-1-5.4-1.8-8.2-2.2l-2.1-.3c-.7-.1-1.4-.1-2.1-.2-.7 0-1.4-.1-2.1-.1-.7 0-1.5 0-2.2.1-1.4.2-2.8.3-4.3.4-1.4.3-2.8.5-4.2.8-1.4.4-2.7.8-4.1 1.2-1.3.5-2.7 1-4 1.6-1.3.7-2.6 1.3-3.8 2-1.2.8-2.4 1.5-3.6 2.3-1.1.9-2.3 1.7-3.4 2.6-1.1.9-2.2 1.9-3.2 2.8-1 1-2 2-3 3.1-.9 1.1-1.9 2.2-2.8 3.3-.8 1.2-1.7 2.3-2.5 3.5l-2.2 3.7-1.9 3.8-1.6 4-1.3 4.1-1 4.2-2.7-.6.5-2.4.2-2.5-.1-2.5c-.1-.8-.3-1.6-.4-2.5-.2-.8-.4-1.6-.7-2.4-.3-.8-.6-1.6-1-2.3-.4-.7-.8-1.5-1.2-2.2-.5-.7-.9-1.4-1.4-2.1-.5-.6-1.1-1.3-1.6-1.9l-1.8-1.8c-.7-.5-1.3-1.1-2-1.6s-1.4-.9-2.1-1.4c-.7-.4-1.5-.8-2.2-1.2-.8-.3-1.6-.6-2.3-.9-.8-.2-1.5-.4-2.3-.6l-1.3-.2-.7-.1h-.5v-.2s-.1-.2.1-.2l-.1.2h-2.5c-.8.1-1.7.2-2.5.3-.8.2-1.7.3-2.5.5-.8.3-1.6.5-2.4.8-.8.3-1.6.6-2.3 1-.7.4-1.5.8-2.2 1.2-.7.5-1.4.9-2.1 1.4-.7.5-1.4 1-2 1.6-.6.6-1.3 1.1-1.9 1.7-.6.6-1.2 1.2-1.7 1.9l-1.6 2-1.4 2.1-1.2 2.2-1 2.3-.8 2.4-.5 2.5-2.9-.7.3-1 .1-1v-1.1l-.1-1.1-.3-1-.4-1-.5-1-.6-.9-.7-.9-.7-.8-.8-.7-.9-.6-.9-.5-1-.4c-.3-.1-.6-.2-.9-.2l-1.2-.2h.1-1l-1 .2-1 .3-1 .4-.9.5-.9.6-.8.7-.7.8-.7.9-.6.9-.5 1-.4 1-.2 1-.1 1v1l.2 1-2.8.1.4-3.3v-3.3l-.4-3.3-.8-3.3-1.1-3.2-1.4-3.1-1.7-2.9-2-2.7-2.2-2.5-2.4-2.3-2.7-2.1-2.8-1.8-3-1.5-3.1-1.2-3.2-.8-3.5-.4h-3.3l-3.3.4-3.3.8-3.2 1.1-3 1.5-2.9 1.8-2.7 2-2.5 2.3-2.3 2.5-2 2.7-1.8 2.9-1.5 3-1.1 3.2-.8 3.3-.4 3.3v14.5l-2.5-10.8-.4-1.8-.6-1.8-.7-1.7c-.3-.6-.5-1.1-.8-1.7-.3-.6-.6-1.1-.9-1.6-.3-.5-.7-1-1-1.6-.7-1-1.5-2-2.4-2.9-.9-.9-1.8-1.7-2.8-2.5-1-.7-2-1.4-3.1-1.9-.5-.3-1.1-.5-1.7-.7-.6-.2-1.2-.4-1.7-.6-.6-.2-1.2-.2-1.7-.4-.6-.1-1.3-.1-1.9-.2-.5 0-1.2 0-1.7.1-.6 0-1.2.2-1.8.3-.6.1-1.1.4-1.7.5-.6.2-1.1.5-1.7.7-.6.3-1 .6-1.6.9-.5.3-1 .7-1.5 1.1-.9.8-1.8 1.7-2.5 2.6-.8 1-1.4 2-1.9 3.1-.3.5-.4 1.1-.7 1.7-.2.6-.3 1.2-.4 1.7-.1.6-.1 1.2-.2 1.8 0 .6.1 1.2.1 1.8.1.6.3 1.2.4 1.7l.7 1.6-1.9.7-.7-2.3-1-2.3-1.2-2.1-1.4-2-1.6-1.8-1.8-1.7-2-1.5-2.1-1.3-2.2-1.1-2.3-.9-2.4-.7-2.4-.5-2.5-.2h-2.5l-2.4.3-2.5.6-2.3.9-2.2 1.1-2.1 1.4-1.9 1.6-1.7 1.8-1.6 1.9-1.4 2.1-1.2 2.2-1 2.3-.8 2.4-.5 2.4-.3 2.5v2.5l.2 2.5.5 2.5.8 2.4-1 .3-.5-1.9-.7-1.8-.9-1.7-1.1-1.6-1.2-1.5-1.4-1.4-1.5-1.3-1.6-1.1-1.7-1-1.8-.8-1.8-.7-1.9-.5-1.9-.3-2-.1-1.9.1-2 .3-1.9.5-1.8.7-1.7.9-1.6 1.1-1.5 1.3-1.4 1.4-1.3 1.5-1.1 1.6-1 1.7-.8 1.8-.7 1.9-.5 1.9-.3 2-.1 2 .1 2 .7 2.3z" id="path710" fill="#00bbd6"/></g><g id="g712"><path class="st12" d="M1062.5 1027.4l-.7-1.3-.6-1.4-.4-1.5-.3-1.5-.1-1.5v-1.5l.1-1.5.3-1.5.4-1.5.5-1.5.7-1.4.8-1.3.9-1.3 1-1.2 1.2-1.1 1.3-.9 1.3-.8 1.5-.7 1.5-.5 1.6-.3 1.6-.2h1.6l1.6.1 1.6.2 1.6.4 1.5.5 1.5.6 1.4.8 1.3.9 1.2 1 1.1 1.2 1 1.3-2.1.8c-.3-1.6-.5-3.2-.7-4.8-.2-1.6-.4-3.3-.5-4.9-.1-1.6-.2-3.3-.1-5 0-.8 0-1.7.1-2.5l.1-1.3.2-1.3c.2-1.7.6-3.3 1.2-5 .3-.8.6-1.6 1-2.4l.6-1.2.7-1.1c.4-.8 1-1.4 1.5-2.1 0-.1 0 0 .1-.2l.1-.1.2-.2.4-.5c.2-.3.6-.6.9-.9 1.3-1.2 2.7-2.2 4.2-3.1 3-1.7 6.4-2.7 9.8-3 1.7-.1 3.4-.1 5.1.1l1.3.2 1.2.2c.8.2 1.7.4 2.5.7 6.5 2 12.1 6.3 16.3 11.5l-2.3 1.5c-1.3-2.7-1.4-5.8-.5-8.5.8-2.7 2.5-5.1 4.6-6.9 1-.9 2.3-1.7 3.6-2.2.6-.2 1.3-.5 2-.7.7-.2 1.3-.3 2-.5 2.7-.4 5.4-.3 8 .2 1.3.3 2.6.6 3.8 1 .6.2 1.2.4 1.9.7l.5.2.5.2.9.4c1.2.6 2.4 1.3 3.4 2 1.1.7 2.1 1.6 3.1 2.5.5.4.9 1 1.4 1.4.4.5.9 1 1.2 1.6.8 1.1 1.4 2.2 1.9 3.4.5 1.2.9 2.5 1 3.8.2 1.3 0 2.6-.2 3.9h-.3l.7-3.9-.4 4h-.3c.1-1.3.2-2.5 0-3.8-.2-1.2-.6-2.4-1.1-3.6-.6-1.1-1.2-2.2-2-3.1-.4-.5-.8-.9-1.2-1.4-.5-.4-.9-.9-1.4-1.3-1-.8-2-1.6-3-2.2-1.1-.7-2.2-1.2-3.3-1.8l-.9-.4-.4-.2-.4-.2-1.8-.6c-1.2-.4-2.4-.6-3.6-.8-2.4-.4-4.9-.4-7.3.1-.6.1-1.2.3-1.7.5-.3.1-.6.2-.8.3-.3.1-.5.2-.8.4-1.1.5-2.1 1.1-2.9 1.9-1.7 1.6-3.1 3.6-3.7 5.8-.7 2.2-.5 4.6.5 6.5l5.4 10.6-7.7-9.1c-2-2.4-4.3-4.5-6.8-6.3-2.5-1.8-5.3-3.2-8.2-4.1-.7-.2-1.4-.4-2.2-.6l-1.1-.2-1.1-.1c-1.5-.2-3-.2-4.5 0-3 .3-6 1.1-8.6 2.6-1.3.7-2.5 1.6-3.6 2.6l-.8.8-.4.5-.2.2-.1.1v.1c-.4.6-.9 1.2-1.3 1.8l-.6 1c-.2.3-.3.7-.5 1-.4.7-.6 1.4-.9 2.1-.5 1.4-.9 2.9-1.1 4.4l-.2 1.1-.1 1.2c-.1.8-.1 1.6-.2 2.3-.1 1.6 0 3.1 0 4.7.2 3.2.5 6.4.9 9.5l.6 4.5-2.7-3.7-.8-1.1-.9-1-1-.9-1.1-.8-1.2-.7-1.3-.6-1.3-.5-1.4-.4-1.4-.3-1.4-.1h-1.4l-1.4.1-1.4.2-1.4.4-1.3.5-1.3.7-1.2.8-1.1.9-1 1-.9 1.1-.8 1.2-.7 1.3-.6 1.4-.5 1.4-.3 1.4-.2 1.5-.1 1.5v1.5l.2 1.5.3 1.5.5 1.4-.4 1.4z" id="path714" fill="#00bbd6"/></g><g id="g716"><path class="st12" d="M1536.6 958.4l-.6-1.6c-.1-.6-.2-1.1-.3-1.7 0-.6-.1-1.1-.1-1.7.1-.6.1-1.2.2-1.7.1-.6.2-1.1.4-1.7.2-.5.4-1.1.6-1.6.3-.5.5-1.1.8-1.6l.9-1.5c.4-.5.7-.9 1.1-1.4.4-.4.8-.9 1.2-1.3.4-.4.9-.8 1.3-1.2.5-.3.9-.7 1.4-1 .5-.3 1-.6 1.6-.9.5-.2 1.1-.5 1.6-.7.6-.2 1.1-.4 1.7-.5l1.8-.3c.6 0 1.1-.1 1.7-.1.6 0 1.2 0 1.8.1l1.8.3c.6.2 1.2.3 1.7.5.6.2 1.1.4 1.7.6.5.3 1.1.5 1.6.8l1.5.9c.5.3 1 .7 1.5 1 .5.4.9.7 1.4 1.1.4.4.9.8 1.3 1.2.4.4.8.9 1.2 1.3.4.5.8.9 1.1 1.4l1 1.5.9 1.5.8 1.6.7 1.7-2.5.4.1-1.9.3-1.9c.2-.6.3-1.2.5-1.8.2-.6.5-1.2.7-1.7.3-.5.6-1.1.9-1.7.4-.5.7-1 1.1-1.5.4-.5.8-1 1.2-1.4l1.3-1.3c.5-.4.9-.8 1.4-1.2.5-.4 1-.7 1.5-1 .5-.3 1.1-.6 1.6-.9.6-.3 1.1-.5 1.7-.8l1.8-.6c.6-.1 1.2-.3 1.8-.4.6-.1 1.2-.2 1.9-.3.7 0 1.2-.1 2-.1l1.8.1c.6.1 1.3.2 1.9.3.6.1 1.2.3 1.8.4l1.8.6c.6.2 1.2.5 1.7.7.5.3 1.1.6 1.6.9.5.3 1.1.6 1.6 1s1 .7 1.5 1.1c.5.4 1 .8 1.4 1.2.4.4.9.8 1.3 1.3l1.2 1.4 1.1 1.4 1 1.5.9 1.6.8 1.6.7 1.7-2.7.2c.4-1.5 1-2.9 1.9-4.1.9-1.2 1.9-2.3 3-3.3 1.2-.9 2.4-1.7 3.8-2.3 1.3-.6 2.7-1 4.2-1.3 1.4-.3 2.9-.3 4.4-.2l1.1.1h.3l.3.1.5.1c.6.1 1.4.4 2.1.6 2.7 1 5.2 2.6 7.3 4.5 2.1 1.9 3.8 4.2 5.1 6.7.6 1.2 1.2 2.6 1.6 3.8.5 1.3.8 2.7 1 4.1.5 2.7.7 5.5.6 8.2-.1 2.7-.4 5.5-.9 8.1h-.3l.4-4-.1 4h-.3c.3-2.7.4-5.4.3-8.1-.1-2.7-.4-5.4-1.1-7.9-.3-1.3-.7-2.6-1.2-3.8-.5-1.3-1-2.4-1.7-3.6-1.3-2.3-3-4.3-4.9-6-1.9-1.7-4.2-3-6.6-3.8-.6-.2-1.1-.3-1.8-.5l-.5-.1h-.4l-.9-.1c-1.2 0-2.5 0-3.7.3-1.2.3-2.4.6-3.6 1.2-1.1.6-2.2 1.2-3.1 2-.9.8-1.8 1.7-2.4 2.7-.6 1-1.1 2.1-1.4 3.3l-1.1 4-1.7-3.9-.6-1.5-.8-1.5-.9-1.4-.9-1.4-1-1.3-1.1-1.2-1.2-1.1c-.4-.4-.8-.7-1.3-1.1-.4-.3-.9-.6-1.3-1-.5-.3-.9-.6-1.4-.9-.5-.3-1-.5-1.4-.8l-1.5-.6c-.5-.2-1-.3-1.5-.5l-1.6-.4-1.5-.2-1.7-.1-1.5.1-1.6.2-1.6.4c-.5.2-1 .3-1.5.5l-1.5.6c-.5.2-.9.5-1.4.8-.5.3-.9.6-1.3.9-.4.3-.8.7-1.3 1-.4.4-.8.7-1.2 1.1-.4.4-.7.8-1.1 1.2-.3.4-.6.9-.9 1.3-.3.5-.5.9-.8 1.4-.2.5-.4 1-.7 1.5l-.5 1.5-.3 1.6-.1 1.6-.4 6-2.1-5.6-.6-1.5-.7-1.5-.8-1.4-.9-1.4-1-1.3c-.3-.4-.7-.8-1.1-1.2l-1.1-1.1c-.4-.4-.8-.7-1.2-1.1-.4-.3-.9-.6-1.3-1-.4-.3-.9-.6-1.4-.9-.5-.3-1-.5-1.4-.7l-1.5-.6c-.5-.2-1-.3-1.5-.5-.5-.1-1.1-.2-1.6-.3-.5-.1-1-.1-1.6-.2h-1.7c-.5 0-1 .1-1.6.2-.5.1-1 .2-1.6.4-.5.2-1 .4-1.5.5-.5.2-1 .5-1.5.7-.5.3-.9.6-1.4.9-.5.3-.9.7-1.3 1-.4.3-.8.8-1.2 1.1-.4.4-.7.8-1.1 1.2-.4.4-.6.9-1 1.3-.3.5-.5 1-.8 1.4-.3.5-.4 1-.7 1.5-.2.5-.3 1.1-.5 1.6-.1.5-.2 1.1-.3 1.6 0 .6 0 1.1-.1 1.7l.2 1.7 1.1 2.1z" id="path718" fill="#00bbd6"/></g></g></g><g id="layer4"><g id="bokor"><g id="g721"><g id="g723"><path class="st6" d="M1804.2 926.3c2.2 7.8 6.2 15 11.7 20.9-2.6-7.6-6.7-14.6-11.7-20.9z" id="path725" fill="none"/><path class="st6" d="M1729.6 981c1.5 2.2 3.1 4.4 4.8 6.5-1.4-2.3-3-4.4-4.8-6.5z" id="path727" fill="none"/></g></g><g id="g729"><g id="g731"><path class="st6" d="M408.7 1003.3c-1.6 2.1-2.8 4.6-3.5 7.3 1.5-2.3 2.6-4.7 3.5-7.3z" id="path733" fill="none"/><path class="st6" d="M337.8 960.5c-1.2 1.3-2.4 2.7-3.4 4.2 1.3-1.2 2.4-2.7 3.4-4.2z" id="path735" fill="none"/><path class="st6" d="M448 1043.2c1.7-2.3 3-4.8 4-7.5-2.3 1.7-3.9 4.3-4 7.5z" id="path737" fill="none"/><path class="st6" d="M1803.2 930.3c2.2 7.8 6.2 15 11.7 20.9-2.6-7.6-6.7-14.6-11.7-20.9z" id="path739" fill="none"/><path class="st6" d="M1728.6 985c1.5 2.2 3.1 4.4 4.8 6.5-1.4-2.3-3-4.4-4.8-6.5z" id="path741" fill="none"/><path class="st6" d="M239.4 887.5c-1.6 1.7-2.7 3.9-3 6.3 1.3-1.9 2.3-4.1 3-6.3z" id="path743" fill="none"/><path class="st6" d="M267.5 925.2c-.3 1-.5 2-.7 3 .3-1 .5-2 .7-3z" id="path745" fill="none"/></g><path class="st15" d="M505 1087c1.8.3 3.6.7 5.4 1l1.2-.7c-2.2-.5-4.4-.6-6.6-.3z" id="path747" fill="#2b2235"/></g><g id="g749"><path class="st6" d="M337.8 944.5c-1.2 1.3-2.4 2.7-3.4 4.2 1.3-1.2 2.4-2.7 3.4-4.2z" id="path751" fill="none"/><path class="st6" d="M448 1027.2c1.7-2.3 3-4.8 4-7.5-2.3 1.7-3.9 4.3-4 7.5z" id="path753" fill="none"/><path class="st6" d="M408.7 987.3c-1.6 2.1-2.8 4.6-3.5 7.3 1.5-2.3 2.6-4.7 3.5-7.3z" id="path755" fill="none"/><path class="st6" d="M1803.2 914.3c2.2 7.8 6.2 15 11.7 20.9-2.6-7.6-6.7-14.6-11.7-20.9z" id="path757" fill="none"/><path class="st6" d="M1728.6 969c1.5 2.2 3.1 4.4 4.8 6.5-1.4-2.3-3-4.4-4.8-6.5z" id="path759" fill="none"/><path class="st6" d="M267.5 909.2c-.3 1-.5 2-.7 3 .3-1 .5-2 .7-3z" id="path761" fill="none"/><path class="st6" d="M239.4 871.5c-1.6 1.7-2.7 3.9-3 6.3 1.3-1.9 2.3-4.1 3-6.3z" id="path763" fill="none"/><g id="g765"><path class="st6" d="M408.7 987.3c-1.6 2.1-2.8 4.6-3.5 7.3 1.5-2.3 2.6-4.7 3.5-7.3z" id="path767" fill="none"/><path class="st6" d="M448 1027.2c1.7-2.3 3-4.8 4-7.5-2.3 1.7-3.9 4.3-4 7.5z" id="path769" fill="none"/><path class="st6" d="M1728.6 969c1.5 2.2 3.1 4.4 4.8 6.5-1.4-2.3-3-4.4-4.8-6.5z" id="path771" fill="none"/><path class="st6" d="M267.5 909.2c-.3 1-.5 2-.7 3 .3-1 .5-2 .7-3z" id="path773" fill="none"/><path class="st6" d="M1803.2 914.3c2.2 7.8 6.2 15 11.7 20.9-2.6-7.6-6.7-14.6-11.7-20.9z" id="path775" fill="none"/><path class="st6" d="M337.8 944.5c-1.2 1.3-2.4 2.7-3.4 4.2 1.3-1.2 2.4-2.7 3.4-4.2z" id="path777" fill="none"/><path class="st6" d="M239.4 871.5c-1.6 1.7-2.7 3.9-3 6.3 1.3-1.9 2.3-4.1 3-6.3z" id="path779" fill="none"/><path class="st14" d="M1908.5 909.5c-7.2-7.4-15.6-15-25.9-15.6-10.3-.6-21.2 10.2-16.7 19.5-7-8.6-14.3-17.5-24.2-22.6-9.9-5-23.2-5.1-31.1 2.8-3.5 3.5-5.5 8.2-6.8 12.9-2.5 9.1-2.2 18.8.4 27.8 5 6.3 9 13.3 11.7 20.9-5.5-5.9-9.5-13.1-11.7-20.9-15.4-19.3-40-31.4-64.7-30.3-10.8.5-22.8 4.4-27.2 14.2-2.1 4.6-2.2 9.8-1.9 14.8 1.1 20 7.9 39.6 19.3 56 1.8 2 3.4 4.2 4.8 6.5-1.7-2.1-3.3-4.2-4.8-6.5-9.3-10.6-23.1-17.3-37.2-17.8-5.3-.2-10.7.5-15.3 3.2-8.5 5.1-11.6 16-11.8 25.9-.2 9.9 1.6 19.9-.2 29.7-10.2-8.3-21.6-17-34.7-16.7-13.1.4-25.6 15.7-18.3 26.6-5.6-6.3-11.5-12.8-19-16.5-7.6-3.7-17.4-4.2-24 1.1-9.4 7.5-8 21.7-5.1 33.8h-.5c-5.4-9.1-21.5-8.8-28.9-.3-.8.9-1.4 1.8-2.1 2.8-2-.3-3.9-.9-5.8-1.7-19.1-8.2-45.9.2-51 20.4-7.5-23.4-50.8-16.5-50.7 8-20.3-10.1-48.3 7.7-47.8 30.4 0-22.9-22.3-43.3-45.1-41.3s-41.2 25.9-37.3 48.5c-8.3-25.2-21.9-50.8-45.8-62.3-23.3-11.3-57.4-1.5-63.8 23.2 3.3-16.6-16.6-33-32.9-27.3-15 5.2-21.6 24.7-15.9 39.3-12.2-16.7-46.6-10.4-50.9 10.2.2-16.7-22.2-28.7-39.1-23.3-18.2 5.8-29.8 23.2-39.9 39.3 7.3-23.4-7.8-51.4-31.4-58.1-23.6-6.7-51.2 9.2-57.2 33-5.4-22.4-20.9-44.4-43.6-48.7-22.7-4.3-48.4 18.1-41 39.9-4-13.9-25.7-18.1-34.6-6.7-7.1-11.4-29.2-1.6-25.5 11.4-13-25.9-57-26.3-70.4-.6-5.9-28.4-51.4-36.6-66.8-12-7-26.2-48.7-33.1-63.8-10.6-14.2-9.1-34.1-6.3-46.8 4.4-1.3-2.1-2.6-4.3-3.9-6.2-10.1-14.5-35.6-13.6-44.6 1.6 3.3-10.2 4-22.7-3.3-30.6-5.2-5.6-15-5.7-20.6-1.5-1 2.7-2.4 5.2-4 7.5.1-3.2 1.7-5.7 4-7.5 4.9-12.5 2.6-28.1-7.7-36.5-10.4-8.5-27.8-5.9-35.6 4.2-.9 2.5-2 5-3.5 7.3.6-2.8 1.8-5.2 3.5-7.3 6.2-17.8-.5-39.9-16.5-50.2-16.7-10.8-41-7.1-54.4 7.4-1 1.5-2.1 2.9-3.4 4.2 1-1.5 2.2-2.9 3.4-4.2 12.8-18.7 7.1-48.7-13.2-59.7-20.9-11.4-50.8 1.7-57.1 24.3-.2 1-.5 2-.7 3 .2-1 .4-2 .7-3 1.7-7.2 3-14.6 2.1-21.9-1.1-8.3-5.9-16.7-13.8-19.7-5.6-2.1-12.5-.2-16.4 3.9-.7 2.2-1.7 4.3-3 6.3.3-2.4 1.4-4.6 3-6.3 5.1-15.6-3.9-35.7-20.3-39.4-18.6-4.2-38.2 17-31.2 34.8-7.8-19.9-18.6-42.6-39.5-47.1-13.4-2.9-27.9 3.5-36.1 14.5-8.2 11-10.2 25.9-6.7 39.1-6-11.5-12.3-23.3-22.5-31.4C74 853.7 59.1 850.2 48 857c-10.7 6.6-14.5 21.2-11.6 33.4 2.9 12.2 11.2 22.6 20.1 31.4-13.9-2.1-28.2-1.4-41.9 2.1-3.2.8-6.6 1.9-8.8 4.4-2.6 3-2.9 7.3-2.9 11.2-.1 8.4.1 16.8.8 25.2l.5 1.2c-1.5 1.1-2.3 2.3-4.3 3.5V1219h1920V885.8c-6.9 6-10.7 14.5-11.4 23.7z" id="path781" fill="#f4daa2"/><path class="st15" d="M1908.5 915.5c-7.2-7.4-15.6-15-25.9-15.6-10.3-.6-21.2 10.2-16.7 19.5-7-8.6-14.3-17.5-24.2-22.6-9.9-5-23.2-5.1-31.1 2.8-3.5 3.5-5.5 8.2-6.8 12.9-2.5 9.1-2.2 18.8.4 27.8 5 6.3 9 13.3 11.7 20.9-5.5-5.9-9.5-13.1-11.7-20.9-15.4-19.3-40-31.4-64.7-30.3-10.8.5-22.8 4.4-27.2 14.2-2.1 4.6-2.2 9.8-1.9 14.8 1.1 20 7.9 39.6 19.3 56 1.8 2 3.4 4.2 4.8 6.5-1.7-2.1-3.3-4.2-4.8-6.5-9.3-10.6-23.1-17.3-37.2-17.8-5.3-.2-10.7.5-15.3 3.2-8.5 5.1-11.6 16-11.8 25.9-.2 9.9 1.6 19.9-.2 29.7-10.2-8.3-21.6-17-34.7-16.7-13.1.4-25.6 15.7-18.3 26.6-5.6-6.3-11.5-12.8-19-16.5-7.6-3.7-17.4-4.2-24 1.1-9.4 7.5-8 21.7-5.1 33.8h-.5c-5.4-9.1-21.5-8.8-28.9-.3-.8.9-1.4 1.8-2.1 2.8-2-.3-3.9-.9-5.8-1.7-19.1-8.2-45.9.2-51 20.4-7.5-23.4-50.8-16.5-50.7 8-20.3-10.1-48.3 7.7-47.8 30.4 0-22.9-22.3-43.3-45.1-41.3s-41.2 25.9-37.3 48.5c-8.3-25.2-21.9-50.8-45.8-62.3-23.3-11.3-57.4-1.5-63.8 23.2 3.3-16.6-16.6-33-32.9-27.3-15 5.2-21.6 24.7-15.9 39.3-12.2-16.7-46.6-10.4-50.9 10.2.2-16.7-22.2-28.7-39.1-23.3-18.2 5.8-29.8 23.2-39.9 39.3 7.3-23.4-7.8-51.4-31.4-58.1-23.6-6.7-51.2 9.2-57.2 33-5.4-22.4-20.9-44.4-43.6-48.7-22.7-4.3-48.4 18.1-41 39.9-4-13.9-25.7-18.1-34.6-6.7-7.1-11.4-29.2-1.6-25.5 11.4-13-25.9-57-26.3-70.4-.6-5.9-28.4-51.4-36.6-66.8-12-7-26.2-48.7-33.1-63.8-10.6-14.2-9.1-34.1-6.3-46.8 4.4-1.3-2.1-2.6-4.3-3.9-6.2-10.1-14.5-35.6-13.6-44.6 1.6 3.3-10.2 4-22.7-3.3-30.6-5.2-5.6-15-5.7-20.6-1.5-1 2.7-2.4 5.2-4 7.5.1-3.2 1.7-5.7 4-7.5 4.9-12.5 2.6-28.1-7.7-36.5-10.4-8.5-27.8-5.9-35.6 4.2-.9 2.5-2 5-3.5 7.3.6-2.8 1.8-5.2 3.5-7.3 6.2-17.8-.5-39.9-16.5-50.2-16.7-10.8-41-7.1-54.4 7.4-1 1.5-2.1 2.9-3.4 4.2 1-1.5 2.2-2.9 3.4-4.2 12.8-18.7 7.1-48.7-13.2-59.7-20.9-11.4-50.8 1.7-57.1 24.3-.2 1-.5 2-.7 3 .2-1 .4-2 .7-3 1.7-7.2 3-14.6 2.1-21.9-1.1-8.3-5.9-16.7-13.8-19.7-5.6-2.1-12.5-.2-16.4 3.9-.7 2.2-1.7 4.3-3 6.3.3-2.4 1.4-4.6 3-6.3 5.1-15.6-3.9-35.7-20.3-39.4-18.6-4.2-38.2 17-31.2 34.8-7.8-19.9-18.6-42.6-39.5-47.1-13.4-2.9-27.9 3.5-36.1 14.5-8.2 11-10.2 25.9-6.7 39.1-6-11.5-12.3-23.3-22.5-31.4C74 859.7 59.1 856.2 48 863c-10.7 6.6-14.5 21.2-11.6 33.4 2.9 12.2 11.2 22.6 20.1 31.4-13.9-2.1-28.2-1.4-41.9 2.1-3.2.8-6.6 1.9-8.8 4.4-2.6 3-2.9 7.3-2.9 11.2-.1 8.4.1 16.8.8 25.2l.5 1.2c-1.5 1.1-2.3 2.3-4.3 3.5V1235h1920V891.8c-6.9 6-10.7 14.5-11.4 23.7z" id="path783" fill="#2b2235"/></g></g></g></g><g id="layer2"><g id="logo"><g id="g546"><path class="st1" id="polygon548" fill="#fff" d="M872.1 734.8l7.9-2.1v10.1l-21.3 6.3-7.9 6 1 7.4 6.7 4.2 17.6-4.2 31.3-13.4 12.4 3.3 9.7-4.4 8 7.5 12.1-.4 7.4-6 5.3-3.5 19.8 2.8 21.9-.8 21.1-9.2 10.9-5.7v14.6l6.4.3 10.8-5.6 1.6-6.7-5.8-18.5 8.5-6.9.6 15 5.8 2.1 6.1-4.8 1.8-7.4-4.1-14.8-9.6-3.5-18.8 3.5-4.1-14.3-5.3-5.1 19.2-1.7 8.4-7.1 4.6-8.7-4-11.2-9-22.7 2.5-14.7-16.8-3.2-20.9-5.6-17.2 6.7-10.9 16.4-3.6 4.9-7.2-6-10.8-2.6-7.5 4.9 1 8.5 4.3 7 6.3 3.9 12.3-1.2 7.5 6 1.1 10.1-11.6-1.2-14.9-7.1-11.9 3.5-11.6-5.3-21.3 5.3-20.2 7.3-3 11.6-14.9 8.7-8.8 17.6V717l-6.4-4.6-6.5 7.2-4.6 5-10.5 5.1V741h15.1z"/><g id="g550"><g id="g552"><path class="st9" d="M1050.5 674.8c.6-.3 1.3-.8 1.9-1.5-7.3 2.5-16.8 3.3-22.6-.8-8.7-6.1-14.6-16.9-19.3-26.2-.8-1.6-1.4-3.3-1.7-5.1-.8-1.6-2.4-5.6-2-7.6-.2-3.5.9-6.8 3.7-8.8.7-.9 3.7-3 3.8-3 6.1-3.4 15-2.2 20.7 1.1 2.8-5 8.3-4.4 12.7-1.1v-.1s.2-1.8-1.1-3.5c-1.8-2.2-5.5-3.3-11.2-3.3-1.3-.2-14.9-3.2-21.7-5.9-.2-.1-.5-.2-1.1-.2-6.2-.4-21.3 6.8-23.6 20.4 0 .1.1.1.1.2.6 2.3.1 5.1-.1 7.5-.2 2.1-.6 4.2-1.1 6.3h.2l-.2 3.9c0 .6.4 1.1 1.9 2.6 1.4 1.4 3.1 3.1 4.6 5.7.9 1.7 1.1 3.6.5 5.4-1.7 5.1-8.9 8.8-10.3 9.4l-2.4 1.1-1.5-2.2c-4.4-6.2-9.4-9.5-14.9-9.9-5.5-.4-9.7 2.3-9.8 2.3l-1.9 1.3-1.8-1.4c-4.1-3.3-8.5-5.2-13.1-5.5-10.5-.8-19 6.7-19 6.8l-1 .9-1.4-.1c-20.3-1.5-22.4 13-22.6 14.7l-.3 2.9H892c-2.6 0-7.1 1.7-11.1 5.8-2.9 2.9-7.7 9.4-7.4 19.6.4 3.8 3.7 8.4 3.7 8.4l-8.7 1c-8.7 1-8.1 7.2-4 10s16.4-.9 16.4-.9l-1.6 1.2c-1.4.9-1.6 4.1-1.6 4.1-.2 8.6 6.8 12 10.6 13.2 1.5-.9 4.6.5 5.9.9 3.3 1 6.5 2.3 9.9 1.9 1.5-.1 3.2-.6 4.7-.4h.2c.1 0 .3.1.4.1.1 0 .3.1.4.1.4.4.8.7 1.4.9.9.3 1.8.5 2.7.6.6-.1 1.2-.1 1.9-.1 6.2.4 12.1-2.9 12.2-2.9l2.3-1.3 1.7 2.1c.1.1 6.1 7.3 15.3 6.6 8.7-.6 11.1-8 11.2-8.4l6-.2s.9 1.3 6.2 1.6c5.9.4 12.8-.6 12.9-.6l2.9-.4s30.1 5.9 48.9-16.3c0-.1-3.4-13.3-2.5-13.2.3-.7.6-1.3.9-2 .2-.3.3-.7.5-1 .7-1.6 1.5-4.2 1.2-4.4 7.3-12.7-4.9-24.3-5.4-24.9l-6-5.7 8.3.2c2.8.4 13.4.1 18.1-1.9z" id="path554" fill="#5bc9e1"/><path class="st10" d="M917.1 673.4l1.4.1 1-.9c.1-.1 8.5-7.5 19-6.8 4.6.3 9 2.2 13.1 5.5l1.8 1.4 1.9-1.3s4.3-2.7 9.8-2.3c5.5.4 20.1.7 18.9 1.2l-2.4 1.1-1.5-2.2c-4.4-6.2-9.4-9.5-14.9-9.9-5.5-.4-9.7 2.3-9.8 2.3l-1.9 1.3-1.8-1.4c-4.1-3.3-8.5-5.2-13.1-5.5-10.5-.8-19 6.7-19 6.8l-1 .9-1.4-.1c-20.3-1.5-22.4 13-22.6 14.7l-.3 2.9h-2.9c-2.7 0 5.4-9.3 25.7-7.8z" id="path556" fill="#aae8f2"/><g id="g558"><path class="st11" d="M1029.9 646.5c-.2 3.2-2.8 5.6-5.7 5.4-2.9-.2-5.1-3-4.8-6.2.2-3.2 2.8-5.6 5.7-5.4 2.9.2 5 3 4.8 6.2z" id="path560" fill="#4d4d4d"/><path class="st1" d="M1025.3 645.6c-.1 1.5-1.1 2.7-2.2 2.6-1.1-.1-2-1.4-1.8-2.9.1-1.5 1.1-2.7 2.2-2.6 1.1.1 1.9 1.4 1.8 2.9z" id="path562" fill="#fff"/></g><g id="g564"><ellipse transform="rotate(-85.89 1050.138 642.645) scale(.99997)" class="st11" cx="1050.1" cy="642.6" rx="4.1" ry="3.1" id="ellipse566" fill="#4d4d4d"/><ellipse transform="rotate(-85.89 1049.105 642.16) scale(.99997)" class="st1" cx="1049.1" cy="642.2" rx="1.6" ry="1.2" id="ellipse568" fill="#fff"/></g><path class="st6" d="M1060.2 705.3v19.1c.6.3 1.3.5 2 .5 3.1 0 6.3-3.2 7.8-5.2-.5-3.2-2.1-12.6-4.6-18-.5-1-2.6-1.6-5.7-1.6-5.6 0-12.8 1.9-15.5 2.7-.5 1.5-1.1 4-1.6 6.7 2.7.3 4.9 1.2 6.4 2.6l11.2-6.8z" id="path570" fill="none"/><path class="st6" d="M1054.8 714.8l-3 1.8c1.1 2.4 2.1 5.2 3 7.9v-9.7z" id="path572" fill="none"/><path class="st12" d="M894.3 706.7c-4.7-9.7-2.8-25.5-2.8-25.5-2.6 0-7.1 1.7-11.1 5.8-2.9 2.9-7.7 9.4-7.4 19.6.4 3.8 3.7 8.4 3.7 8.4l-8.7 1c-8.7 1-8.1 7.2-4 10s16.4-.9 16.4-.9l-1.6 1.2c-1.4.9-1.6 4.1-1.6 4.1-.2 8.6 6.8 12 10.6 13.2 1.5-.9 4.6.5 5.9.9 3.3 1 6.5 2.3 9.9 1.9 1.5-.1 3.2-.6 4.7-.4h.2c.1 0 .3.1.4.1.1 0 .3.1.4.1.4.4.8.7 1.4.9.9.3 1.8.5 2.7.6.6-.1 1.2-.1 1.9-.1 6.2.4 12.1-2.9 12.2-2.9l2.3-1.3 1.7 2.1c.1.1 6.1 7.3 15.3 6.6 8.7-.6 11.1-8 11.3-8.4l6-.2s.9 1.3 6.2 1.6c5.9.4 12.8-.6 12.9-.6l2.9-.4c-.3.3-77.5-7.7-91.8-37.4z" id="path574" fill="#00bbd6"/><path class="st12" d="M1036.5 694.6s-31.4-12-35.4-30.3c-4-18.2-1.9 7.1 22.2 12.5 0 0 13 9.4 13.2 16" id="path576" fill="#00bbd6"/><ellipse transform="rotate(-77.05 1026.468 615.752)" class="st10" cx="1026.5" cy="615.8" rx="4.7" ry="23.1" id="ellipse578" fill="#aae8f2"/><path class="st8" d="M1075.5 720c-.1-.5-1.8-13.4-5.3-20.7-1.5-3.1-5-4.7-10.6-4.7-5.9 0-13 1.8-16.4 2.7-.4-5.3-2.6-10.2-5.1-14 4.7-.2 10.9-.9 14.8-2.5 5.2-2.2 8.9-9.5 10.5-15.1 1-3.5 1.7-8.4-.4-11.2-1.6-2.2-7.3-16.4-8.3-19.8-.5-3.1-1.3-9-1.2-10.8.4-2.1-.2-6.2-.3-6.2-.4-1-.9-2.1-1.8-3.2-2.6-3.3-7-5.2-13-5.7-1-.1-2.1-.1-2.6 0-.1 0-13.6-3-20-5.5-.9-.4-1.9-.6-3-.7-9-.7-26.8 8.3-30.2 24.8h-.1c-.7-.1-2.4-.4-5.2-2.2-6.7-4.3-17.2-4.4-21.6-.3-1.7 1.6-2.6 3.6-2.6 5.8-.1 11.6 7.9 18.8 21.8 19.8 2.7.2 5.2.1 6.9 0 .7 1.6 2 2.8 3.1 3.9 1.2 1.2 2.5 2.4 3.5 4.7-.4 1.3-2.6 3.1-4.7 4.4-5.2-6.4-11.2-9.8-18-10.3-5.1-.4-9.3 1.1-11.7 2.3-4.7-3.3-9.7-5.2-14.9-5.6-10.9-.8-19.7 5.1-22.7 7.5-20.3-1.3-26.1 12-27.6 17.9-4.3.8-9.1 3.5-13.1 7.5-6.2 6.3-9.5 14.9-9.3 24.3 0 1.4.2 2.9.5 4.7 0 0-11.5-2.2-12.6 9-13.3 3.9-14.2 6.5-14.6 7.6-.8 2.4-3 8.7.5 13 1.9 2.4 5.1 3.6 9.4 3.6 1.1 0 2.2-.1 3.4-.2 4.9-.6 12.3-2.8 20.2-5.6.5.9 1 1.8 1.8 2.7-24.4 5.7-25.6 9.2-26.1 10.6-.8 2.4-3 8.7.5 13 1.9 2.4 5.1 3.6 9.4 3.6 1.1 0 2.2-.1 3.4-.2 10.7-1.3 34-10.6 46.3-15.8 1.8.7 3.7 1.2 5.8 1.4 5.5.4 10.7-1.4 13.5-2.6 3 2.8 9.7 7.7 18.9 7 8.1-.5 12.6-5.1 14.9-8.7 4.4 2 24.3 1.8 25.2 1 0 0 19.1 4 33.5-4.1 7.8-4.4 11.4-8.1 13.1-10.5l.8 11.6 1.3.9c2.4 1.7 5 2.4 7.7 2.3 8.3-.5 14-9.8 14.6-10.9l.6-1-.2-1.2c-.1-.3-1-4.8-2.5-10.1 1.9 1.5 4.1 2.3 6.3 2.3 7 0 12.3-7.5 12.9-8.4l.6-.8V720zm-17.6-60.4c.1 0 .1-.1.2-.1 0 1.4-.4 3.8-1.5 6.6-.4.2-.7.4-1.1.6.4-1.9 0-3.7-.1-5.5.9-.4 1.7-1 2.5-1.6zm-205.5 78.7c-3.6.4-6.2.1-7.1-1-.6-.7-1-2.4.4-6.5 1.2-1 4.9-2.3 9.7-3.7 3.8 7.4 16.6 4.8 16.6 4.8s-.1.4-.1.9c-7.7 2.7-14.9 4.9-19.5 5.5zm190.6 6.6c-.8.1-1.6-.1-2.4-.4l-1.5-22.5c-18 29.5-53.4 22.5-53.4 22.5l-2.9.4c-.1 0-7 1-12.9.6-5.3-.4-6.2-1.6-6.2-1.6l-6 .2c-.1.3-2.5 7.8-11.3 8.4-9.3.7-15.3-6.5-15.3-6.6l-1.7-2.1-2.3 1.3c-.1 0-6 3.4-12.2 2.9-.6 0-1.3 0-1.9.1-.9-.1-1.8-.3-2.7-.6-.5-.2-1-.6-1.4-.9-.2 0-.4 0-.5-.1-.1 0-.2-.1-.3-.2-11.4 4.8-36.2 14.9-46.6 16.1-3.6.4-6.2.1-7.1-1-.6-.7-1-2.4.4-6.5 2.5-2 33.6-8.7 35.1-10.4 0 0-13.3-2-13-13.8 0 0 .1-3.2 1.6-4.1l1.6-1.2s-12.3 3.7-16.4.9c-4.1-2.8-4.7-9 4-10l8.7-1s-3.3-4.6-3.7-8.4c-.3-10.3 4.6-16.7 7.4-19.6 4-4.1 8.5-5.8 11.1-5.8h2.9l.3-2.9c.2-1.7 2.3-16.2 22.6-14.7l1.4.1 1-.9c.1-.1 8.5-7.5 19-6.8 4.6.3 9 2.2 13.1 5.5l1.8 1.4 1.9-1.3s4.2-2.7 9.8-2.3c5.5.4 10.6 3.7 14.9 9.9l1.5 2.2 2.4-1.1c1.4-.7 8.7-4.3 10.3-9.4.6-1.9.4-3.8-.5-5.4-1.4-2.6-3.2-4.4-4.6-5.7-1.6-1.5-2-2-1.9-2.6l.2-3.9-3.9.6s-3.9.6-8.5.2c-10.6-.8-15.9-5.3-15.9-13.4 0-.3.1-.7.5-1.2 2.3-2.1 9.6-1.8 13.9 1 3 1.9 5.8 3 8.1 3.2 4 .3 5.7-2 6-2.4l.5-1.3c2-14 17.5-21.5 23.8-21 .6 0 .9.1 1.1.2 6.9 2.7 20.5 5.7 21.7 5.9 5.7 0 9.4 1.1 11.2 3.3 1.3 1.6 1.1 3.5 1.1 3.5v.1c-4.4-3.2-9.9-3.9-12.7 1.1-5.7-3.3-14.6-4.5-20.7-1.1-.1 0-3.1 2.1-3.8 3-2.8 2-3.9 5.3-3.7 8.8-.5 2.4 2 7.6 2.4 8.2.1.1.7 1.1 1 1.5.2.3.4.4.6.4.2.2-4.4-13.4 5-18 9.7-4.7 19 1.2 19.4 1.4l1.9 1.2.1-2s.1-2.4 1.9-3.1c1.6-.7 4.4.2 8 2.3-.1.5-.2 1.2-.3 2.1v.3c-.1 2.2.2 5.6 2.1 9.5.6 6 7.1 17.2 8.8 19.9-2 1.4-3.9 2.4-6.5 2.3-1.2 0-3.9.1-4.5-1.1-.3-.5-1.2-.5-1.2.2 0 .6.3 1.1.7 1.5 1.7 2.5 4.9 2.6 7.7 1.6 0 1.2.2 2.4.1 3.6-.1.7-.3 1.4-.5 2.1-7.8 2.7-19.1-.1-23.7-6.8-.2-.4-.9-.1-.8.3.5 2.3 2.1 4 4.1 5.2 4.1 3.2 9.9 5 15.2 4.7 2.2 0 4.4-.3 6.6-1.1-1.4 2.5-2.9 4.3-4.3 4.8-4.7 2-15.3 2.2-19 2.2l-8.3-.2 6 5.7c.6.5 12.7 12.2 5.4 24.9.3.2-.5 2.8-1.2 4.4-.2.3-.3.7-.5 1-.4 1.1-.8 2.1-1.4 3.1-.2.4 2.4.3 4.3 0 .7-.1 1.4-.2 2.1-.2 1.3-.1 2.4-.1 3.3 0 .4 0 .7.1 1 .1 1.3.2 2.1.7 2.5 1.3l.3.6c3.3 6.3 5.8 16.7 6.6 20.3-.7 2.2-4.3 6.3-7.9 6.6zm11.8-20.4c-.9-2.7-1.9-5.4-3-7.9l3-1.8v9.7zm7.4.4c-.7 0-1.3-.2-2-.5v-19.1l-11.3 6.7c-1.5-1.4-3.7-2.3-6.4-2.6.5-2.8 1.1-5.2 1.6-6.7 2.8-.8 9.9-2.7 15.5-2.7 3.1 0 5.2.6 5.7 1.6 2.6 5.5 4.2 14.9 4.6 18-1.4 2-4.7 5.3-7.7 5.3z" id="path580" fill="#3a2435"/></g></g></g><path class="st6" d="M181.4 691.7c-3-4.6-6.1-9.4-6.5-14.9-.4-5.5 2.8-11.7 8.2-12.5 6.8-1.1 11.8 5.9 15 11.9-1.4-7.3-1.8-14.8-1-22.2.2-2.3.9-5 3.1-5.7 2.5-.9 5 1.6 5.8 4.1.8 2.5.8 5.3 2.1 7.6.2-3.1 5.3-3.5 7.2-1.1 1.9 2.5 1.5 6 1 9-.6 3.1-1.1 6.5.5 9.1 2.5 4 8.2 3.9 12.2 6.4 4.8 2.9 6.4 8.9 7.6 14.4.6 2.5 1.1 5.3.1 7.7-1 2.4-4.5 3.8-6.4 1.9 5.2 1.4 7.2 8.5 4.7 13.3-2.5 4.8-7.9 7.3-13.2 8.2-9.7 1.5-21.3-3.5-23.3-13.1 1.3 3.6-1.5 7.8-5.2 8.9-3.7 1.2-7.7 0-11.1-1.8-6.3-3.5-11.4-9.9-11.6-17.1-.3-7.2 5.3-14.6 12.5-14.9" id="path582" fill="none"/></g></g></svg>